ISO-10303-21;
HEADER;
/* Generated by software containing ST-Developer
 * from STEP Tools, Inc. (www.steptools.com) 
 */
/* OPTION: using custom renumber hook */

FILE_DESCRIPTION(
/* description */ ('STEP AP242 Edition 2',
'CAx-IF Rec.Pracs.---Representation and Presentation of Product Manufa
cturing Information (PMI)---4.0---2014-10-13',
'CAx-IF Rec.Pracs.---3D Tessellated Geometry---0.4---2014-09-14','2;1',
'CAx-IF Rec.Pracs.---User Defined Attributes---1.5---2016-08-15'),
/* implementation_level */ '2;1');

FILE_NAME(
/* name */ 'batteryCase18650x3 - V0.2_BattCover',
/* time_stamp */ '2026-04-06T15:11:22Z',
/* author */ (''),
/* organization */ (''),
/* preprocessor_version */ 'ST-DEVELOPER v20',
/* originating_system */ 'ONSHAPE BY PTC INC, 1.213',
/* authorisation */ '  ');

FILE_SCHEMA (('AP242_MANAGED_MODEL_BASED_3D_ENGINEERING_MIM_LF { 1 0 10303 442 3 1 4 }'));
ENDSEC;

DATA;
#10=SHAPE_REPRESENTATION_RELATIONSHIP('','',#497,#11);
#11=ADVANCED_BREP_SHAPE_REPRESENTATION('',(#495),#851);
#12=TOROIDAL_SURFACE('',#521,0.00508,0.00254);
#13=TOROIDAL_SURFACE('',#530,0.00508,0.00254);
#14=CYLINDRICAL_SURFACE('',#513,0.00254);
#15=CYLINDRICAL_SURFACE('',#516,0.00254);
#16=CYLINDRICAL_SURFACE('',#518,0.00254);
#17=CYLINDRICAL_SURFACE('',#519,0.00254);
#18=CYLINDRICAL_SURFACE('',#522,0.00254);
#19=CYLINDRICAL_SURFACE('',#525,0.00254);
#20=CYLINDRICAL_SURFACE('',#527,0.00254);
#21=CYLINDRICAL_SURFACE('',#528,0.00254);
#22=CYLINDRICAL_SURFACE('',#531,0.001524);
#23=CYLINDRICAL_SURFACE('',#534,0.001524);
#24=CYLINDRICAL_SURFACE('',#536,0.001524);
#25=CYLINDRICAL_SURFACE('',#538,0.001524);
#26=CYLINDRICAL_SURFACE('',#539,0.001524);
#27=CYLINDRICAL_SURFACE('',#542,0.001524);
#28=CYLINDRICAL_SURFACE('',#544,0.001524);
#29=CYLINDRICAL_SURFACE('',#546,0.001524);
#30=ELLIPSE('',#508,0.00256106966700121,0.00254);
#31=ELLIPSE('',#510,0.00256179011632613,0.00254);
#32=ELLIPSE('',#514,0.00359210244842767,0.00254);
#33=ELLIPSE('',#515,0.00359210244842766,0.00254);
#34=ELLIPSE('',#517,0.00359210244842767,0.00254);
#35=ELLIPSE('',#523,0.00359210244842766,0.00254);
#36=ELLIPSE('',#524,0.00359210244842766,0.00254);
#37=ELLIPSE('',#526,0.00359210244842767,0.00254);
#38=ELLIPSE('',#532,0.00217642456263407,0.001524);
#39=ELLIPSE('',#533,0.00215526146905659,0.001524);
#40=ELLIPSE('',#535,0.00215526146905659,0.001524);
#41=ELLIPSE('',#537,0.00213470396398932,0.001524);
#42=ELLIPSE('',#540,0.00215526146905659,0.001524);
#43=ELLIPSE('',#541,0.00217642456263407,0.001524);
#44=ELLIPSE('',#543,0.0021552614690566,0.001524);
#45=ELLIPSE('',#545,0.00213470396398932,0.001524);
#46=B_SPLINE_CURVE_WITH_KNOTS('',3,(#759,#760,#761,#762,#763,#764),
 .UNSPECIFIED.,.F.,.F.,(4,1,1,4),(0.,0.000878521334258476,0.00175704266851695,
0.0035140853370339),.UNSPECIFIED.);
#47=B_SPLINE_CURVE_WITH_KNOTS('',3,(#773,#774,#775,#776,#777,#778),
 .UNSPECIFIED.,.F.,.F.,(4,1,1,4),(0.,0.000877358371165863,0.00175471674233173,
0.00350943348466345),.UNSPECIFIED.);
#48=B_SPLINE_CURVE_WITH_KNOTS('',3,(#796,#797,#798,#799),.UNSPECIFIED.,
 .F.,.F.,(4,4),(0.00529591540391125,0.0073539038671066),.UNSPECIFIED.);
#49=B_SPLINE_CURVE_WITH_KNOTS('',3,(#809,#810,#811,#812),.UNSPECIFIED.,
 .F.,.F.,(4,4),(0.00529557018579548,0.00735390386710657),.UNSPECIFIED.);
#50=CIRCLE('',#500,0.00508);
#51=CIRCLE('',#502,0.00254);
#52=CIRCLE('',#504,0.00254);
#53=CIRCLE('',#506,0.00508);
#54=CIRCLE('',#520,0.00254);
#55=CIRCLE('',#529,0.00254);
#56=ORIENTED_EDGE('',*,*,#192,.T.);
#57=ORIENTED_EDGE('',*,*,#193,.T.);
#58=ORIENTED_EDGE('',*,*,#194,.T.);
#59=ORIENTED_EDGE('',*,*,#195,.T.);
#60=ORIENTED_EDGE('',*,*,#196,.T.);
#61=ORIENTED_EDGE('',*,*,#197,.T.);
#62=ORIENTED_EDGE('',*,*,#198,.T.);
#63=ORIENTED_EDGE('',*,*,#199,.T.);
#64=ORIENTED_EDGE('',*,*,#200,.T.);
#65=ORIENTED_EDGE('',*,*,#201,.T.);
#66=ORIENTED_EDGE('',*,*,#202,.T.);
#67=ORIENTED_EDGE('',*,*,#203,.F.);
#68=ORIENTED_EDGE('',*,*,#204,.F.);
#69=ORIENTED_EDGE('',*,*,#205,.T.);
#70=ORIENTED_EDGE('',*,*,#206,.F.);
#71=ORIENTED_EDGE('',*,*,#207,.T.);
#72=ORIENTED_EDGE('',*,*,#208,.T.);
#73=ORIENTED_EDGE('',*,*,#209,.T.);
#74=ORIENTED_EDGE('',*,*,#210,.T.);
#75=ORIENTED_EDGE('',*,*,#211,.T.);
#76=ORIENTED_EDGE('',*,*,#212,.T.);
#77=ORIENTED_EDGE('',*,*,#213,.F.);
#78=ORIENTED_EDGE('',*,*,#214,.F.);
#79=ORIENTED_EDGE('',*,*,#215,.T.);
#80=ORIENTED_EDGE('',*,*,#216,.F.);
#81=ORIENTED_EDGE('',*,*,#217,.T.);
#82=ORIENTED_EDGE('',*,*,#218,.T.);
#83=ORIENTED_EDGE('',*,*,#219,.T.);
#84=ORIENTED_EDGE('',*,*,#220,.T.);
#85=ORIENTED_EDGE('',*,*,#221,.T.);
#86=ORIENTED_EDGE('',*,*,#216,.T.);
#87=ORIENTED_EDGE('',*,*,#222,.T.);
#88=ORIENTED_EDGE('',*,*,#223,.T.);
#89=ORIENTED_EDGE('',*,*,#224,.T.);
#90=ORIENTED_EDGE('',*,*,#225,.T.);
#91=ORIENTED_EDGE('',*,*,#226,.F.);
#92=ORIENTED_EDGE('',*,*,#206,.T.);
#93=ORIENTED_EDGE('',*,*,#227,.T.);
#94=ORIENTED_EDGE('',*,*,#228,.T.);
#95=ORIENTED_EDGE('',*,*,#229,.T.);
#96=ORIENTED_EDGE('',*,*,#230,.T.);
#97=ORIENTED_EDGE('',*,*,#231,.F.);
#98=ORIENTED_EDGE('',*,*,#229,.F.);
#99=ORIENTED_EDGE('',*,*,#232,.T.);
#100=ORIENTED_EDGE('',*,*,#224,.F.);
#101=ORIENTED_EDGE('',*,*,#233,.T.);
#102=ORIENTED_EDGE('',*,*,#211,.F.);
#103=ORIENTED_EDGE('',*,*,#226,.T.);
#104=ORIENTED_EDGE('',*,*,#201,.F.);
#105=ORIENTED_EDGE('',*,*,#231,.T.);
#106=ORIENTED_EDGE('',*,*,#234,.F.);
#107=ORIENTED_EDGE('',*,*,#220,.F.);
#108=ORIENTED_EDGE('',*,*,#235,.F.);
#109=ORIENTED_EDGE('',*,*,#212,.F.);
#110=ORIENTED_EDGE('',*,*,#230,.F.);
#111=ORIENTED_EDGE('',*,*,#235,.T.);
#112=ORIENTED_EDGE('',*,*,#219,.F.);
#113=ORIENTED_EDGE('',*,*,#236,.F.);
#114=ORIENTED_EDGE('',*,*,#213,.T.);
#115=ORIENTED_EDGE('',*,*,#233,.F.);
#116=ORIENTED_EDGE('',*,*,#223,.F.);
#117=ORIENTED_EDGE('',*,*,#237,.F.);
#118=ORIENTED_EDGE('',*,*,#221,.F.);
#119=ORIENTED_EDGE('',*,*,#234,.T.);
#120=ORIENTED_EDGE('',*,*,#236,.T.);
#121=ORIENTED_EDGE('',*,*,#218,.F.);
#122=ORIENTED_EDGE('',*,*,#238,.F.);
#123=ORIENTED_EDGE('',*,*,#214,.T.);
#124=ORIENTED_EDGE('',*,*,#222,.F.);
#125=ORIENTED_EDGE('',*,*,#215,.F.);
#126=ORIENTED_EDGE('',*,*,#238,.T.);
#127=ORIENTED_EDGE('',*,*,#217,.F.);
#128=ORIENTED_EDGE('',*,*,#237,.T.);
#129=ORIENTED_EDGE('',*,*,#239,.F.);
#130=ORIENTED_EDGE('',*,*,#196,.F.);
#131=ORIENTED_EDGE('',*,*,#240,.F.);
#132=ORIENTED_EDGE('',*,*,#202,.F.);
#133=ORIENTED_EDGE('',*,*,#225,.F.);
#134=ORIENTED_EDGE('',*,*,#240,.T.);
#135=ORIENTED_EDGE('',*,*,#195,.F.);
#136=ORIENTED_EDGE('',*,*,#241,.F.);
#137=ORIENTED_EDGE('',*,*,#203,.T.);
#138=ORIENTED_EDGE('',*,*,#232,.F.);
#139=ORIENTED_EDGE('',*,*,#228,.F.);
#140=ORIENTED_EDGE('',*,*,#242,.F.);
#141=ORIENTED_EDGE('',*,*,#192,.F.);
#142=ORIENTED_EDGE('',*,*,#239,.T.);
#143=ORIENTED_EDGE('',*,*,#241,.T.);
#144=ORIENTED_EDGE('',*,*,#194,.F.);
#145=ORIENTED_EDGE('',*,*,#243,.F.);
#146=ORIENTED_EDGE('',*,*,#204,.T.);
#147=ORIENTED_EDGE('',*,*,#227,.F.);
#148=ORIENTED_EDGE('',*,*,#205,.F.);
#149=ORIENTED_EDGE('',*,*,#243,.T.);
#150=ORIENTED_EDGE('',*,*,#193,.F.);
#151=ORIENTED_EDGE('',*,*,#242,.T.);
#152=ORIENTED_EDGE('',*,*,#244,.F.);
#153=ORIENTED_EDGE('',*,*,#210,.F.);
#154=ORIENTED_EDGE('',*,*,#245,.F.);
#155=ORIENTED_EDGE('',*,*,#246,.F.);
#156=ORIENTED_EDGE('',*,*,#245,.T.);
#157=ORIENTED_EDGE('',*,*,#209,.F.);
#158=ORIENTED_EDGE('',*,*,#247,.F.);
#159=ORIENTED_EDGE('',*,*,#248,.F.);
#160=ORIENTED_EDGE('',*,*,#244,.T.);
#161=ORIENTED_EDGE('',*,*,#249,.F.);
#162=ORIENTED_EDGE('',*,*,#250,.F.);
#163=ORIENTED_EDGE('',*,*,#207,.F.);
#164=ORIENTED_EDGE('',*,*,#247,.T.);
#165=ORIENTED_EDGE('',*,*,#208,.F.);
#166=ORIENTED_EDGE('',*,*,#250,.T.);
#167=ORIENTED_EDGE('',*,*,#251,.F.);
#168=ORIENTED_EDGE('',*,*,#252,.F.);
#169=ORIENTED_EDGE('',*,*,#197,.F.);
#170=ORIENTED_EDGE('',*,*,#253,.F.);
#171=ORIENTED_EDGE('',*,*,#254,.F.);
#172=ORIENTED_EDGE('',*,*,#253,.T.);
#173=ORIENTED_EDGE('',*,*,#200,.F.);
#174=ORIENTED_EDGE('',*,*,#255,.F.);
#175=ORIENTED_EDGE('',*,*,#256,.F.);
#176=ORIENTED_EDGE('',*,*,#252,.T.);
#177=ORIENTED_EDGE('',*,*,#257,.F.);
#178=ORIENTED_EDGE('',*,*,#258,.F.);
#179=ORIENTED_EDGE('',*,*,#198,.F.);
#180=ORIENTED_EDGE('',*,*,#255,.T.);
#181=ORIENTED_EDGE('',*,*,#199,.F.);
#182=ORIENTED_EDGE('',*,*,#258,.T.);
#183=ORIENTED_EDGE('',*,*,#259,.F.);
#184=ORIENTED_EDGE('',*,*,#254,.T.);
#185=ORIENTED_EDGE('',*,*,#256,.T.);
#186=ORIENTED_EDGE('',*,*,#259,.T.);
#187=ORIENTED_EDGE('',*,*,#257,.T.);
#188=ORIENTED_EDGE('',*,*,#248,.T.);
#189=ORIENTED_EDGE('',*,*,#251,.T.);
#190=ORIENTED_EDGE('',*,*,#249,.T.);
#191=ORIENTED_EDGE('',*,*,#246,.T.);
#192=EDGE_CURVE('',#260,#261,#304,.F.);
#193=EDGE_CURVE('',#261,#262,#50,.F.);
#194=EDGE_CURVE('',#262,#263,#305,.T.);
#195=EDGE_CURVE('',#263,#264,#306,.T.);
#196=EDGE_CURVE('',#264,#260,#307,.F.);
#197=EDGE_CURVE('',#265,#266,#308,.T.);
#198=EDGE_CURVE('',#266,#267,#309,.F.);
#199=EDGE_CURVE('',#267,#268,#310,.F.);
#200=EDGE_CURVE('',#268,#265,#311,.F.);
#201=EDGE_CURVE('',#269,#270,#312,.T.);
#202=EDGE_CURVE('',#270,#271,#313,.T.);
#203=EDGE_CURVE('',#272,#271,#314,.T.);
#204=EDGE_CURVE('',#273,#272,#315,.T.);
#205=EDGE_CURVE('',#273,#274,#51,.T.);
#206=EDGE_CURVE('',#269,#274,#316,.T.);
#207=EDGE_CURVE('',#275,#276,#317,.T.);
#208=EDGE_CURVE('',#276,#277,#318,.F.);
#209=EDGE_CURVE('',#277,#278,#319,.T.);
#210=EDGE_CURVE('',#278,#275,#320,.T.);
#211=EDGE_CURVE('',#279,#280,#321,.T.);
#212=EDGE_CURVE('',#280,#281,#322,.T.);
#213=EDGE_CURVE('',#282,#281,#323,.T.);
#214=EDGE_CURVE('',#283,#282,#324,.T.);
#215=EDGE_CURVE('',#283,#284,#52,.T.);
#216=EDGE_CURVE('',#279,#284,#325,.T.);
#217=EDGE_CURVE('',#285,#286,#53,.F.);
#218=EDGE_CURVE('',#286,#287,#326,.T.);
#219=EDGE_CURVE('',#287,#288,#327,.T.);
#220=EDGE_CURVE('',#288,#289,#328,.F.);
#221=EDGE_CURVE('',#289,#285,#329,.F.);
#222=EDGE_CURVE('',#284,#290,#46,.T.);
#223=EDGE_CURVE('',#290,#291,#30,.T.);
#224=EDGE_CURVE('',#291,#292,#330,.T.);
#225=EDGE_CURVE('',#292,#270,#331,.T.);
#226=EDGE_CURVE('',#279,#270,#332,.T.);
#227=EDGE_CURVE('',#274,#293,#47,.T.);
#228=EDGE_CURVE('',#293,#294,#31,.T.);
#229=EDGE_CURVE('',#294,#295,#333,.T.);
#230=EDGE_CURVE('',#295,#280,#334,.T.);
#231=EDGE_CURVE('',#269,#280,#335,.T.);
#232=EDGE_CURVE('',#294,#292,#336,.T.);
#233=EDGE_CURVE('',#291,#295,#337,.T.);
#234=EDGE_CURVE('',#289,#295,#32,.F.);
#235=EDGE_CURVE('',#281,#288,#33,.T.);
#236=EDGE_CURVE('',#282,#287,#34,.T.);
#237=EDGE_CURVE('',#285,#290,#48,.F.);
#238=EDGE_CURVE('',#283,#286,#54,.T.);
#239=EDGE_CURVE('',#260,#292,#35,.F.);
#240=EDGE_CURVE('',#271,#264,#36,.T.);
#241=EDGE_CURVE('',#272,#263,#37,.T.);
#242=EDGE_CURVE('',#261,#293,#49,.F.);
#243=EDGE_CURVE('',#273,#262,#55,.T.);
#244=EDGE_CURVE('',#275,#296,#38,.F.);
#245=EDGE_CURVE('',#297,#278,#39,.T.);
#246=EDGE_CURVE('',#296,#297,#338,.F.);
#247=EDGE_CURVE('',#298,#277,#40,.T.);
#248=EDGE_CURVE('',#297,#298,#339,.F.);
#249=EDGE_CURVE('',#299,#296,#340,.F.);
#250=EDGE_CURVE('',#276,#299,#41,.F.);
#251=EDGE_CURVE('',#298,#299,#341,.T.);
#252=EDGE_CURVE('',#266,#300,#42,.F.);
#253=EDGE_CURVE('',#301,#265,#43,.T.);
#254=EDGE_CURVE('',#300,#301,#342,.F.);
#255=EDGE_CURVE('',#302,#268,#44,.T.);
#256=EDGE_CURVE('',#301,#302,#343,.T.);
#257=EDGE_CURVE('',#303,#300,#344,.T.);
#258=EDGE_CURVE('',#267,#303,#45,.F.);
#259=EDGE_CURVE('',#302,#303,#345,.T.);
#260=VERTEX_POINT('',#696);
#261=VERTEX_POINT('',#697);
#262=VERTEX_POINT('',#699);
#263=VERTEX_POINT('',#701);
#264=VERTEX_POINT('',#703);
#265=VERTEX_POINT('',#707);
#266=VERTEX_POINT('',#708);
#267=VERTEX_POINT('',#710);
#268=VERTEX_POINT('',#712);
#269=VERTEX_POINT('',#715);
#270=VERTEX_POINT('',#716);
#271=VERTEX_POINT('',#718);
#272=VERTEX_POINT('',#720);
#273=VERTEX_POINT('',#722);
#274=VERTEX_POINT('',#724);
#275=VERTEX_POINT('',#728);
#276=VERTEX_POINT('',#729);
#277=VERTEX_POINT('',#731);
#278=VERTEX_POINT('',#733);
#279=VERTEX_POINT('',#736);
#280=VERTEX_POINT('',#737);
#281=VERTEX_POINT('',#739);
#282=VERTEX_POINT('',#741);
#283=VERTEX_POINT('',#743);
#284=VERTEX_POINT('',#745);
#285=VERTEX_POINT('',#749);
#286=VERTEX_POINT('',#750);
#287=VERTEX_POINT('',#752);
#288=VERTEX_POINT('',#754);
#289=VERTEX_POINT('',#756);
#290=VERTEX_POINT('',#765);
#291=VERTEX_POINT('',#767);
#292=VERTEX_POINT('',#769);
#293=VERTEX_POINT('',#779);
#294=VERTEX_POINT('',#781);
#295=VERTEX_POINT('',#783);
#296=VERTEX_POINT('',#818);
#297=VERTEX_POINT('',#820);
#298=VERTEX_POINT('',#824);
#299=VERTEX_POINT('',#828);
#300=VERTEX_POINT('',#834);
#301=VERTEX_POINT('',#836);
#302=VERTEX_POINT('',#840);
#303=VERTEX_POINT('',#844);
#304=LINE('',#695,#346);
#305=LINE('',#700,#347);
#306=LINE('',#702,#348);
#307=LINE('',#704,#349);
#308=LINE('',#706,#350);
#309=LINE('',#709,#351);
#310=LINE('',#711,#352);
#311=LINE('',#713,#353);
#312=LINE('',#714,#354);
#313=LINE('',#717,#355);
#314=LINE('',#719,#356);
#315=LINE('',#721,#357);
#316=LINE('',#725,#358);
#317=LINE('',#727,#359);
#318=LINE('',#730,#360);
#319=LINE('',#732,#361);
#320=LINE('',#734,#362);
#321=LINE('',#735,#363);
#322=LINE('',#738,#364);
#323=LINE('',#740,#365);
#324=LINE('',#742,#366);
#325=LINE('',#746,#367);
#326=LINE('',#751,#368);
#327=LINE('',#753,#369);
#328=LINE('',#755,#370);
#329=LINE('',#757,#371);
#330=LINE('',#768,#372);
#331=LINE('',#770,#373);
#332=LINE('',#771,#374);
#333=LINE('',#782,#375);
#334=LINE('',#784,#376);
#335=LINE('',#785,#377);
#336=LINE('',#787,#378);
#337=LINE('',#788,#379);
#338=LINE('',#821,#380);
#339=LINE('',#825,#381);
#340=LINE('',#827,#382);
#341=LINE('',#831,#383);
#342=LINE('',#837,#384);
#343=LINE('',#841,#385);
#344=LINE('',#843,#386);
#345=LINE('',#847,#387);
#346=VECTOR('',#553,1.);
#347=VECTOR('',#556,1.);
#348=VECTOR('',#557,1.);
#349=VECTOR('',#558,1.);
#350=VECTOR('',#561,1.);
#351=VECTOR('',#562,1.);
#352=VECTOR('',#563,1.);
#353=VECTOR('',#564,1.);
#354=VECTOR('',#565,1.);
#355=VECTOR('',#566,1.);
#356=VECTOR('',#567,1.);
#357=VECTOR('',#568,1.);
#358=VECTOR('',#571,1.);
#359=VECTOR('',#574,1.);
#360=VECTOR('',#575,1.);
#361=VECTOR('',#576,1.);
#362=VECTOR('',#577,1.);
#363=VECTOR('',#578,1.);
#364=VECTOR('',#579,1.);
#365=VECTOR('',#580,1.);
#366=VECTOR('',#581,1.);
#367=VECTOR('',#584,1.);
#368=VECTOR('',#589,1.);
#369=VECTOR('',#590,1.);
#370=VECTOR('',#591,1.);
#371=VECTOR('',#592,1.);
#372=VECTOR('',#597,1.);
#373=VECTOR('',#598,1.);
#374=VECTOR('',#599,1.);
#375=VECTOR('',#604,1.);
#376=VECTOR('',#605,1.);
#377=VECTOR('',#606,1.);
#378=VECTOR('',#609,1.);
#379=VECTOR('',#610,1.);
#380=VECTOR('',#655,1.);
#381=VECTOR('',#660,1.);
#382=VECTOR('',#663,1.);
#383=VECTOR('',#668,1.);
#384=VECTOR('',#675,1.);
#385=VECTOR('',#680,1.);
#386=VECTOR('',#683,1.);
#387=VECTOR('',#688,1.);
#388=EDGE_LOOP('',(#56,#57,#58,#59,#60));
#389=EDGE_LOOP('',(#61,#62,#63,#64));
#390=EDGE_LOOP('',(#65,#66,#67,#68,#69,#70));
#391=EDGE_LOOP('',(#71,#72,#73,#74));
#392=EDGE_LOOP('',(#75,#76,#77,#78,#79,#80));
#393=EDGE_LOOP('',(#81,#82,#83,#84,#85));
#394=EDGE_LOOP('',(#86,#87,#88,#89,#90,#91));
#395=EDGE_LOOP('',(#92,#93,#94,#95,#96,#97));
#396=EDGE_LOOP('',(#98,#99,#100,#101));
#397=EDGE_LOOP('',(#102,#103,#104,#105));
#398=EDGE_LOOP('',(#106,#107,#108,#109,#110));
#399=EDGE_LOOP('',(#111,#112,#113,#114));
#400=EDGE_LOOP('',(#115,#116,#117,#118,#119));
#401=EDGE_LOOP('',(#120,#121,#122,#123));
#402=EDGE_LOOP('',(#124,#125,#126,#127,#128));
#403=EDGE_LOOP('',(#129,#130,#131,#132,#133));
#404=EDGE_LOOP('',(#134,#135,#136,#137));
#405=EDGE_LOOP('',(#138,#139,#140,#141,#142));
#406=EDGE_LOOP('',(#143,#144,#145,#146));
#407=EDGE_LOOP('',(#147,#148,#149,#150,#151));
#408=EDGE_LOOP('',(#152,#153,#154,#155));
#409=EDGE_LOOP('',(#156,#157,#158,#159));
#410=EDGE_LOOP('',(#160,#161,#162,#163));
#411=EDGE_LOOP('',(#164,#165,#166,#167));
#412=EDGE_LOOP('',(#168,#169,#170,#171));
#413=EDGE_LOOP('',(#172,#173,#174,#175));
#414=EDGE_LOOP('',(#176,#177,#178,#179));
#415=EDGE_LOOP('',(#180,#181,#182,#183));
#416=EDGE_LOOP('',(#184,#185,#186,#187));
#417=EDGE_LOOP('',(#188,#189,#190,#191));
#418=FACE_BOUND('',#388,.T.);
#419=FACE_BOUND('',#389,.T.);
#420=FACE_BOUND('',#390,.T.);
#421=FACE_BOUND('',#391,.T.);
#422=FACE_BOUND('',#392,.T.);
#423=FACE_BOUND('',#393,.T.);
#424=FACE_BOUND('',#394,.T.);
#425=FACE_BOUND('',#395,.T.);
#426=FACE_BOUND('',#396,.T.);
#427=FACE_BOUND('',#397,.T.);
#428=FACE_BOUND('',#398,.T.);
#429=FACE_BOUND('',#399,.T.);
#430=FACE_BOUND('',#400,.T.);
#431=FACE_BOUND('',#401,.T.);
#432=FACE_BOUND('',#402,.T.);
#433=FACE_BOUND('',#403,.T.);
#434=FACE_BOUND('',#404,.T.);
#435=FACE_BOUND('',#405,.T.);
#436=FACE_BOUND('',#406,.T.);
#437=FACE_BOUND('',#407,.T.);
#438=FACE_BOUND('',#408,.T.);
#439=FACE_BOUND('',#409,.T.);
#440=FACE_BOUND('',#410,.T.);
#441=FACE_BOUND('',#411,.T.);
#442=FACE_BOUND('',#412,.T.);
#443=FACE_BOUND('',#413,.T.);
#444=FACE_BOUND('',#414,.T.);
#445=FACE_BOUND('',#415,.T.);
#446=FACE_BOUND('',#416,.T.);
#447=FACE_BOUND('',#417,.T.);
#448=PLANE('',#499);
#449=PLANE('',#501);
#450=PLANE('',#503);
#451=PLANE('',#505);
#452=PLANE('',#507);
#453=PLANE('',#509);
#454=PLANE('',#511);
#455=PLANE('',#512);
#456=PLANE('',#547);
#457=PLANE('',#548);
#458=ADVANCED_FACE('',(#418),#448,.T.);
#459=ADVANCED_FACE('',(#419,#420),#449,.F.);
#460=ADVANCED_FACE('',(#421,#422),#450,.F.);
#461=ADVANCED_FACE('',(#423),#451,.T.);
#462=ADVANCED_FACE('',(#424),#452,.T.);
#463=ADVANCED_FACE('',(#425),#453,.T.);
#464=ADVANCED_FACE('',(#426),#454,.T.);
#465=ADVANCED_FACE('',(#427),#455,.F.);
#466=ADVANCED_FACE('',(#428),#14,.T.);
#467=ADVANCED_FACE('',(#429),#15,.T.);
#468=ADVANCED_FACE('',(#430),#16,.T.);
#469=ADVANCED_FACE('',(#431),#17,.T.);
#470=ADVANCED_FACE('',(#432),#12,.T.);
#471=ADVANCED_FACE('',(#433),#18,.T.);
#472=ADVANCED_FACE('',(#434),#19,.T.);
#473=ADVANCED_FACE('',(#435),#20,.T.);
#474=ADVANCED_FACE('',(#436),#21,.T.);
#475=ADVANCED_FACE('',(#437),#13,.T.);
#476=ADVANCED_FACE('',(#438),#22,.F.);
#477=ADVANCED_FACE('',(#439),#23,.F.);
#478=ADVANCED_FACE('',(#440),#24,.F.);
#479=ADVANCED_FACE('',(#441),#25,.F.);
#480=ADVANCED_FACE('',(#442),#26,.F.);
#481=ADVANCED_FACE('',(#443),#27,.F.);
#482=ADVANCED_FACE('',(#444),#28,.F.);
#483=ADVANCED_FACE('',(#445),#29,.F.);
#484=ADVANCED_FACE('',(#446),#456,.T.);
#485=ADVANCED_FACE('',(#447),#457,.F.);
#486=CLOSED_SHELL('',(#458,#459,#460,#461,#462,#463,#464,#465,#466,#467,
#468,#469,#470,#471,#472,#473,#474,#475,#476,#477,#478,#479,#480,#481,#482,
#483,#484,#485));
#487=STYLED_ITEM('',(#488),#495);
#488=PRESENTATION_STYLE_ASSIGNMENT((#489));
#489=SURFACE_STYLE_USAGE(.BOTH.,#490);
#490=SURFACE_SIDE_STYLE('',(#491));
#491=SURFACE_STYLE_FILL_AREA(#492);
#492=FILL_AREA_STYLE('',(#493));
#493=FILL_AREA_STYLE_COLOUR('',#494);
#494=COLOUR_RGB('',0.647058823529412,0.647058823529412,0.647058823529412);
#495=MANIFOLD_SOLID_BREP('V0.2_BattCover',#486);
#496=SHAPE_DEFINITION_REPRESENTATION(#856,#497);
#497=SHAPE_REPRESENTATION('V0.2_BattCover',(#498),#851);
#498=AXIS2_PLACEMENT_3D('',#693,#549,#550);
#499=AXIS2_PLACEMENT_3D('',#694,#551,#552);
#500=AXIS2_PLACEMENT_3D('',#698,#554,#555);
#501=AXIS2_PLACEMENT_3D('',#705,#559,#560);
#502=AXIS2_PLACEMENT_3D('',#723,#569,#570);
#503=AXIS2_PLACEMENT_3D('',#726,#572,#573);
#504=AXIS2_PLACEMENT_3D('',#744,#582,#583);
#505=AXIS2_PLACEMENT_3D('',#747,#585,#586);
#506=AXIS2_PLACEMENT_3D('',#748,#587,#588);
#507=AXIS2_PLACEMENT_3D('',#758,#593,#594);
#508=AXIS2_PLACEMENT_3D('',#766,#595,#596);
#509=AXIS2_PLACEMENT_3D('',#772,#600,#601);
#510=AXIS2_PLACEMENT_3D('',#780,#602,#603);
#511=AXIS2_PLACEMENT_3D('',#786,#607,#608);
#512=AXIS2_PLACEMENT_3D('',#789,#611,#612);
#513=AXIS2_PLACEMENT_3D('',#790,#613,#614);
#514=AXIS2_PLACEMENT_3D('',#791,#615,#616);
#515=AXIS2_PLACEMENT_3D('',#792,#617,#618);
#516=AXIS2_PLACEMENT_3D('',#793,#619,#620);
#517=AXIS2_PLACEMENT_3D('',#794,#621,#622);
#518=AXIS2_PLACEMENT_3D('',#795,#623,#624);
#519=AXIS2_PLACEMENT_3D('',#800,#625,#626);
#520=AXIS2_PLACEMENT_3D('',#801,#627,#628);
#521=AXIS2_PLACEMENT_3D('',#802,#629,#630);
#522=AXIS2_PLACEMENT_3D('',#803,#631,#632);
#523=AXIS2_PLACEMENT_3D('',#804,#633,#634);
#524=AXIS2_PLACEMENT_3D('',#805,#635,#636);
#525=AXIS2_PLACEMENT_3D('',#806,#637,#638);
#526=AXIS2_PLACEMENT_3D('',#807,#639,#640);
#527=AXIS2_PLACEMENT_3D('',#808,#641,#642);
#528=AXIS2_PLACEMENT_3D('',#813,#643,#644);
#529=AXIS2_PLACEMENT_3D('',#814,#645,#646);
#530=AXIS2_PLACEMENT_3D('',#815,#647,#648);
#531=AXIS2_PLACEMENT_3D('',#816,#649,#650);
#532=AXIS2_PLACEMENT_3D('',#817,#651,#652);
#533=AXIS2_PLACEMENT_3D('',#819,#653,#654);
#534=AXIS2_PLACEMENT_3D('',#822,#656,#657);
#535=AXIS2_PLACEMENT_3D('',#823,#658,#659);
#536=AXIS2_PLACEMENT_3D('',#826,#661,#662);
#537=AXIS2_PLACEMENT_3D('',#829,#664,#665);
#538=AXIS2_PLACEMENT_3D('',#830,#666,#667);
#539=AXIS2_PLACEMENT_3D('',#832,#669,#670);
#540=AXIS2_PLACEMENT_3D('',#833,#671,#672);
#541=AXIS2_PLACEMENT_3D('',#835,#673,#674);
#542=AXIS2_PLACEMENT_3D('',#838,#676,#677);
#543=AXIS2_PLACEMENT_3D('',#839,#678,#679);
#544=AXIS2_PLACEMENT_3D('',#842,#681,#682);
#545=AXIS2_PLACEMENT_3D('',#845,#684,#685);
#546=AXIS2_PLACEMENT_3D('',#846,#686,#687);
#547=AXIS2_PLACEMENT_3D('',#848,#689,#690);
#548=AXIS2_PLACEMENT_3D('',#849,#691,#692);
#549=DIRECTION('',(0.,0.,1.));
#550=DIRECTION('',(1.,0.,0.));
#551=DIRECTION('',(1.,0.,0.));
#552=DIRECTION('',(0.,1.,0.));
#553=DIRECTION('',(0.,1.,5.48216608113357E-16));
#554=DIRECTION('',(1.,0.,0.));
#555=DIRECTION('',(0.,0.,-1.));
#556=DIRECTION('',(0.,1.55037034545767E-15,-1.));
#557=DIRECTION('',(0.,1.,1.75209859324628E-15));
#558=DIRECTION('',(0.,1.55037034545767E-15,-1.));
#559=DIRECTION('',(1.,0.,0.));
#560=DIRECTION('',(0.,1.,0.));
#561=DIRECTION('',(0.,0.999953177066101,0.00967696622967313));
#562=DIRECTION('',(0.,0.00967696622967309,-0.999953177066101));
#563=DIRECTION('',(0.,0.999953177066101,-0.00967696622967359));
#564=DIRECTION('',(0.,0.00967696622967287,0.999953177066101));
#565=DIRECTION('',(0.,1.,1.65988287781227E-15));
#566=DIRECTION('',(0.,1.55037034545767E-15,-1.));
#567=DIRECTION('',(0.,1.,1.75209859324628E-15));
#568=DIRECTION('',(0.,1.55037034545767E-15,-1.));
#569=DIRECTION('',(1.,0.,0.));
#570=DIRECTION('',(0.,0.,-1.));
#571=DIRECTION('',(0.,5.48216608113357E-16,-1.));
#572=DIRECTION('',(-1.,0.,0.));
#573=DIRECTION('',(0.,-1.,0.));
#574=DIRECTION('',(0.,0.00967696622967315,0.999953177066101));
#575=DIRECTION('',(0.,-0.999953177066101,-0.00967696622967221));
#576=DIRECTION('',(0.,0.00967696622967306,-0.999953177066101));
#577=DIRECTION('',(0.,-0.999953177066101,-0.00967696622967299));
#578=DIRECTION('',(0.,-1.,-5.48216608113357E-16));
#579=DIRECTION('',(0.,7.15555544057391E-16,-1.));
#580=DIRECTION('',(0.,-1.,0.));
#581=DIRECTION('',(0.,7.7518517272884E-16,-1.));
#582=DIRECTION('',(-1.,0.,0.));
#583=DIRECTION('',(0.,0.,1.));
#584=DIRECTION('',(0.,5.48216608113357E-16,-1.));
#585=DIRECTION('',(-1.,0.,0.));
#586=DIRECTION('',(0.,-1.,0.));
#587=DIRECTION('',(-1.,0.,0.));
#588=DIRECTION('',(0.,0.,1.));
#589=DIRECTION('',(0.,7.7518517272884E-16,-1.));
#590=DIRECTION('',(0.,-1.,0.));
#591=DIRECTION('',(0.,7.15555544057391E-16,-1.));
#592=DIRECTION('',(0.,-1.,-5.48216608113357E-16));
#593=DIRECTION('',(-0.128008282572539,0.991773098845108,5.43706484266938E-16));
#594=DIRECTION('',(-0.991773098845108,-0.128008282572539,0.));
#595=DIRECTION('',(-0.128008282572539,0.991773098845108,5.43706484266938E-16));
#596=DIRECTION('',(-0.991773098845108,-0.128008282572539,-7.01762664823332E-17));
#597=DIRECTION('',(0.991773098845108,0.128008282572539,7.01762664823332E-17));
#598=DIRECTION('',(0.,5.48216608113357E-16,-1.));
#599=DIRECTION('',(0.991773098845108,0.128008282572539,7.01762664823332E-17));
#600=DIRECTION('',(0.130151003999016,-0.991494183622904,-5.4355357830987E-16));
#601=DIRECTION('',(0.991494183622904,0.130151003999016,0.));
#602=DIRECTION('',(0.130151003999016,-0.991494183622904,-5.4355357830987E-16));
#603=DIRECTION('',(0.991494183622904,0.130151003999016,7.13509419548891E-17));
#604=DIRECTION('',(-0.991494183622904,-0.130151003999016,-7.13509419548883E-17));
#605=DIRECTION('',(0.,5.48216608113357E-16,-1.));
#606=DIRECTION('',(-0.991494183622904,-0.130151003999016,-7.13509419548883E-17));
#607=DIRECTION('',(0.,-5.48216608113357E-16,1.));
#608=DIRECTION('',(1.,0.,0.));
#609=DIRECTION('',(0.,1.,5.48216608113357E-16));
#610=DIRECTION('',(0.,-1.,-5.48216608113357E-16));
#611=DIRECTION('',(0.,-5.48216608113357E-16,1.));
#612=DIRECTION('',(1.,0.,0.));
#613=DIRECTION('',(0.,7.15555544057391E-16,-1.));
#614=DIRECTION('',(0.,1.,7.15555544057391E-16));
#615=DIRECTION('',(0.,-0.707106781186547,-0.707106781186548));
#616=DIRECTION('',(0.,-0.707106781186548,0.707106781186547));
#617=DIRECTION('',(0.,0.707106781186548,-0.707106781186547));
#618=DIRECTION('',(0.,0.707106781186547,0.707106781186548));
#619=DIRECTION('',(0.,1.,0.));
#620=DIRECTION('',(0.,0.,1.));
#621=DIRECTION('',(0.,0.707106781186547,0.707106781186548));
#622=DIRECTION('',(0.,0.707106781186548,-0.707106781186547));
#623=DIRECTION('',(0.,-1.,-5.48216608113357E-16));
#624=DIRECTION('',(0.,5.48216608113357E-16,-1.));
#625=DIRECTION('',(0.,-7.7518517272884E-16,1.));
#626=DIRECTION('',(0.,-1.,-7.7518517272884E-16));
#627=DIRECTION('',(1.16609272820116E-31,-1.36592399683213E-15,1.));
#628=DIRECTION('',(0.,-1.,-1.36592399683213E-15));
#629=DIRECTION('',(-1.,0.,0.));
#630=DIRECTION('',(0.,0.,1.));
#631=DIRECTION('',(0.,1.55037034545767E-15,-1.));
#632=DIRECTION('',(0.,1.,1.55037034545767E-15));
#633=DIRECTION('',(0.,0.707106781186548,-0.707106781186547));
#634=DIRECTION('',(0.,0.707106781186547,0.707106781186548));
#635=DIRECTION('',(0.,-0.707106781186546,-0.707106781186549));
#636=DIRECTION('',(0.,0.707106781186549,-0.707106781186546));
#637=DIRECTION('',(0.,-1.,-1.75209859324628E-15));
#638=DIRECTION('',(0.,1.75209859324628E-15,-1.));
#639=DIRECTION('',(0.,-0.707106781186549,0.707106781186546));
#640=DIRECTION('',(0.,-0.707106781186546,-0.707106781186549));
#641=DIRECTION('',(0.,1.,5.48216608113357E-16));
#642=DIRECTION('',(0.,-5.48216608113357E-16,1.));
#643=DIRECTION('',(0.,-1.55037034545767E-15,1.));
#644=DIRECTION('',(0.,-1.,-1.55037034545767E-15));
#645=DIRECTION('',(-2.33218545640233E-31,-1.36592399683213E-15,1.));
#646=DIRECTION('',(0.,-1.,-1.36592399683213E-15));
#647=DIRECTION('',(1.,0.,0.));
#648=DIRECTION('',(0.,0.,-1.));
#649=DIRECTION('',(0.,-0.999953177066101,-0.00967696622967299));
#650=DIRECTION('',(0.,0.00967696622967299,-0.999953177066101));
#651=DIRECTION('',(0.,-0.707106781186547,0.707106781186548));
#652=DIRECTION('',(0.,-0.707106781186548,-0.707106781186547));
#653=DIRECTION('',(0.,-0.700231023930158,-0.713916320814788));
#654=DIRECTION('',(0.,-0.713916320814788,0.700231023930158));
#655=DIRECTION('',(0.,-0.999953177066101,-0.00967696622967299));
#656=DIRECTION('',(0.,0.00967696622967306,-0.999953177066101));
#657=DIRECTION('',(0.,0.999953177066101,0.00967696622967306));
#658=DIRECTION('',(0.,0.713916320814788,-0.700231023930158));
#659=DIRECTION('',(0.,-0.700231023930158,-0.713916320814787));
#660=DIRECTION('',(0.,0.00967696622967306,-0.999953177066101));
#661=DIRECTION('',(0.,0.00967696622967315,0.999953177066101));
#662=DIRECTION('',(0.,-0.999953177066101,0.00967696622967315));
#663=DIRECTION('',(0.,0.00967696622967315,0.999953177066101));
#664=DIRECTION('',(0.,0.707106781186548,0.707106781186547));
#665=DIRECTION('',(0.,-0.707106781186547,0.707106781186548));
#666=DIRECTION('',(0.,0.999953177066101,0.00967696622967221));
#667=DIRECTION('',(0.,-0.00967696622967221,0.999953177066101));
#668=DIRECTION('',(0.,-0.999953177066101,-0.00967696622967221));
#669=DIRECTION('',(0.,0.999953177066101,0.00967696622967313));
#670=DIRECTION('',(0.,-0.00967696622967313,0.999953177066101));
#671=DIRECTION('',(0.,0.700231023930158,0.713916320814788));
#672=DIRECTION('',(0.,-0.713916320814788,0.700231023930158));
#673=DIRECTION('',(0.,0.707106781186548,-0.707106781186547));
#674=DIRECTION('',(0.,-0.707106781186547,-0.707106781186548));
#675=DIRECTION('',(0.,0.999953177066101,0.00967696622967313));
#676=DIRECTION('',(0.,-0.00967696622967287,-0.999953177066101));
#677=DIRECTION('',(0.,0.999953177066101,-0.00967696622967287));
#678=DIRECTION('',(0.,-0.713916320814788,-0.700231023930158));
#679=DIRECTION('',(0.,0.700231023930158,-0.713916320814788));
#680=DIRECTION('',(0.,0.00967696622967287,0.999953177066101));
#681=DIRECTION('',(0.,-0.00967696622967309,0.999953177066101));
#682=DIRECTION('',(0.,-0.999953177066101,-0.00967696622967309));
#683=DIRECTION('',(0.,0.00967696622967309,-0.999953177066101));
#684=DIRECTION('',(0.,-0.707106781186547,0.707106781186548));
#685=DIRECTION('',(0.,0.707106781186548,0.707106781186547));
#686=DIRECTION('',(0.,-0.999953177066101,0.00967696622967359));
#687=DIRECTION('',(0.,-0.00967696622967359,-0.999953177066101));
#688=DIRECTION('',(0.,0.999953177066101,-0.00967696622967359));
#689=DIRECTION('',(-1.,0.,0.));
#690=DIRECTION('',(0.,0.,1.));
#691=DIRECTION('',(-1.,0.,0.));
#692=DIRECTION('',(0.,0.,1.));
#693=CARTESIAN_POINT('',(0.,0.,0.));
#694=CARTESIAN_POINT('',(0.0409158182,2.00187089127723E-15,0.0105379091));
#695=CARTESIAN_POINT('',(0.0409158182,1.99664205110194E-15,0.0200758182));
#696=CARTESIAN_POINT('',(0.0409158182,0.01207,0.0200758182));
#697=CARTESIAN_POINT('',(0.0409158182,-0.00234217276877504,0.0200758182));
#698=CARTESIAN_POINT('',(0.0409158182,-0.00674158182,0.0175358182));
#699=CARTESIAN_POINT('',(0.0409158182,-0.00166158182,0.0175358182));
#700=CARTESIAN_POINT('',(0.0409158182,-0.00166158181999998,0.00553));
#701=CARTESIAN_POINT('',(0.0409158182,-0.00166158181999998,0.00807));
#702=CARTESIAN_POINT('',(0.0409158182,0.01461,0.00807));
#703=CARTESIAN_POINT('',(0.0409158182,0.01207,0.00807));
#704=CARTESIAN_POINT('',(0.0409158182,0.01207,0.0105379091));
#705=CARTESIAN_POINT('',(0.0383758182,2.00187089127723E-15,0.0105379091));
#706=CARTESIAN_POINT('',(0.0383758182,4.72965216226848E-5,0.00565060186586335));
#707=CARTESIAN_POINT('',(0.0383758182,0.00786198890871312,0.0057262279212223));
#708=CARTESIAN_POINT('',(0.0383758182,0.0120376200332213,0.00576663725468528));
#709=CARTESIAN_POINT('',(0.0383758182,0.0119527275294103,0.0145388626484882));
#710=CARTESIAN_POINT('',(0.0383758182,0.0119382625363242,0.0160335786007169));
#711=CARTESIAN_POINT('',(0.0383758182,0.00948603848194788,0.016057309801243));
#712=CARTESIAN_POINT('',(0.0383758182,0.00796210984009914,0.0160720574977771));
#713=CARTESIAN_POINT('',(0.0383758182,0.0078770248338439,0.00727994018473583));
#714=CARTESIAN_POINT('',(0.0383758182,0.00520420908999999,0.0200758182));
#715=CARTESIAN_POINT('',(0.0383758182,-0.0045350013756746,0.0200758182));
#716=CARTESIAN_POINT('',(0.0383758182,0.01461,0.0200758182));
#717=CARTESIAN_POINT('',(0.0383758182,0.01461,0.0128029091));
#718=CARTESIAN_POINT('',(0.0383758182,0.01461,0.00553));
#719=CARTESIAN_POINT('',(0.0383758182,0.00520420909000001,0.00553));
#720=CARTESIAN_POINT('',(0.0383758182,-0.00420158181999997,0.00553));
#721=CARTESIAN_POINT('',(0.0383758182,-0.00420158181999999,0.0128029091));
#722=CARTESIAN_POINT('',(0.0383758182,-0.00420158181999999,0.0175358182));
#723=CARTESIAN_POINT('',(0.0383758182,-0.00674158182,0.0175358182));
#724=CARTESIAN_POINT('',(0.0383758182,-0.0045350013756746,0.0187938335984434));
#725=CARTESIAN_POINT('',(0.0383758182,-0.0045350013756746,0.0105379091));
#726=CARTESIAN_POINT('',(-0.0383758182,2.00187089127723E-15,0.0105379091));
#727=CARTESIAN_POINT('',(-0.0383758182,-0.0119903235116006,0.010653944488822));
#728=CARTESIAN_POINT('',(-0.0383758182,-0.012037908261818,0.00573685363302048));
#729=CARTESIAN_POINT('',(-0.0383758182,-0.0119382616738024,0.0160336677279668));
#730=CARTESIAN_POINT('',(-0.0383758182,-0.00948603934430811,0.0160573989118006));
#731=CARTESIAN_POINT('',(-0.0383758182,-0.00796211070245938,0.0160721466083346));
#732=CARTESIAN_POINT('',(-0.0383758182,-0.00790781297925891,0.01046138187762));
#733=CARTESIAN_POINT('',(-0.0383758182,-0.00786248277698924,0.00577726097642205));
#734=CARTESIAN_POINT('',(-0.0383758182,4.53302022716647E-5,0.005853788198802));
#735=CARTESIAN_POINT('',(-0.0383758182,-0.0051170909,0.0200758182));
#736=CARTESIAN_POINT('',(-0.0383758182,0.00470365632962146,0.0200758182));
#737=CARTESIAN_POINT('',(-0.0383758182,-0.01461,0.0200758181999999));
#738=CARTESIAN_POINT('',(-0.0383758182,-0.01461,0.0128029091));
#739=CARTESIAN_POINT('',(-0.0383758182,-0.01461,0.00553));
#740=CARTESIAN_POINT('',(-0.0383758182,-0.00511709089999999,0.00553));
#741=CARTESIAN_POINT('',(-0.0383758182,0.00437581820000002,0.00553));
#742=CARTESIAN_POINT('',(-0.0383758182,0.00437581820000001,0.0128029091));
#743=CARTESIAN_POINT('',(-0.0383758182,0.00437581820000001,0.0175358182));
#744=CARTESIAN_POINT('',(-0.0383758182,0.00691581820000001,0.0175358182));
#745=CARTESIAN_POINT('',(-0.0383758182,0.00470365632962146,0.0187839928108791));
#746=CARTESIAN_POINT('',(-0.0383758182,0.00470365632962146,0.0105379091));
#747=CARTESIAN_POINT('',(-0.0409158182,2.00187089127723E-15,0.0105379091));
#748=CARTESIAN_POINT('',(-0.0409158182,0.00691581820000001,0.0175358182));
#749=CARTESIAN_POINT('',(-0.0409158182,0.00251640914877506,0.0200758182));
#750=CARTESIAN_POINT('',(-0.0409158182,0.00183581820000001,0.0175358182));
#751=CARTESIAN_POINT('',(-0.0409158182,0.00183581820000002,0.00553));
#752=CARTESIAN_POINT('',(-0.0409158182,0.00183581820000001,0.00807));
#753=CARTESIAN_POINT('',(-0.0409158182,-0.01461,0.00807));
#754=CARTESIAN_POINT('',(-0.0409158182,-0.01207,0.00807));
#755=CARTESIAN_POINT('',(-0.0409158182,-0.01207,0.0105379091));
#756=CARTESIAN_POINT('',(-0.0409158182,-0.01207,0.0200758181999999));
#757=CARTESIAN_POINT('',(-0.0409158182,1.99664205110194E-15,0.0200758182));
#758=CARTESIAN_POINT('',(-0.00127000000000001,0.00949290909999999,0.0226158182));
#759=CARTESIAN_POINT('',(-0.0383758182,0.00470365632962146,0.0187839928108791));
#760=CARTESIAN_POINT('',(-0.0386627878888983,0.00466661711463467,0.0187183475570914));
#761=CARTESIAN_POINT('',(-0.0392657108299931,0.00458879777238489,0.0188146046046157));
#762=CARTESIAN_POINT('',(-0.0401693644393486,0.00447216308375625,0.0195951362723525));
#763=CARTESIAN_POINT('',(-0.0406038360984039,0.00441608577033962,0.0203698680485045));
#764=CARTESIAN_POINT('',(-0.0407683083958578,0.00439485730956332,0.0209288074512435));
#765=CARTESIAN_POINT('',(-0.0407683083958547,0.00439485730956371,0.0209288074512446));
#766=CARTESIAN_POINT('',(-0.0383758182,0.00470365632962146,0.0200758182));
#767=CARTESIAN_POINT('',(-0.0383758182,0.00470365632962145,0.0226158182));
#768=CARTESIAN_POINT('',(-0.00127000000000001,0.00949290909999999,0.0226158182));
#769=CARTESIAN_POINT('',(0.0383758182,0.01461,0.0226158182));
#770=CARTESIAN_POINT('',(0.0383758182,0.01461,0.0226158182));
#771=CARTESIAN_POINT('',(-0.00127000000000001,0.00949290909999999,0.0200758182));
#772=CARTESIAN_POINT('',(0.00127,-0.00940579091000001,0.0226158182));
#773=CARTESIAN_POINT('',(0.0383758182,-0.0045350013756746,0.0187938335984434));
#774=CARTESIAN_POINT('',(0.0386622308838077,-0.00449740468678691,0.0187278883655205));
#775=CARTESIAN_POINT('',(0.0392645463585357,-0.00441834021514923,0.0188200150793011));
#776=CARTESIAN_POINT('',(0.0401700908235528,-0.00429947161941315,0.0195968136522903));
#777=CARTESIAN_POINT('',(0.0406039022606874,-0.00424252625854074,0.0203707154092398));
#778=CARTESIAN_POINT('',(0.0407682695614491,-0.00422095016704963,0.0209289163673363));
#779=CARTESIAN_POINT('',(0.0407682695614461,-0.00422095016705001,0.0209289163673375));
#780=CARTESIAN_POINT('',(0.0383758182,-0.0045350013756746,0.0200758182));
#781=CARTESIAN_POINT('',(0.0383758182,-0.0045350013756746,0.0226158182));
#782=CARTESIAN_POINT('',(0.00127,-0.00940579091000001,0.0226158182));
#783=CARTESIAN_POINT('',(-0.0383758182,-0.01461,0.0226158181999999));
#784=CARTESIAN_POINT('',(-0.0383758182,-0.01461,0.0226158181999999));
#785=CARTESIAN_POINT('',(0.00127,-0.00940579091000001,0.0200758182));
#786=CARTESIAN_POINT('',(0.,-2.28067079991731E-17,0.0226158182));
#787=CARTESIAN_POINT('',(0.0383758182,-2.28067079991731E-17,0.0226158182));
#788=CARTESIAN_POINT('',(-0.0383758182,-2.28067079991731E-17,0.0226158182));
#789=CARTESIAN_POINT('',(0.,-2.14142378145652E-17,0.0200758182));
#790=CARTESIAN_POINT('',(-0.0383758182,-0.01207,0.0128029091));
#791=CARTESIAN_POINT('',(-0.0383758182,-0.01207,0.0200758181999999));
#792=CARTESIAN_POINT('',(-0.0383758182,-0.01207,0.00807));
#793=CARTESIAN_POINT('',(-0.0383758182,2.00187089127723E-15,0.00807));
#794=CARTESIAN_POINT('',(-0.0383758182,0.00183581820000001,0.00807));
#795=CARTESIAN_POINT('',(-0.0383758182,-2.14142378145652E-17,0.0200758182));
#796=CARTESIAN_POINT('',(-0.0407683083958564,0.0043948573095658,0.0209288074512402));
#797=CARTESIAN_POINT('',(-0.0408454765850033,0.0037406223000211,0.0207123637672225));
#798=CARTESIAN_POINT('',(-0.0409158181851463,0.00312030912941217,0.0204032953053693));
#799=CARTESIAN_POINT('',(-0.0409158182,0.00251640933655666,0.0200758183152095));
#800=CARTESIAN_POINT('',(-0.0383758182,0.00183581820000001,0.0105379091));
#801=CARTESIAN_POINT('',(-0.0383758182,0.00183581820000001,0.0175358182));
#802=CARTESIAN_POINT('',(-0.0383758182,0.00691581820000001,0.0175358182));
#803=CARTESIAN_POINT('',(0.0383758182,0.01207,0.0128029091));
#804=CARTESIAN_POINT('',(0.0383758182,0.01207,0.0200758182));
#805=CARTESIAN_POINT('',(0.0383758182,0.01207,0.00807));
#806=CARTESIAN_POINT('',(0.0383758182,2.00619491133961E-15,0.00807));
#807=CARTESIAN_POINT('',(0.0383758182,-0.00166158181999998,0.00807));
#808=CARTESIAN_POINT('',(0.0383758182,-2.14142378145652E-17,0.0200758182));
#809=CARTESIAN_POINT('',(0.0407682695614477,-0.00422095016705207,0.0209289163673331));
#810=CARTESIAN_POINT('',(0.0408454530015693,-0.00356659456393839,0.0207124610595257));
#811=CARTESIAN_POINT('',(0.0409158181851435,-0.00294617455581908,0.0204033495042326));
#812=CARTESIAN_POINT('',(0.0409158182,-0.00234217295656027,0.020075818315212));
#813=CARTESIAN_POINT('',(0.0383758182,-0.00166158181999999,0.0105379091));
#814=CARTESIAN_POINT('',(0.0383758182,-0.00166158182,0.0175358182));
#815=CARTESIAN_POINT('',(0.0383758182,-0.00674158182,0.0175358182));
#816=CARTESIAN_POINT('',(-0.0368518182,4.53302022716647E-5,0.00585378819880201));
#817=CARTESIAN_POINT('',(-0.0368518182,-0.012037908261818,0.00573685363302048));
#818=CARTESIAN_POINT('',(-0.0368518182,-0.0104989436948385,0.00727581820000662));
#819=CARTESIAN_POINT('',(-0.0368518182,-0.00786248277698924,0.00577726097642205));
#820=CARTESIAN_POINT('',(-0.0368518182,-0.009401159115372,0.00728644192173677));
#821=CARTESIAN_POINT('',(-0.0368518182,-0.00995005140510527,0.00728113006086838));
#822=CARTESIAN_POINT('',(-0.0368518182,-0.00790781297925891,0.01046138187762));
#823=CARTESIAN_POINT('',(-0.0368518182,-0.00796211070245938,0.0160721466083346));
#824=CARTESIAN_POINT('',(-0.0368518182,-0.00947129164777409,0.0145334702699519));
#825=CARTESIAN_POINT('',(-0.0368518182,-0.00943622538157305,0.0109099560958443));
#826=CARTESIAN_POINT('',(-0.0368518182,-0.0119903235116006,0.010653944488822));
#827=CARTESIAN_POINT('',(-0.0368518182,-0.0104638708599392,0.0109000111396021));
#828=CARTESIAN_POINT('',(-0.0368518182,-0.0104287980250398,0.0145242040792042));
#829=CARTESIAN_POINT('',(-0.0368518182,-0.0119382616738024,0.0160336677279668));
#830=CARTESIAN_POINT('',(-0.0368518182,-0.00996479253294096,0.0160527658164268));
#831=CARTESIAN_POINT('',(-0.0368518182,-0.0104287980250398,0.0145242040792042));
#832=CARTESIAN_POINT('',(0.0368518182,4.72965216226848E-5,0.00565060186586335));
#833=CARTESIAN_POINT('',(0.0368518182,0.0120376200332213,0.00576663725468528));
#834=CARTESIAN_POINT('',(0.0368518182,0.0104989436948385,0.0072758182));
#835=CARTESIAN_POINT('',(0.0368518182,0.00786198890871312,0.0057262279212223));
#836=CARTESIAN_POINT('',(0.0368518182,0.00940095347569263,0.00726519248820191));
#837=CARTESIAN_POINT('',(0.0368518182,0.00994994858526558,0.0072705053441009));
#838=CARTESIAN_POINT('',(0.0368518182,0.00791219348870451,0.0109140345203321));
#839=CARTESIAN_POINT('',(0.0368518182,0.00796210984009914,0.0160720574977771));
#840=CARTESIAN_POINT('',(0.0368518182,0.00947129078541386,0.0145333811593943));
#841=CARTESIAN_POINT('',(0.0368518182,0.00947129078541386,0.0145333811593943));
#842=CARTESIAN_POINT('',(0.0368518182,0.0119877999330488,0.0109147142725111));
#843=CARTESIAN_POINT('',(0.0368518182,0.0104989436948385,0.0072758182));
#844=CARTESIAN_POINT('',(0.0368518182,0.0104287988875616,0.0145241149519542));
#845=CARTESIAN_POINT('',(0.0368518182,0.0119382625363242,0.0160335786007169));
#846=CARTESIAN_POINT('',(0.0368518182,0.00996479253302173,0.016052676697523));
#847=CARTESIAN_POINT('',(0.0368518182,0.0104287988875615,0.0145241149519542));
#848=CARTESIAN_POINT('',(0.0368518182,0.00986195403613277,0.0163632754211572));
#849=CARTESIAN_POINT('',(-0.0368518182,-0.0100360796348871,0.016170713804986));
#850=MECHANICAL_DESIGN_GEOMETRIC_PRESENTATION_REPRESENTATION('',(#487),
#851);
#851=(
GEOMETRIC_REPRESENTATION_CONTEXT(3)
GLOBAL_UNCERTAINTY_ASSIGNED_CONTEXT((#852))
GLOBAL_UNIT_ASSIGNED_CONTEXT((#855,#854,#853))
REPRESENTATION_CONTEXT('V0.2_BattCover','TOP_LEVEL_ASSEMBLY_PART')
);
#852=UNCERTAINTY_MEASURE_WITH_UNIT(LENGTH_MEASURE(2.E-5),#855,
'DISTANCE_ACCURACY_VALUE','Maximum Tolerance applied to model');
#853=(
NAMED_UNIT(*)
SI_UNIT($,.STERADIAN.)
SOLID_ANGLE_UNIT()
);
#854=(
NAMED_UNIT(*)
PLANE_ANGLE_UNIT()
SI_UNIT($,.RADIAN.)
);
#855=(
LENGTH_UNIT()
NAMED_UNIT(*)
SI_UNIT($,.METRE.)
);
#856=PRODUCT_DEFINITION_SHAPE('','',#857);
#857=PRODUCT_DEFINITION('','',#859,#858);
#858=PRODUCT_DEFINITION_CONTEXT('',#865,'design');
#859=PRODUCT_DEFINITION_FORMATION_WITH_SPECIFIED_SOURCE('','',#861,
 .NOT_KNOWN.);
#860=PRODUCT_RELATED_PRODUCT_CATEGORY('','',(#861));
#861=PRODUCT('V0.2_BattCover','V0.2_BattCover','V0.2_BattCover',(#863));
#862=PRODUCT_CATEGORY('','');
#863=PRODUCT_CONTEXT('',#865,'mechanical');
#864=APPLICATION_PROTOCOL_DEFINITION('international standard',
'ap242_managed_model_based_3d_engineering',2020,#865);
#865=APPLICATION_CONTEXT('managed model based 3d engineering');
ENDSEC;
END-ISO-10303-21;
