ISO-10303-21;
HEADER;
/*Generated by software containing ST-Developer
 * from STEP Tools, Inc. (www.steptools.com) 
 */
/*OPTION: using custom renumber hook */
/*description */
/*implementation_level */
FILE_DESCRIPTION(('STEP AP242 Edition 2','STEP AP242 Edition 2''CAx-IF Rec.Pracs.---Representation and Presentation of Product Manufa
cturing Information (PMI)---4.0---2014-10-13','STEP AP242 Edition 2''CAx-IF Rec.Pracs.---Representation and Presentation of Product Manufa
cturing Information (PMI)---4.0---2014-10-13''CAx-IF Rec.Pracs.---3D Tessellated Geometry---0.4---2014-09-14','STEP AP242 Edition 2''CAx-IF Rec.Pracs.---Representation and Presentation of Product Manufa
cturing Information (PMI)---4.0---2014-10-13''CAx-IF Rec.Pracs.---3D Tessellated Geometry---0.4---2014-09-14''2;1','STEP AP242 Edition 2''CAx-IF Rec.Pracs.---Representation and Presentation of Product Manufa
cturing Information (PMI)---4.0---2014-10-13''CAx-IF Rec.Pracs.---3D Tessellated Geometry---0.4---2014-09-14''2;1''CAx-IF Rec.Pracs.---User Defined Attributes---1.5---2016-08-15'),'2;1');
/*name */
/*time_stamp */
/*author */
/*organization */
/*preprocessor_version */
/*originating_system */
/*authorisation */
FILE_NAME('/vol/tmp/translate-16090455837793279155/Motor&Mount&Wheel - Motor mount R.step','2026-03-09T15:28:30',(''),(''),'ST-DEVELOPER v20','ONSHAPE BY PTC INC, 1.211','  ');
FILE_SCHEMA(('AP242_MANAGED_MODEL_BASED_3D_ENGINEERING_MIM_LF { 1 0 10303 442 3 1 4 }'));
ENDSEC;
DATA;
#10=SHAPE_REPRESENTATION_RELATIONSHIP('','',#781,#11);
#11=ADVANCED_BREP_SHAPE_REPRESENTATION('',(#779),#1297);
#12=B_SPLINE_CURVE_WITH_KNOTS('',3,(#1178,#1179,#1180,#1181),.UNSPECIFIED.,.F.,.F.,(4,4),(0.00524102649292216,0.0105330540531368),.UNSPECIFIED.);
#13=B_SPLINE_CURVE_WITH_KNOTS('',3,(#1182,#1183,#1184,#1185),.UNSPECIFIED.,.F.,.F.,(4,4),(0.00641051552062989,0.0116663147327463),.UNSPECIFIED.);
#14=B_SPLINE_CURVE_WITH_KNOTS('',3,(#1211,#1212,#1213,#1214),.UNSPECIFIED.,.F.,.F.,(4,4),(1.26702344151387E-06,0.00316912172651446),.UNSPECIFIED.);
#15=B_SPLINE_CURVE_WITH_KNOTS('',3,(#1216,#1217,#1218,#1219),.UNSPECIFIED.,.F.,.F.,(4,4),(0.,0.00163284278744034),.UNSPECIFIED.);
#16=B_SPLINE_CURVE_WITH_KNOTS('',3,(#1220,#1221,#1222,#1223),.UNSPECIFIED.,.F.,.F.,(4,4),(0.,0.00163284278744),.UNSPECIFIED.);
#17=B_SPLINE_CURVE_WITH_KNOTS('',3,(#1225,#1226,#1227,#1228),.UNSPECIFIED.,.F.,.F.,(4,4),(0.019011366829393,0.0221681907855314),.UNSPECIFIED.);
#18=CONICAL_SURFACE('',#807,0.013094995,0.785398163397448);
#19=CONICAL_SURFACE('',#815,0.015675,0.785398163397448);
#20=CYLINDRICAL_SURFACE('',#805,0.015634995);
#21=CYLINDRICAL_SURFACE('',#809,0.013135);
#22=CYLINDRICAL_SURFACE('',#823,0.002);
#23=CYLINDRICAL_SURFACE('',#825,0.002);
#24=CYLINDRICAL_SURFACE('',#834,0.002);
#25=CYLINDRICAL_SURFACE('',#835,0.002);
#26=CYLINDRICAL_SURFACE('',#836,0.002);
#27=CYLINDRICAL_SURFACE('',#837,0.002);
#28=CYLINDRICAL_SURFACE('',#838,0.003);
#29=CYLINDRICAL_SURFACE('',#841,0.003);
#30=CYLINDRICAL_SURFACE('',#844,0.004801);
#31=CYLINDRICAL_SURFACE('',#847,0.0125);
#32=CYLINDRICAL_SURFACE('',#854,0.002);
#33=CYLINDRICAL_SURFACE('',#855,0.002);
#34=CIRCLE('',#784,0.015634995);
#35=CIRCLE('',#786,0.015675);
#36=CIRCLE('',#788,0.002);
#37=CIRCLE('',#789,0.002);
#38=CIRCLE('',#790,0.002);
#39=CIRCLE('',#791,0.002);
#40=CIRCLE('',#793,0.002);
#41=CIRCLE('',#794,0.002);
#42=CIRCLE('',#798,0.002);
#43=CIRCLE('',#799,0.002);
#44=CIRCLE('',#800,0.004801);
#45=CIRCLE('',#801,0.002);
#46=CIRCLE('',#802,0.002);
#47=CIRCLE('',#803,0.0125);
#48=CIRCLE('',#804,0.013135);
#49=CIRCLE('',#806,0.015634995);
#50=CIRCLE('',#808,0.013094995);
#51=CIRCLE('',#810,0.013135);
#52=CIRCLE('',#817,0.002);
#53=CIRCLE('',#818,0.002);
#54=CIRCLE('',#819,0.0125);
#55=CIRCLE('',#820,0.003);
#56=CIRCLE('',#821,0.003);
#57=CIRCLE('',#822,0.004801);
#58=CIRCLE('',#824,0.002);
#59=CIRCLE('',#826,0.002);
#60=CIRCLE('',#828,0.002);
#61=CIRCLE('',#829,0.002);
#62=CIRCLE('',#839,0.003);
#63=CIRCLE('',#842,0.003);
#64=ORIENTED_EDGE('',*,*,#260,.F.);
#65=ORIENTED_EDGE('',*,*,#261,.T.);
#66=ORIENTED_EDGE('',*,*,#262,.T.);
#67=ORIENTED_EDGE('',*,*,#263,.T.);
#68=ORIENTED_EDGE('',*,*,#264,.F.);
#69=ORIENTED_EDGE('',*,*,#265,.F.);
#70=ORIENTED_EDGE('',*,*,#266,.F.);
#71=ORIENTED_EDGE('',*,*,#267,.T.);
#72=ORIENTED_EDGE('',*,*,#268,.T.);
#73=ORIENTED_EDGE('',*,*,#269,.F.);
#74=ORIENTED_EDGE('',*,*,#270,.F.);
#75=ORIENTED_EDGE('',*,*,#271,.T.);
#76=ORIENTED_EDGE('',*,*,#272,.T.);
#77=ORIENTED_EDGE('',*,*,#273,.T.);
#78=ORIENTED_EDGE('',*,*,#274,.T.);
#79=ORIENTED_EDGE('',*,*,#275,.T.);
#80=ORIENTED_EDGE('',*,*,#276,.T.);
#81=ORIENTED_EDGE('',*,*,#277,.T.);
#82=ORIENTED_EDGE('',*,*,#278,.T.);
#83=ORIENTED_EDGE('',*,*,#279,.T.);
#84=ORIENTED_EDGE('',*,*,#280,.T.);
#85=ORIENTED_EDGE('',*,*,#281,.F.);
#86=ORIENTED_EDGE('',*,*,#282,.F.);
#87=ORIENTED_EDGE('',*,*,#283,.T.);
#88=ORIENTED_EDGE('',*,*,#271,.F.);
#89=ORIENTED_EDGE('',*,*,#284,.T.);
#90=ORIENTED_EDGE('',*,*,#260,.T.);
#91=ORIENTED_EDGE('',*,*,#285,.F.);
#92=ORIENTED_EDGE('',*,*,#286,.T.);
#93=ORIENTED_EDGE('',*,*,#287,.F.);
#94=ORIENTED_EDGE('',*,*,#288,.F.);
#95=ORIENTED_EDGE('',*,*,#289,.T.);
#96=ORIENTED_EDGE('',*,*,#290,.T.);
#97=ORIENTED_EDGE('',*,*,#291,.T.);
#98=ORIENTED_EDGE('',*,*,#262,.F.);
#99=ORIENTED_EDGE('',*,*,#292,.T.);
#100=ORIENTED_EDGE('',*,*,#293,.F.);
#101=ORIENTED_EDGE('',*,*,#294,.F.);
#102=ORIENTED_EDGE('',*,*,#295,.F.);
#103=ORIENTED_EDGE('',*,*,#296,.T.);
#104=ORIENTED_EDGE('',*,*,#279,.F.);
#105=ORIENTED_EDGE('',*,*,#297,.F.);
#106=ORIENTED_EDGE('',*,*,#298,.T.);
#107=ORIENTED_EDGE('',*,*,#299,.T.);
#108=ORIENTED_EDGE('',*,*,#300,.T.);
#109=ORIENTED_EDGE('',*,*,#301,.T.);
#110=ORIENTED_EDGE('',*,*,#302,.T.);
#111=ORIENTED_EDGE('',*,*,#303,.F.);
#112=ORIENTED_EDGE('',*,*,#304,.T.);
#113=ORIENTED_EDGE('',*,*,#305,.F.);
#114=ORIENTED_EDGE('',*,*,#306,.T.);
#115=ORIENTED_EDGE('',*,*,#307,.F.);
#116=ORIENTED_EDGE('',*,*,#308,.T.);
#117=ORIENTED_EDGE('',*,*,#309,.T.);
#118=ORIENTED_EDGE('',*,*,#310,.T.);
#119=ORIENTED_EDGE('',*,*,#265,.T.);
#120=ORIENTED_EDGE('',*,*,#311,.F.);
#121=ORIENTED_EDGE('',*,*,#312,.F.);
#122=ORIENTED_EDGE('',*,*,#313,.T.);
#123=ORIENTED_EDGE('',*,*,#309,.F.);
#124=ORIENTED_EDGE('',*,*,#314,.T.);
#125=ORIENTED_EDGE('',*,*,#315,.T.);
#126=ORIENTED_EDGE('',*,*,#316,.T.);
#127=ORIENTED_EDGE('',*,*,#307,.T.);
#128=ORIENTED_EDGE('',*,*,#317,.T.);
#129=ORIENTED_EDGE('',*,*,#267,.F.);
#130=ORIENTED_EDGE('',*,*,#318,.T.);
#131=ORIENTED_EDGE('',*,*,#319,.F.);
#132=ORIENTED_EDGE('',*,*,#320,.T.);
#133=ORIENTED_EDGE('',*,*,#321,.F.);
#134=ORIENTED_EDGE('',*,*,#322,.T.);
#135=ORIENTED_EDGE('',*,*,#263,.F.);
#136=ORIENTED_EDGE('',*,*,#294,.T.);
#137=ORIENTED_EDGE('',*,*,#323,.F.);
#138=ORIENTED_EDGE('',*,*,#324,.T.);
#139=ORIENTED_EDGE('',*,*,#274,.F.);
#140=ORIENTED_EDGE('',*,*,#325,.T.);
#141=ORIENTED_EDGE('',*,*,#278,.F.);
#142=ORIENTED_EDGE('',*,*,#326,.T.);
#143=ORIENTED_EDGE('',*,*,#327,.F.);
#144=ORIENTED_EDGE('',*,*,#297,.T.);
#145=ORIENTED_EDGE('',*,*,#328,.T.);
#146=ORIENTED_EDGE('',*,*,#329,.T.);
#147=ORIENTED_EDGE('',*,*,#315,.F.);
#148=ORIENTED_EDGE('',*,*,#330,.T.);
#149=ORIENTED_EDGE('',*,*,#331,.T.);
#150=ORIENTED_EDGE('',*,*,#276,.F.);
#151=ORIENTED_EDGE('',*,*,#332,.F.);
#152=ORIENTED_EDGE('',*,*,#333,.F.);
#153=ORIENTED_EDGE('',*,*,#334,.F.);
#154=ORIENTED_EDGE('',*,*,#312,.T.);
#155=ORIENTED_EDGE('',*,*,#335,.F.);
#156=ORIENTED_EDGE('',*,*,#336,.T.);
#157=ORIENTED_EDGE('',*,*,#337,.T.);
#158=ORIENTED_EDGE('',*,*,#338,.F.);
#159=ORIENTED_EDGE('',*,*,#339,.F.);
#160=ORIENTED_EDGE('',*,*,#301,.F.);
#161=ORIENTED_EDGE('',*,*,#340,.T.);
#162=ORIENTED_EDGE('',*,*,#302,.F.);
#163=ORIENTED_EDGE('',*,*,#341,.T.);
#164=ORIENTED_EDGE('',*,*,#342,.F.);
#165=ORIENTED_EDGE('',*,*,#293,.T.);
#166=ORIENTED_EDGE('',*,*,#343,.T.);
#167=ORIENTED_EDGE('',*,*,#295,.T.);
#168=ORIENTED_EDGE('',*,*,#344,.F.);
#169=ORIENTED_EDGE('',*,*,#345,.T.);
#170=ORIENTED_EDGE('',*,*,#327,.T.);
#171=ORIENTED_EDGE('',*,*,#346,.T.);
#172=ORIENTED_EDGE('',*,*,#321,.T.);
#173=ORIENTED_EDGE('',*,*,#344,.T.);
#174=ORIENTED_EDGE('',*,*,#319,.T.);
#175=ORIENTED_EDGE('',*,*,#347,.T.);
#176=ORIENTED_EDGE('',*,*,#323,.T.);
#177=ORIENTED_EDGE('',*,*,#290,.F.);
#178=ORIENTED_EDGE('',*,*,#348,.F.);
#179=ORIENTED_EDGE('',*,*,#268,.F.);
#180=ORIENTED_EDGE('',*,*,#320,.F.);
#181=ORIENTED_EDGE('',*,*,#289,.F.);
#182=ORIENTED_EDGE('',*,*,#349,.F.);
#183=ORIENTED_EDGE('',*,*,#291,.F.);
#184=ORIENTED_EDGE('',*,*,#325,.F.);
#185=ORIENTED_EDGE('',*,*,#273,.F.);
#186=ORIENTED_EDGE('',*,*,#282,.T.);
#187=ORIENTED_EDGE('',*,*,#342,.T.);
#188=ORIENTED_EDGE('',*,*,#283,.F.);
#189=ORIENTED_EDGE('',*,*,#345,.F.);
#190=ORIENTED_EDGE('',*,*,#281,.T.);
#191=ORIENTED_EDGE('',*,*,#287,.T.);
#192=ORIENTED_EDGE('',*,*,#280,.F.);
#193=ORIENTED_EDGE('',*,*,#286,.F.);
#194=ORIENTED_EDGE('',*,*,#350,.F.);
#195=ORIENTED_EDGE('',*,*,#338,.T.);
#196=ORIENTED_EDGE('',*,*,#341,.F.);
#197=ORIENTED_EDGE('',*,*,#350,.T.);
#198=ORIENTED_EDGE('',*,*,#351,.T.);
#199=ORIENTED_EDGE('',*,*,#337,.F.);
#200=ORIENTED_EDGE('',*,*,#340,.F.);
#201=ORIENTED_EDGE('',*,*,#351,.F.);
#202=ORIENTED_EDGE('',*,*,#300,.F.);
#203=ORIENTED_EDGE('',*,*,#339,.T.);
#204=ORIENTED_EDGE('',*,*,#303,.T.);
#205=ORIENTED_EDGE('',*,*,#352,.T.);
#206=ORIENTED_EDGE('',*,*,#328,.F.);
#207=ORIENTED_EDGE('',*,*,#275,.F.);
#208=ORIENTED_EDGE('',*,*,#353,.T.);
#209=ORIENTED_EDGE('',*,*,#266,.T.);
#210=ORIENTED_EDGE('',*,*,#310,.F.);
#211=ORIENTED_EDGE('',*,*,#313,.F.);
#212=ORIENTED_EDGE('',*,*,#334,.T.);
#213=ORIENTED_EDGE('',*,*,#354,.T.);
#214=ORIENTED_EDGE('',*,*,#331,.F.);
#215=ORIENTED_EDGE('',*,*,#355,.T.);
#216=ORIENTED_EDGE('',*,*,#305,.T.);
#217=ORIENTED_EDGE('',*,*,#356,.F.);
#218=ORIENTED_EDGE('',*,*,#335,.T.);
#219=ORIENTED_EDGE('',*,*,#314,.F.);
#220=ORIENTED_EDGE('',*,*,#311,.T.);
#221=ORIENTED_EDGE('',*,*,#264,.T.);
#222=ORIENTED_EDGE('',*,*,#357,.T.);
#223=ORIENTED_EDGE('',*,*,#277,.F.);
#224=ORIENTED_EDGE('',*,*,#356,.T.);
#225=ORIENTED_EDGE('',*,*,#304,.F.);
#226=ORIENTED_EDGE('',*,*,#354,.F.);
#227=ORIENTED_EDGE('',*,*,#336,.F.);
#228=ORIENTED_EDGE('',*,*,#308,.F.);
#229=ORIENTED_EDGE('',*,*,#316,.F.);
#230=ORIENTED_EDGE('',*,*,#329,.F.);
#231=ORIENTED_EDGE('',*,*,#352,.F.);
#232=ORIENTED_EDGE('',*,*,#330,.F.);
#233=ORIENTED_EDGE('',*,*,#317,.F.);
#234=ORIENTED_EDGE('',*,*,#306,.F.);
#235=ORIENTED_EDGE('',*,*,#355,.F.);
#236=ORIENTED_EDGE('',*,*,#318,.F.);
#237=ORIENTED_EDGE('',*,*,#353,.F.);
#238=ORIENTED_EDGE('',*,*,#324,.F.);
#239=ORIENTED_EDGE('',*,*,#347,.F.);
#240=ORIENTED_EDGE('',*,*,#322,.F.);
#241=ORIENTED_EDGE('',*,*,#346,.F.);
#242=ORIENTED_EDGE('',*,*,#326,.F.);
#243=ORIENTED_EDGE('',*,*,#357,.F.);
#244=ORIENTED_EDGE('',*,*,#270,.T.);
#245=ORIENTED_EDGE('',*,*,#296,.F.);
#246=ORIENTED_EDGE('',*,*,#343,.F.);
#247=ORIENTED_EDGE('',*,*,#292,.F.);
#248=ORIENTED_EDGE('',*,*,#261,.F.);
#249=ORIENTED_EDGE('',*,*,#284,.F.);
#250=ORIENTED_EDGE('',*,*,#285,.T.);
#251=ORIENTED_EDGE('',*,*,#269,.T.);
#252=ORIENTED_EDGE('',*,*,#348,.T.);
#253=ORIENTED_EDGE('',*,*,#288,.T.);
#254=ORIENTED_EDGE('',*,*,#349,.T.);
#255=ORIENTED_EDGE('',*,*,#272,.F.);
#256=ORIENTED_EDGE('',*,*,#333,.T.);
#257=ORIENTED_EDGE('',*,*,#299,.F.);
#258=ORIENTED_EDGE('',*,*,#332,.T.);
#259=ORIENTED_EDGE('',*,*,#298,.F.);
#260=EDGE_CURVE('',#358,#359,#428,.T.);
#261=EDGE_CURVE('',#358,#360,#429,.T.);
#262=EDGE_CURVE('',#360,#361,#430,.T.);
#263=EDGE_CURVE('',#361,#362,#431,.T.);
#264=EDGE_CURVE('',#363,#362,#432,.T.);
#265=EDGE_CURVE('',#364,#363,#34,.T.);
#266=EDGE_CURVE('',#365,#364,#433,.T.);
#267=EDGE_CURVE('',#365,#366,#434,.T.);
#268=EDGE_CURVE('',#366,#367,#435,.T.);
#269=EDGE_CURVE('',#359,#367,#436,.T.);
#270=EDGE_CURVE('',#368,#369,#437,.T.);
#271=EDGE_CURVE('',#368,#370,#438,.T.);
#272=EDGE_CURVE('',#370,#371,#439,.T.);
#273=EDGE_CURVE('',#371,#372,#440,.T.);
#274=EDGE_CURVE('',#372,#373,#441,.T.);
#275=EDGE_CURVE('',#373,#374,#442,.T.);
#276=EDGE_CURVE('',#374,#375,#35,.F.);
#277=EDGE_CURVE('',#375,#376,#443,.T.);
#278=EDGE_CURVE('',#376,#377,#444,.T.);
#279=EDGE_CURVE('',#377,#369,#445,.T.);
#280=EDGE_CURVE('',#378,#378,#36,.F.);
#281=EDGE_CURVE('',#379,#379,#37,.T.);
#282=EDGE_CURVE('',#380,#380,#38,.T.);
#283=EDGE_CURVE('',#381,#381,#39,.F.);
#284=EDGE_CURVE('',#368,#358,#446,.T.);
#285=EDGE_CURVE('',#370,#359,#447,.T.);
#286=EDGE_CURVE('',#382,#382,#40,.T.);
#287=EDGE_CURVE('',#383,#383,#41,.T.);
#288=EDGE_CURVE('',#384,#385,#448,.T.);
#289=EDGE_CURVE('',#384,#386,#449,.T.);
#290=EDGE_CURVE('',#386,#387,#450,.T.);
#291=EDGE_CURVE('',#387,#385,#451,.T.);
#292=EDGE_CURVE('',#360,#388,#452,.F.);
#293=EDGE_CURVE('',#389,#388,#453,.T.);
#294=EDGE_CURVE('',#361,#389,#454,.T.);
#295=EDGE_CURVE('',#390,#391,#455,.T.);
#296=EDGE_CURVE('',#390,#369,#456,.T.);
#297=EDGE_CURVE('',#391,#377,#457,.T.);
#298=EDGE_CURVE('',#392,#392,#42,.T.);
#299=EDGE_CURVE('',#393,#393,#43,.T.);
#300=EDGE_CURVE('',#394,#394,#44,.T.);
#301=EDGE_CURVE('',#395,#395,#45,.T.);
#302=EDGE_CURVE('',#396,#396,#46,.T.);
#303=EDGE_CURVE('',#397,#398,#458,.T.);
#304=EDGE_CURVE('',#397,#399,#47,.T.);
#305=EDGE_CURVE('',#400,#399,#459,.T.);
#306=EDGE_CURVE('',#400,#401,#460,.F.);
#307=EDGE_CURVE('',#402,#401,#48,.T.);
#308=EDGE_CURVE('',#402,#398,#461,.T.);
#309=EDGE_CURVE('',#403,#404,#49,.F.);
#310=EDGE_CURVE('',#404,#364,#462,.T.);
#311=EDGE_CURVE('',#403,#363,#463,.T.);
#312=EDGE_CURVE('',#405,#406,#50,.T.);
#313=EDGE_CURVE('',#405,#404,#12,.T.);
#314=EDGE_CURVE('',#403,#406,#13,.T.);
#315=EDGE_CURVE('',#407,#408,#51,.T.);
#316=EDGE_CURVE('',#408,#402,#464,.T.);
#317=EDGE_CURVE('',#401,#407,#465,.F.);
#318=EDGE_CURVE('',#365,#409,#466,.F.);
#319=EDGE_CURVE('',#386,#409,#467,.T.);
#320=EDGE_CURVE('',#386,#366,#468,.F.);
#321=EDGE_CURVE('',#410,#389,#469,.T.);
#322=EDGE_CURVE('',#410,#362,#470,.F.);
#323=EDGE_CURVE('',#411,#387,#471,.T.);
#324=EDGE_CURVE('',#411,#373,#472,.T.);
#325=EDGE_CURVE('',#372,#387,#473,.F.);
#326=EDGE_CURVE('',#376,#412,#474,.T.);
#327=EDGE_CURVE('',#391,#412,#475,.T.);
#328=EDGE_CURVE('',#374,#413,#14,.T.);
#329=EDGE_CURVE('',#413,#408,#15,.T.);
#330=EDGE_CURVE('',#407,#414,#16,.T.);
#331=EDGE_CURVE('',#414,#375,#17,.T.);
#332=EDGE_CURVE('',#415,#415,#52,.T.);
#333=EDGE_CURVE('',#416,#416,#53,.T.);
#334=EDGE_CURVE('',#405,#417,#476,.T.);
#335=EDGE_CURVE('',#418,#406,#477,.T.);
#336=EDGE_CURVE('',#418,#417,#54,.T.);
#337=EDGE_CURVE('',#419,#419,#55,.T.);
#338=EDGE_CURVE('',#420,#420,#56,.T.);
#339=EDGE_CURVE('',#421,#421,#57,.T.);
#340=EDGE_CURVE('',#422,#422,#58,.T.);
#341=EDGE_CURVE('',#423,#423,#59,.T.);
#342=EDGE_CURVE('',#424,#424,#60,.T.);
#343=EDGE_CURVE('',#388,#390,#478,.T.);
#344=EDGE_CURVE('',#389,#391,#479,.T.);
#345=EDGE_CURVE('',#425,#425,#61,.T.);
#346=EDGE_CURVE('',#412,#410,#480,.T.);
#347=EDGE_CURVE('',#409,#411,#481,.T.);
#348=EDGE_CURVE('',#367,#384,#482,.F.);
#349=EDGE_CURVE('',#385,#371,#483,.T.);
#350=EDGE_CURVE('',#426,#426,#62,.T.);
#351=EDGE_CURVE('',#427,#427,#63,.T.);
#352=EDGE_CURVE('',#398,#413,#484,.T.);
#353=EDGE_CURVE('',#373,#365,#485,.T.);
#354=EDGE_CURVE('',#417,#397,#486,.T.);
#355=EDGE_CURVE('',#414,#400,#487,.T.);
#356=EDGE_CURVE('',#418,#399,#488,.T.);
#357=EDGE_CURVE('',#362,#376,#489,.T.);
#358=VERTEX_POINT('',#1069);
#359=VERTEX_POINT('',#1070);
#360=VERTEX_POINT('',#1072);
#361=VERTEX_POINT('',#1074);
#362=VERTEX_POINT('',#1076);
#363=VERTEX_POINT('',#1078);
#364=VERTEX_POINT('',#1080);
#365=VERTEX_POINT('',#1082);
#366=VERTEX_POINT('',#1084);
#367=VERTEX_POINT('',#1086);
#368=VERTEX_POINT('',#1090);
#369=VERTEX_POINT('',#1091);
#370=VERTEX_POINT('',#1093);
#371=VERTEX_POINT('',#1095);
#372=VERTEX_POINT('',#1097);
#373=VERTEX_POINT('',#1099);
#374=VERTEX_POINT('',#1101);
#375=VERTEX_POINT('',#1103);
#376=VERTEX_POINT('',#1105);
#377=VERTEX_POINT('',#1107);
#378=VERTEX_POINT('',#1111);
#379=VERTEX_POINT('',#1113);
#380=VERTEX_POINT('',#1115);
#381=VERTEX_POINT('',#1117);
#382=VERTEX_POINT('',#1122);
#383=VERTEX_POINT('',#1124);
#384=VERTEX_POINT('',#1126);
#385=VERTEX_POINT('',#1127);
#386=VERTEX_POINT('',#1129);
#387=VERTEX_POINT('',#1131);
#388=VERTEX_POINT('',#1135);
#389=VERTEX_POINT('',#1137);
#390=VERTEX_POINT('',#1141);
#391=VERTEX_POINT('',#1142);
#392=VERTEX_POINT('',#1147);
#393=VERTEX_POINT('',#1149);
#394=VERTEX_POINT('',#1151);
#395=VERTEX_POINT('',#1153);
#396=VERTEX_POINT('',#1155);
#397=VERTEX_POINT('',#1157);
#398=VERTEX_POINT('',#1158);
#399=VERTEX_POINT('',#1160);
#400=VERTEX_POINT('',#1162);
#401=VERTEX_POINT('',#1164);
#402=VERTEX_POINT('',#1166);
#403=VERTEX_POINT('',#1170);
#404=VERTEX_POINT('',#1171);
#405=VERTEX_POINT('',#1176);
#406=VERTEX_POINT('',#1177);
#407=VERTEX_POINT('',#1188);
#408=VERTEX_POINT('',#1189);
#409=VERTEX_POINT('',#1194);
#410=VERTEX_POINT('',#1199);
#411=VERTEX_POINT('',#1203);
#412=VERTEX_POINT('',#1208);
#413=VERTEX_POINT('',#1215);
#414=VERTEX_POINT('',#1224);
#415=VERTEX_POINT('',#1231);
#416=VERTEX_POINT('',#1233);
#417=VERTEX_POINT('',#1235);
#418=VERTEX_POINT('',#1237);
#419=VERTEX_POINT('',#1240);
#420=VERTEX_POINT('',#1242);
#421=VERTEX_POINT('',#1244);
#422=VERTEX_POINT('',#1247);
#423=VERTEX_POINT('',#1250);
#424=VERTEX_POINT('',#1253);
#425=VERTEX_POINT('',#1257);
#426=VERTEX_POINT('',#1272);
#427=VERTEX_POINT('',#1276);
#428=LINE('',#1068,#490);
#429=LINE('',#1071,#491);
#430=LINE('',#1073,#492);
#431=LINE('',#1075,#493);
#432=LINE('',#1077,#494);
#433=LINE('',#1081,#495);
#434=LINE('',#1083,#496);
#435=LINE('',#1085,#497);
#436=LINE('',#1087,#498);
#437=LINE('',#1089,#499);
#438=LINE('',#1092,#500);
#439=LINE('',#1094,#501);
#440=LINE('',#1096,#502);
#441=LINE('',#1098,#503);
#442=LINE('',#1100,#504);
#443=LINE('',#1104,#505);
#444=LINE('',#1106,#506);
#445=LINE('',#1108,#507);
#446=LINE('',#1118,#508);
#447=LINE('',#1119,#509);
#448=LINE('',#1125,#510);
#449=LINE('',#1128,#511);
#450=LINE('',#1130,#512);
#451=LINE('',#1132,#513);
#452=LINE('',#1134,#514);
#453=LINE('',#1136,#515);
#454=LINE('',#1138,#516);
#455=LINE('',#1140,#517);
#456=LINE('',#1143,#518);
#457=LINE('',#1144,#519);
#458=LINE('',#1156,#520);
#459=LINE('',#1161,#521);
#460=LINE('',#1163,#522);
#461=LINE('',#1167,#523);
#462=LINE('',#1172,#524);
#463=LINE('',#1173,#525);
#464=LINE('',#1190,#526);
#465=LINE('',#1191,#527);
#466=LINE('',#1193,#528);
#467=LINE('',#1195,#529);
#468=LINE('',#1196,#530);
#469=LINE('',#1198,#531);
#470=LINE('',#1200,#532);
#471=LINE('',#1202,#533);
#472=LINE('',#1204,#534);
#473=LINE('',#1205,#535);
#474=LINE('',#1207,#536);
#475=LINE('',#1209,#537);
#476=LINE('',#1234,#538);
#477=LINE('',#1236,#539);
#478=LINE('',#1254,#540);
#479=LINE('',#1255,#541);
#480=LINE('',#1259,#542);
#481=LINE('',#1261,#543);
#482=LINE('',#1263,#544);
#483=LINE('',#1265,#545);
#484=LINE('',#1280,#546);
#485=LINE('',#1281,#547);
#486=LINE('',#1282,#548);
#487=LINE('',#1284,#549);
#488=LINE('',#1285,#550);
#489=LINE('',#1286,#551);
#490=VECTOR('',#860,1.);
#491=VECTOR('',#861,1.);
#492=VECTOR('',#862,1.);
#493=VECTOR('',#863,1.);
#494=VECTOR('',#864,1.);
#495=VECTOR('',#867,1.);
#496=VECTOR('',#868,1.);
#497=VECTOR('',#869,1.);
#498=VECTOR('',#870,1.);
#499=VECTOR('',#873,1.);
#500=VECTOR('',#874,1.);
#501=VECTOR('',#875,1.);
#502=VECTOR('',#876,1.);
#503=VECTOR('',#877,1.);
#504=VECTOR('',#878,1.);
#505=VECTOR('',#881,1.);
#506=VECTOR('',#882,1.);
#507=VECTOR('',#883,1.);
#508=VECTOR('',#894,1.);
#509=VECTOR('',#895,1.);
#510=VECTOR('',#902,1.);
#511=VECTOR('',#903,1.);
#512=VECTOR('',#904,1.);
#513=VECTOR('',#905,1.);
#514=VECTOR('',#908,1.);
#515=VECTOR('',#909,1.);
#516=VECTOR('',#910,1.);
#517=VECTOR('',#913,1.);
#518=VECTOR('',#914,1.);
#519=VECTOR('',#915,1.);
#520=VECTOR('',#928,1.);
#521=VECTOR('',#931,1.);
#522=VECTOR('',#932,1.);
#523=VECTOR('',#935,1.);
#524=VECTOR('',#940,1.);
#525=VECTOR('',#941,1.);
#526=VECTOR('',#950,1.);
#527=VECTOR('',#951,1.);
#528=VECTOR('',#954,1.);
#529=VECTOR('',#955,1.);
#530=VECTOR('',#956,1.);
#531=VECTOR('',#959,1.);
#532=VECTOR('',#960,1.);
#533=VECTOR('',#963,1.);
#534=VECTOR('',#964,1.);
#535=VECTOR('',#965,1.);
#536=VECTOR('',#968,1.);
#537=VECTOR('',#969,1.);
#538=VECTOR('',#978,1.);
#539=VECTOR('',#979,1.);
#540=VECTOR('',#1000,1.);
#541=VECTOR('',#1001,1.);
#542=VECTOR('',#1006,1.);
#543=VECTOR('',#1009,1.);
#544=VECTOR('',#1012,1.);
#545=VECTOR('',#1015,1.);
#546=VECTOR('',#1040,1.);
#547=VECTOR('',#1041,1.);
#548=VECTOR('',#1042,1.);
#549=VECTOR('',#1045,1.);
#550=VECTOR('',#1046,1.);
#551=VECTOR('',#1047,1.);
#552=EDGE_LOOP('',(#64,#65,#66,#67,#68,#69,#70,#71,#72,#73));
#553=EDGE_LOOP('',(#74,#75,#76,#77,#78,#79,#80,#81,#82,#83));
#554=EDGE_LOOP('',(#84));
#555=EDGE_LOOP('',(#85));
#556=EDGE_LOOP('',(#86));
#557=EDGE_LOOP('',(#87));
#558=EDGE_LOOP('',(#88,#89,#90,#91));
#559=EDGE_LOOP('',(#92));
#560=EDGE_LOOP('',(#93));
#561=EDGE_LOOP('',(#94,#95,#96,#97));
#562=EDGE_LOOP('',(#98,#99,#100,#101));
#563=EDGE_LOOP('',(#102,#103,#104,#105));
#564=EDGE_LOOP('',(#106));
#565=EDGE_LOOP('',(#107));
#566=EDGE_LOOP('',(#108));
#567=EDGE_LOOP('',(#109));
#568=EDGE_LOOP('',(#110));
#569=EDGE_LOOP('',(#111,#112,#113,#114,#115,#116));
#570=EDGE_LOOP('',(#117,#118,#119,#120));
#571=EDGE_LOOP('',(#121,#122,#123,#124));
#572=EDGE_LOOP('',(#125,#126,#127,#128));
#573=EDGE_LOOP('',(#129,#130,#131,#132));
#574=EDGE_LOOP('',(#133,#134,#135,#136));
#575=EDGE_LOOP('',(#137,#138,#139,#140));
#576=EDGE_LOOP('',(#141,#142,#143,#144));
#577=EDGE_LOOP('',(#145,#146,#147,#148,#149,#150));
#578=EDGE_LOOP('',(#151));
#579=EDGE_LOOP('',(#152));
#580=EDGE_LOOP('',(#153,#154,#155,#156));
#581=EDGE_LOOP('',(#157));
#582=EDGE_LOOP('',(#158));
#583=EDGE_LOOP('',(#159));
#584=EDGE_LOOP('',(#160));
#585=EDGE_LOOP('',(#161));
#586=EDGE_LOOP('',(#162));
#587=EDGE_LOOP('',(#163));
#588=EDGE_LOOP('',(#164));
#589=EDGE_LOOP('',(#165,#166,#167,#168));
#590=EDGE_LOOP('',(#169));
#591=EDGE_LOOP('',(#170,#171,#172,#173));
#592=EDGE_LOOP('',(#174,#175,#176,#177));
#593=EDGE_LOOP('',(#178,#179,#180,#181));
#594=EDGE_LOOP('',(#182,#183,#184,#185));
#595=EDGE_LOOP('',(#186));
#596=EDGE_LOOP('',(#187));
#597=EDGE_LOOP('',(#188));
#598=EDGE_LOOP('',(#189));
#599=EDGE_LOOP('',(#190));
#600=EDGE_LOOP('',(#191));
#601=EDGE_LOOP('',(#192));
#602=EDGE_LOOP('',(#193));
#603=EDGE_LOOP('',(#194));
#604=EDGE_LOOP('',(#195));
#605=EDGE_LOOP('',(#196));
#606=EDGE_LOOP('',(#197));
#607=EDGE_LOOP('',(#198));
#608=EDGE_LOOP('',(#199));
#609=EDGE_LOOP('',(#200));
#610=EDGE_LOOP('',(#201));
#611=EDGE_LOOP('',(#202));
#612=EDGE_LOOP('',(#203));
#613=EDGE_LOOP('',(#204,#205,#206,#207,#208,#209,#210,#211,#212,#213));
#614=EDGE_LOOP('',(#214,#215,#216,#217,#218,#219,#220,#221,#222,#223));
#615=EDGE_LOOP('',(#224,#225,#226,#227));
#616=EDGE_LOOP('',(#228,#229,#230,#231));
#617=EDGE_LOOP('',(#232,#233,#234,#235));
#618=EDGE_LOOP('',(#236,#237,#238,#239));
#619=EDGE_LOOP('',(#240,#241,#242,#243));
#620=EDGE_LOOP('',(#244,#245,#246,#247,#248,#249));
#621=EDGE_LOOP('',(#250,#251,#252,#253,#254,#255));
#622=EDGE_LOOP('',(#256));
#623=EDGE_LOOP('',(#257));
#624=EDGE_LOOP('',(#258));
#625=EDGE_LOOP('',(#259));
#626=FACE_BOUND('',#552,.T.);
#627=FACE_BOUND('',#553,.T.);
#628=FACE_BOUND('',#554,.T.);
#629=FACE_BOUND('',#555,.T.);
#630=FACE_BOUND('',#556,.T.);
#631=FACE_BOUND('',#557,.T.);
#632=FACE_BOUND('',#558,.T.);
#633=FACE_BOUND('',#559,.T.);
#634=FACE_BOUND('',#560,.T.);
#635=FACE_BOUND('',#561,.T.);
#636=FACE_BOUND('',#562,.T.);
#637=FACE_BOUND('',#563,.T.);
#638=FACE_BOUND('',#564,.T.);
#639=FACE_BOUND('',#565,.T.);
#640=FACE_BOUND('',#566,.T.);
#641=FACE_BOUND('',#567,.T.);
#642=FACE_BOUND('',#568,.T.);
#643=FACE_BOUND('',#569,.T.);
#644=FACE_BOUND('',#570,.T.);
#645=FACE_BOUND('',#571,.T.);
#646=FACE_BOUND('',#572,.T.);
#647=FACE_BOUND('',#573,.T.);
#648=FACE_BOUND('',#574,.T.);
#649=FACE_BOUND('',#575,.T.);
#650=FACE_BOUND('',#576,.T.);
#651=FACE_BOUND('',#577,.T.);
#652=FACE_BOUND('',#578,.T.);
#653=FACE_BOUND('',#579,.T.);
#654=FACE_BOUND('',#580,.T.);
#655=FACE_BOUND('',#581,.T.);
#656=FACE_BOUND('',#582,.T.);
#657=FACE_BOUND('',#583,.T.);
#658=FACE_BOUND('',#584,.T.);
#659=FACE_BOUND('',#585,.T.);
#660=FACE_BOUND('',#586,.T.);
#661=FACE_BOUND('',#587,.T.);
#662=FACE_BOUND('',#588,.T.);
#663=FACE_BOUND('',#589,.T.);
#664=FACE_BOUND('',#590,.T.);
#665=FACE_BOUND('',#591,.T.);
#666=FACE_BOUND('',#592,.T.);
#667=FACE_BOUND('',#593,.T.);
#668=FACE_BOUND('',#594,.T.);
#669=FACE_BOUND('',#595,.T.);
#670=FACE_BOUND('',#596,.T.);
#671=FACE_BOUND('',#597,.T.);
#672=FACE_BOUND('',#598,.T.);
#673=FACE_BOUND('',#599,.T.);
#674=FACE_BOUND('',#600,.T.);
#675=FACE_BOUND('',#601,.T.);
#676=FACE_BOUND('',#602,.T.);
#677=FACE_BOUND('',#603,.T.);
#678=FACE_BOUND('',#604,.T.);
#679=FACE_BOUND('',#605,.T.);
#680=FACE_BOUND('',#606,.T.);
#681=FACE_BOUND('',#607,.T.);
#682=FACE_BOUND('',#608,.T.);
#683=FACE_BOUND('',#609,.T.);
#684=FACE_BOUND('',#610,.T.);
#685=FACE_BOUND('',#611,.T.);
#686=FACE_BOUND('',#612,.T.);
#687=FACE_BOUND('',#613,.T.);
#688=FACE_BOUND('',#614,.T.);
#689=FACE_BOUND('',#615,.T.);
#690=FACE_BOUND('',#616,.T.);
#691=FACE_BOUND('',#617,.T.);
#692=FACE_BOUND('',#618,.T.);
#693=FACE_BOUND('',#619,.T.);
#694=FACE_BOUND('',#620,.T.);
#695=FACE_BOUND('',#621,.T.);
#696=FACE_BOUND('',#622,.T.);
#697=FACE_BOUND('',#623,.T.);
#698=FACE_BOUND('',#624,.T.);
#699=FACE_BOUND('',#625,.T.);
#700=PLANE('',#783);
#701=PLANE('',#785);
#702=PLANE('',#787);
#703=PLANE('',#792);
#704=PLANE('',#795);
#705=PLANE('',#796);
#706=PLANE('',#797);
#707=PLANE('',#811);
#708=PLANE('',#812);
#709=PLANE('',#813);
#710=PLANE('',#814);
#711=PLANE('',#816);
#712=PLANE('',#827);
#713=PLANE('',#830);
#714=PLANE('',#831);
#715=PLANE('',#832);
#716=PLANE('',#833);
#717=PLANE('',#840);
#718=PLANE('',#843);
#719=PLANE('',#845);
#720=PLANE('',#846);
#721=PLANE('',#848);
#722=PLANE('',#849);
#723=PLANE('',#850);
#724=PLANE('',#851);
#725=PLANE('',#852);
#726=PLANE('',#853);
#727=ADVANCED_FACE('',(#626),#700,.F.);
#728=ADVANCED_FACE('',(#627),#701,.T.);
#729=ADVANCED_FACE('',(#628,#629,#630,#631,#632),#702,.T.);
#730=ADVANCED_FACE('',(#633,#634,#635),#703,.F.);
#731=ADVANCED_FACE('',(#636),#704,.F.);
#732=ADVANCED_FACE('',(#637),#705,.T.);
#733=ADVANCED_FACE('',(#638,#639,#640,#641,#642,#643),#706,.F.);
#734=ADVANCED_FACE('',(#644),#20,.T.);
#735=ADVANCED_FACE('',(#645),#18,.T.);
#736=ADVANCED_FACE('',(#646),#21,.F.);
#737=ADVANCED_FACE('',(#647),#707,.F.);
#738=ADVANCED_FACE('',(#648),#708,.T.);
#739=ADVANCED_FACE('',(#649),#709,.T.);
#740=ADVANCED_FACE('',(#650),#710,.F.);
#741=ADVANCED_FACE('',(#651),#19,.F.);
#742=ADVANCED_FACE('',(#652,#653,#654,#655,#656,#657),#711,.T.);
#743=ADVANCED_FACE('',(#658,#659),#22,.F.);
#744=ADVANCED_FACE('',(#660,#661),#23,.F.);
#745=ADVANCED_FACE('',(#662,#663,#664),#712,.F.);
#746=ADVANCED_FACE('',(#665),#713,.T.);
#747=ADVANCED_FACE('',(#666),#714,.F.);
#748=ADVANCED_FACE('',(#667),#715,.F.);
#749=ADVANCED_FACE('',(#668),#716,.T.);
#750=ADVANCED_FACE('',(#669,#670),#24,.F.);
#751=ADVANCED_FACE('',(#671,#672),#25,.F.);
#752=ADVANCED_FACE('',(#673,#674),#26,.F.);
#753=ADVANCED_FACE('',(#675,#676),#27,.F.);
#754=ADVANCED_FACE('',(#677,#678),#28,.F.);
#755=ADVANCED_FACE('',(#679,#680),#717,.T.);
#756=ADVANCED_FACE('',(#681,#682),#29,.F.);
#757=ADVANCED_FACE('',(#683,#684),#718,.T.);
#758=ADVANCED_FACE('',(#685,#686),#30,.F.);
#759=ADVANCED_FACE('',(#687),#719,.T.);
#760=ADVANCED_FACE('',(#688),#720,.T.);
#761=ADVANCED_FACE('',(#689),#31,.T.);
#762=ADVANCED_FACE('',(#690),#721,.T.);
#763=ADVANCED_FACE('',(#691),#722,.F.);
#764=ADVANCED_FACE('',(#692),#723,.T.);
#765=ADVANCED_FACE('',(#693),#724,.F.);
#766=ADVANCED_FACE('',(#694),#725,.T.);
#767=ADVANCED_FACE('',(#695),#726,.F.);
#768=ADVANCED_FACE('',(#696,#697),#32,.F.);
#769=ADVANCED_FACE('',(#698,#699),#33,.F.);
#770=CLOSED_SHELL('',(#727,#728,#729,#730,#731,#732,#733,#734,#735,#736,#737,#738,#739,#740,#741,#742,#743,#744,#745,#746,#747,#748,#749,#750,#751,#752,#753,#754,#755,#756,#757,#758,#759,#760,#761,#762,#763,#764,#765,#766,#767,#768,#769));
#771=STYLED_ITEM('',(#772),#779);
#772=PRESENTATION_STYLE_ASSIGNMENT((#773));
#773=SURFACE_STYLE_USAGE(.BOTH.,#774);
#774=SURFACE_SIDE_STYLE('',(#775));
#775=SURFACE_STYLE_FILL_AREA(#776);
#776=FILL_AREA_STYLE('',(#777));
#777=FILL_AREA_STYLE_COLOUR('',#778);
#778=COLOUR_RGB('',0.513725490196078,0.737254901960784,0.407843137254902);
#779=MANIFOLD_SOLID_BREP('Motor mount R',#770);
#780=SHAPE_DEFINITION_REPRESENTATION(#1302,#781);
#781=SHAPE_REPRESENTATION('Motor mount R',(#782),#1297);
#782=AXIS2_PLACEMENT_3D('',#1066,#856,#857);
#783=AXIS2_PLACEMENT_3D('',#1067,#858,#859);
#784=AXIS2_PLACEMENT_3D('',#1079,#865,#866);
#785=AXIS2_PLACEMENT_3D('',#1088,#871,#872);
#786=AXIS2_PLACEMENT_3D('',#1102,#879,#880);
#787=AXIS2_PLACEMENT_3D('',#1109,#884,#885);
#788=AXIS2_PLACEMENT_3D('',#1110,#886,#887);
#789=AXIS2_PLACEMENT_3D('',#1112,#888,#889);
#790=AXIS2_PLACEMENT_3D('',#1114,#890,#891);
#791=AXIS2_PLACEMENT_3D('',#1116,#892,#893);
#792=AXIS2_PLACEMENT_3D('',#1120,#896,#897);
#793=AXIS2_PLACEMENT_3D('',#1121,#898,#899);
#794=AXIS2_PLACEMENT_3D('',#1123,#900,#901);
#795=AXIS2_PLACEMENT_3D('',#1133,#906,#907);
#796=AXIS2_PLACEMENT_3D('',#1139,#911,#912);
#797=AXIS2_PLACEMENT_3D('',#1145,#916,#917);
#798=AXIS2_PLACEMENT_3D('',#1146,#918,#919);
#799=AXIS2_PLACEMENT_3D('',#1148,#920,#921);
#800=AXIS2_PLACEMENT_3D('',#1150,#922,#923);
#801=AXIS2_PLACEMENT_3D('',#1152,#924,#925);
#802=AXIS2_PLACEMENT_3D('',#1154,#926,#927);
#803=AXIS2_PLACEMENT_3D('',#1159,#929,#930);
#804=AXIS2_PLACEMENT_3D('',#1165,#933,#934);
#805=AXIS2_PLACEMENT_3D('',#1168,#936,#937);
#806=AXIS2_PLACEMENT_3D('',#1169,#938,#939);
#807=AXIS2_PLACEMENT_3D('',#1174,#942,#943);
#808=AXIS2_PLACEMENT_3D('',#1175,#944,#945);
#809=AXIS2_PLACEMENT_3D('',#1186,#946,#947);
#810=AXIS2_PLACEMENT_3D('',#1187,#948,#949);
#811=AXIS2_PLACEMENT_3D('',#1192,#952,#953);
#812=AXIS2_PLACEMENT_3D('',#1197,#957,#958);
#813=AXIS2_PLACEMENT_3D('',#1201,#961,#962);
#814=AXIS2_PLACEMENT_3D('',#1206,#966,#967);
#815=AXIS2_PLACEMENT_3D('',#1210,#970,#971);
#816=AXIS2_PLACEMENT_3D('',#1229,#972,#973);
#817=AXIS2_PLACEMENT_3D('',#1230,#974,#975);
#818=AXIS2_PLACEMENT_3D('',#1232,#976,#977);
#819=AXIS2_PLACEMENT_3D('',#1238,#980,#981);
#820=AXIS2_PLACEMENT_3D('',#1239,#982,#983);
#821=AXIS2_PLACEMENT_3D('',#1241,#984,#985);
#822=AXIS2_PLACEMENT_3D('',#1243,#986,#987);
#823=AXIS2_PLACEMENT_3D('',#1245,#988,#989);
#824=AXIS2_PLACEMENT_3D('',#1246,#990,#991);
#825=AXIS2_PLACEMENT_3D('',#1248,#992,#993);
#826=AXIS2_PLACEMENT_3D('',#1249,#994,#995);
#827=AXIS2_PLACEMENT_3D('',#1251,#996,#997);
#828=AXIS2_PLACEMENT_3D('',#1252,#998,#999);
#829=AXIS2_PLACEMENT_3D('',#1256,#1002,#1003);
#830=AXIS2_PLACEMENT_3D('',#1258,#1004,#1005);
#831=AXIS2_PLACEMENT_3D('',#1260,#1007,#1008);
#832=AXIS2_PLACEMENT_3D('',#1262,#1010,#1011);
#833=AXIS2_PLACEMENT_3D('',#1264,#1013,#1014);
#834=AXIS2_PLACEMENT_3D('',#1266,#1016,#1017);
#835=AXIS2_PLACEMENT_3D('',#1267,#1018,#1019);
#836=AXIS2_PLACEMENT_3D('',#1268,#1020,#1021);
#837=AXIS2_PLACEMENT_3D('',#1269,#1022,#1023);
#838=AXIS2_PLACEMENT_3D('',#1270,#1024,#1025);
#839=AXIS2_PLACEMENT_3D('',#1271,#1026,#1027);
#840=AXIS2_PLACEMENT_3D('',#1273,#1028,#1029);
#841=AXIS2_PLACEMENT_3D('',#1274,#1030,#1031);
#842=AXIS2_PLACEMENT_3D('',#1275,#1032,#1033);
#843=AXIS2_PLACEMENT_3D('',#1277,#1034,#1035);
#844=AXIS2_PLACEMENT_3D('',#1278,#1036,#1037);
#845=AXIS2_PLACEMENT_3D('',#1279,#1038,#1039);
#846=AXIS2_PLACEMENT_3D('',#1283,#1043,#1044);
#847=AXIS2_PLACEMENT_3D('',#1287,#1048,#1049);
#848=AXIS2_PLACEMENT_3D('',#1288,#1050,#1051);
#849=AXIS2_PLACEMENT_3D('',#1289,#1052,#1053);
#850=AXIS2_PLACEMENT_3D('',#1290,#1054,#1055);
#851=AXIS2_PLACEMENT_3D('',#1291,#1056,#1057);
#852=AXIS2_PLACEMENT_3D('',#1292,#1058,#1059);
#853=AXIS2_PLACEMENT_3D('',#1293,#1060,#1061);
#854=AXIS2_PLACEMENT_3D('',#1294,#1062,#1063);
#855=AXIS2_PLACEMENT_3D('',#1295,#1064,#1065);
#856=DIRECTION('',(0.,0.,1.));
#857=DIRECTION('',(1.,0.,0.));
#858=DIRECTION('',(1.,0.,0.));
#859=DIRECTION('',(0.,1.,0.));
#860=DIRECTION('',(0.,1.,0.));
#861=DIRECTION('',(0.,0.,1.));
#862=DIRECTION('',(0.,1.,0.));
#863=DIRECTION('',(0.,-1.84446989590035E-16,1.));
#864=DIRECTION('',(0.,-1.,0.));
#865=DIRECTION('',(-1.,0.,0.));
#866=DIRECTION('',(0.,0.,1.));
#867=DIRECTION('',(0.,-1.,0.));
#868=DIRECTION('',(0.,1.84446989590035E-16,-1.));
#869=DIRECTION('',(0.,1.,0.));
#870=DIRECTION('',(0.,0.,1.));
#871=DIRECTION('',(1.,0.,0.));
#872=DIRECTION('',(0.,0.,-1.));
#873=DIRECTION('',(0.,0.,1.));
#874=DIRECTION('',(0.,1.,0.));
#875=DIRECTION('',(0.,0.,1.));
#876=DIRECTION('',(0.,-1.,0.));
#877=DIRECTION('',(0.,-1.84446989590035E-16,1.));
#878=DIRECTION('',(0.,-1.,0.));
#879=DIRECTION('',(1.,0.,0.));
#880=DIRECTION('',(0.,0.,-1.));
#881=DIRECTION('',(0.,-1.,0.));
#882=DIRECTION('',(0.,1.84446989590035E-16,-1.));
#883=DIRECTION('',(0.,-1.,0.));
#884=DIRECTION('',(0.,0.,-1.));
#885=DIRECTION('',(-1.,0.,0.));
#886=DIRECTION('',(0.,0.,-1.));
#887=DIRECTION('',(-1.,0.,0.));
#888=DIRECTION('',(0.,0.,-1.));
#889=DIRECTION('',(-1.,0.,0.));
#890=DIRECTION('',(0.,0.,-1.));
#891=DIRECTION('',(-1.,0.,0.));
#892=DIRECTION('',(0.,0.,-1.));
#893=DIRECTION('',(-1.,0.,0.));
#894=DIRECTION('',(-1.,0.,0.));
#895=DIRECTION('',(-1.,0.,0.));
#896=DIRECTION('',(0.,0.,-1.));
#897=DIRECTION('',(1.,0.,0.));
#898=DIRECTION('',(0.,0.,-1.));
#899=DIRECTION('',(1.,0.,0.));
#900=DIRECTION('',(0.,0.,1.));
#901=DIRECTION('',(1.,0.,0.));
#902=DIRECTION('',(1.,0.,0.));
#903=DIRECTION('',(0.,-1.,0.));
#904=DIRECTION('',(1.,0.,0.));
#905=DIRECTION('',(0.,1.,0.));
#906=DIRECTION('',(0.707106781186548,0.,-0.707106781186548));
#907=DIRECTION('',(0.,1.,0.));
#908=DIRECTION('',(-0.707106781186548,0.,-0.707106781186548));
#909=DIRECTION('',(0.,-1.,0.));
#910=DIRECTION('',(0.577350269189626,-0.577350269189626,0.577350269189626));
#911=DIRECTION('',(0.70710678118655,0.,0.707106781186546));
#912=DIRECTION('',(0.,-1.,0.));
#913=DIRECTION('',(0.,1.,0.));
#914=DIRECTION('',(0.707106781186546,0.,-0.70710678118655));
#915=DIRECTION('',(0.577350269189623,0.577350269189628,-0.577350269189627));
#916=DIRECTION('',(-1.,0.,0.));
#917=DIRECTION('',(0.,0.,1.));
#918=DIRECTION('',(-1.,0.,0.));
#919=DIRECTION('',(0.,0.,1.));
#920=DIRECTION('',(-1.,0.,0.));
#921=DIRECTION('',(0.,0.,1.));
#922=DIRECTION('',(-1.,0.,0.));
#923=DIRECTION('',(0.,0.,1.));
#924=DIRECTION('',(-1.,0.,0.));
#925=DIRECTION('',(0.,0.,1.));
#926=DIRECTION('',(-1.,0.,0.));
#927=DIRECTION('',(0.,0.,1.));
#928=DIRECTION('',(0.,1.,0.));
#929=DIRECTION('',(1.,0.,0.));
#930=DIRECTION('',(0.,0.,-1.));
#931=DIRECTION('',(0.,1.,0.));
#932=DIRECTION('',(0.,0.235898100938352,0.971777796604594));
#933=DIRECTION('',(-1.,0.,0.));
#934=DIRECTION('',(0.,0.,1.));
#935=DIRECTION('',(0.,-0.235898100938353,0.971777796604594));
#936=DIRECTION('',(-1.,0.,0.));
#937=DIRECTION('',(0.,0.,1.));
#938=DIRECTION('',(-1.,0.,0.));
#939=DIRECTION('',(0.,0.,1.));
#940=DIRECTION('',(1.,0.,0.));
#941=DIRECTION('',(1.,0.,0.));
#942=DIRECTION('',(1.,0.,0.));
#943=DIRECTION('',(0.,0.,-1.));
#944=DIRECTION('',(-1.,0.,0.));
#945=DIRECTION('',(0.,0.,1.));
#946=DIRECTION('',(-1.,0.,0.));
#947=DIRECTION('',(0.,0.,1.));
#948=DIRECTION('',(1.,0.,0.));
#949=DIRECTION('',(0.,0.,-1.));
#950=DIRECTION('',(-1.,0.,0.));
#951=DIRECTION('',(-1.,0.,0.));
#952=DIRECTION('',(0.707106781186549,-0.707106781186547,-1.30423717108558E-16));
#953=DIRECTION('',(0.,1.84446989590035E-16,-1.));
#954=DIRECTION('',(-0.577350269189625,-0.577350269189626,0.577350269189626));
#955=DIRECTION('',(0.,-1.84446989590035E-16,1.));
#956=DIRECTION('',(0.577350269189625,0.577350269189626,0.577350269189626));
#957=DIRECTION('',(-0.707106781186548,-0.707106781186548,-1.30423717108558E-16));
#958=DIRECTION('',(0.,-1.84446989590035E-16,1.));
#959=DIRECTION('',(0.,1.84446989590035E-16,-1.));
#960=DIRECTION('',(0.577350269189627,-0.577350269189627,-0.577350269189624));
#961=DIRECTION('',(0.70710678118655,0.707106781186546,1.30423717108558E-16));
#962=DIRECTION('',(0.,-1.84446989590035E-16,1.));
#963=DIRECTION('',(0.,1.84446989590035E-16,-1.));
#964=DIRECTION('',(0.577350269189624,-0.577350269189627,0.577350269189627));
#965=DIRECTION('',(0.577350269189624,-0.577350269189627,-0.577350269189627));
#966=DIRECTION('',(-0.70710678118655,0.707106781186545,1.30423717108558E-16));
#967=DIRECTION('',(0.,1.84446989590035E-16,-1.));
#968=DIRECTION('',(-0.577350269189624,-0.577350269189628,-0.577350269189626));
#969=DIRECTION('',(0.,-1.84446989590035E-16,1.));
#970=DIRECTION('',(1.,0.,0.));
#971=DIRECTION('',(0.,0.,-1.));
#972=DIRECTION('',(-1.,0.,0.));
#973=DIRECTION('',(0.,0.,1.));
#974=DIRECTION('',(-1.,0.,0.));
#975=DIRECTION('',(0.,0.,1.));
#976=DIRECTION('',(-1.,0.,0.));
#977=DIRECTION('',(0.,0.,1.));
#978=DIRECTION('',(0.,-1.,0.));
#979=DIRECTION('',(0.,-1.,0.));
#980=DIRECTION('',(-1.,0.,0.));
#981=DIRECTION('',(0.,0.,1.));
#982=DIRECTION('',(1.,0.,0.));
#983=DIRECTION('',(0.,0.,1.));
#984=DIRECTION('',(-1.,0.,0.));
#985=DIRECTION('',(0.,0.,1.));
#986=DIRECTION('',(-1.,0.,0.));
#987=DIRECTION('',(0.,0.,1.));
#988=DIRECTION('',(-1.,0.,0.));
#989=DIRECTION('',(0.,0.,1.));
#990=DIRECTION('',(-1.,0.,0.));
#991=DIRECTION('',(0.,0.,1.));
#992=DIRECTION('',(-1.,0.,0.));
#993=DIRECTION('',(0.,0.,1.));
#994=DIRECTION('',(-1.,0.,0.));
#995=DIRECTION('',(0.,0.,1.));
#996=DIRECTION('',(0.,0.,-1.));
#997=DIRECTION('',(1.,0.,0.));
#998=DIRECTION('',(0.,0.,1.));
#999=DIRECTION('',(1.,0.,0.));
#1000=DIRECTION('',(1.,0.,0.));
#1001=DIRECTION('',(1.,0.,0.));
#1002=DIRECTION('',(0.,0.,-1.));
#1003=DIRECTION('',(1.,0.,0.));
#1004=DIRECTION('',(0.,-1.,-1.84446989590035E-16));
#1005=DIRECTION('',(0.,1.84446989590035E-16,-1.));
#1006=DIRECTION('',(-1.,0.,0.));
#1007=DIRECTION('',(0.,-1.,-1.84446989590035E-16));
#1008=DIRECTION('',(0.,1.84446989590035E-16,-1.));
#1009=DIRECTION('',(1.,0.,0.));
#1010=DIRECTION('',(0.707106781186549,0.,-0.707106781186547));
#1011=DIRECTION('',(0.,-1.,0.));
#1012=DIRECTION('',(-0.707106781186547,0.,-0.707106781186549));
#1013=DIRECTION('',(0.70710678118655,0.,0.707106781186546));
#1014=DIRECTION('',(0.,1.,0.));
#1015=DIRECTION('',(0.707106781186546,0.,-0.70710678118655));
#1016=DIRECTION('',(0.,0.,1.));
#1017=DIRECTION('',(1.,0.,0.));
#1018=DIRECTION('',(0.,0.,1.));
#1019=DIRECTION('',(1.,0.,0.));
#1020=DIRECTION('',(0.,0.,1.));
#1021=DIRECTION('',(1.,0.,0.));
#1022=DIRECTION('',(0.,0.,1.));
#1023=DIRECTION('',(1.,0.,0.));
#1024=DIRECTION('',(-1.,0.,0.));
#1025=DIRECTION('',(0.,0.,1.));
#1026=DIRECTION('',(-1.,0.,0.));
#1027=DIRECTION('',(0.,0.,1.));
#1028=DIRECTION('',(-1.,0.,0.));
#1029=DIRECTION('',(0.,-1.,0.));
#1030=DIRECTION('',(-1.,0.,0.));
#1031=DIRECTION('',(0.,0.,1.));
#1032=DIRECTION('',(1.,0.,0.));
#1033=DIRECTION('',(0.,0.,1.));
#1034=DIRECTION('',(-1.,0.,0.));
#1035=DIRECTION('',(0.,-1.,0.));
#1036=DIRECTION('',(-1.,0.,0.));
#1037=DIRECTION('',(0.,0.,1.));
#1038=DIRECTION('',(0.,0.,1.));
#1039=DIRECTION('',(1.,0.,0.));
#1040=DIRECTION('',(1.,0.,0.));
#1041=DIRECTION('',(-1.,0.,0.));
#1042=DIRECTION('',(1.,0.,0.));
#1043=DIRECTION('',(0.,0.,1.));
#1044=DIRECTION('',(1.,0.,0.));
#1045=DIRECTION('',(-1.,0.,0.));
#1046=DIRECTION('',(1.,0.,0.));
#1047=DIRECTION('',(1.,0.,0.));
#1048=DIRECTION('',(1.,0.,0.));
#1049=DIRECTION('',(0.,0.,-1.));
#1050=DIRECTION('',(0.,-0.971777796604594,-0.235898100938353));
#1051=DIRECTION('',(-1.,0.,0.));
#1052=DIRECTION('',(0.,-0.971777796604594,0.235898100938352));
#1053=DIRECTION('',(-1.,0.,0.));
#1054=DIRECTION('',(0.,0.707106781186548,0.707106781186548));
#1055=DIRECTION('',(-1.,0.,0.));
#1056=DIRECTION('',(0.,0.707106781186546,-0.707106781186549));
#1057=DIRECTION('',(1.,0.,0.));
#1058=DIRECTION('',(0.,-1.,0.));
#1059=DIRECTION('',(0.,0.,-1.));
#1060=DIRECTION('',(0.,-1.,0.));
#1061=DIRECTION('',(0.,0.,-1.));
#1062=DIRECTION('',(-1.,0.,0.));
#1063=DIRECTION('',(0.,0.,1.));
#1064=DIRECTION('',(-1.,0.,0.));
#1065=DIRECTION('',(0.,0.,1.));
#1066=CARTESIAN_POINT('',(0.,0.,0.));
#1067=CARTESIAN_POINT('',(0.0229,0.0635,0.000635));
#1068=CARTESIAN_POINT('',(0.0229,0.0635,-0.018174995));
#1069=CARTESIAN_POINT('',(0.0229,0.036055005,-0.018174995));
#1070=CARTESIAN_POINT('',(0.0229,0.090944995,-0.018174995));
#1071=CARTESIAN_POINT('',(0.0229,0.036055005,-0.038494995));
#1072=CARTESIAN_POINT('',(0.0229,0.036055005,-0.015634995));
#1073=CARTESIAN_POINT('',(0.0229,0.0635,-0.015634995));
#1074=CARTESIAN_POINT('',(0.0229,0.046595005,-0.015634995));
#1075=CARTESIAN_POINT('',(0.0229,0.046595005,0.019444995));
#1076=CARTESIAN_POINT('',(0.0229,0.046595005,0.011824995));
#1077=CARTESIAN_POINT('',(0.0229,0.0635,0.011824995));
#1078=CARTESIAN_POINT('',(0.0229,0.0532714829080653,0.011824995));
#1079=CARTESIAN_POINT('',(0.0229,0.0635,0.));
#1080=CARTESIAN_POINT('',(0.0229,0.0737285170919347,0.011824995));
#1081=CARTESIAN_POINT('',(0.0229,0.0635,0.011824995));
#1082=CARTESIAN_POINT('',(0.0229,0.080404995,0.011824995));
#1083=CARTESIAN_POINT('',(0.0229,0.080404995,0.000635));
#1084=CARTESIAN_POINT('',(0.0229,0.080404995,-0.015634995));
#1085=CARTESIAN_POINT('',(0.0229,0.0635,-0.015634995));
#1086=CARTESIAN_POINT('',(0.0229,0.090944995,-0.015634995));
#1087=CARTESIAN_POINT('',(0.0229,0.090944995,-0.038494995));
#1088=CARTESIAN_POINT('',(0.05084,0.0778849975,0.));
#1089=CARTESIAN_POINT('',(0.05084,0.036055005,-0.038494995));
#1090=CARTESIAN_POINT('',(0.05084,0.036055005,-0.018174995));
#1091=CARTESIAN_POINT('',(0.05084,0.036055005,-0.015634995));
#1092=CARTESIAN_POINT('',(0.05084,0.0778849975,-0.018174995));
#1093=CARTESIAN_POINT('',(0.05084,0.090944995,-0.018174995));
#1094=CARTESIAN_POINT('',(0.05084,0.090944995,-0.038494995));
#1095=CARTESIAN_POINT('',(0.05084,0.090944995,-0.015634995));
#1096=CARTESIAN_POINT('',(0.05084,0.082944995,-0.015634995));
#1097=CARTESIAN_POINT('',(0.05084,0.080404995,-0.015634995));
#1098=CARTESIAN_POINT('',(0.05084,0.080404995,0.019444995));
#1099=CARTESIAN_POINT('',(0.05084,0.080404995,0.011824995));
#1100=CARTESIAN_POINT('',(0.05084,0.0635,0.011824995));
#1101=CARTESIAN_POINT('',(0.05084,0.0737895635597422,0.011824995));
#1102=CARTESIAN_POINT('',(0.05084,0.0635,0.));
#1103=CARTESIAN_POINT('',(0.05084,0.0532104364402578,0.011824995));
#1104=CARTESIAN_POINT('',(0.05084,0.0635,0.011824995));
#1105=CARTESIAN_POINT('',(0.05084,0.046595005,0.011824995));
#1106=CARTESIAN_POINT('',(0.05084,0.046595005,-5.77134492091978E-18));
#1107=CARTESIAN_POINT('',(0.05084,0.046595005,-0.015634995));
#1108=CARTESIAN_POINT('',(0.05084,0.031355005,-0.015634995));
#1109=CARTESIAN_POINT('',(0.0229,0.0635,-0.018174995));
#1110=CARTESIAN_POINT('',(0.03052,0.086944995,-0.018174995));
#1111=CARTESIAN_POINT('',(0.02852,0.086944995,-0.018174995));
#1112=CARTESIAN_POINT('',(0.04322,0.086944995,-0.018174995));
#1113=CARTESIAN_POINT('',(0.04122,0.086944995,-0.018174995));
#1114=CARTESIAN_POINT('',(0.03052,0.040055005,-0.018174995));
#1115=CARTESIAN_POINT('',(0.02852,0.040055005,-0.018174995));
#1116=CARTESIAN_POINT('',(0.04322,0.040055005,-0.018174995));
#1117=CARTESIAN_POINT('',(0.04122,0.040055005,-0.018174995));
#1118=CARTESIAN_POINT('',(0.0229,0.036055005,-0.018174995));
#1119=CARTESIAN_POINT('',(0.0229,0.090944995,-0.018174995));
#1120=CARTESIAN_POINT('',(0.02542,0.0635,-0.013094995));
#1121=CARTESIAN_POINT('',(0.03052,0.086944995,-0.013094995));
#1122=CARTESIAN_POINT('',(0.03252,0.086944995,-0.013094995));
#1123=CARTESIAN_POINT('',(0.04322,0.086944995,-0.013094995));
#1124=CARTESIAN_POINT('',(0.04522,0.086944995,-0.013094995));
#1125=CARTESIAN_POINT('',(0.03687,0.090944995,-0.013094995));
#1126=CARTESIAN_POINT('',(0.02544,0.090944995,-0.013094995));
#1127=CARTESIAN_POINT('',(0.0483,0.090944995,-0.013094995));
#1128=CARTESIAN_POINT('',(0.02544,0.0635,-0.013094995));
#1129=CARTESIAN_POINT('',(0.02544,0.082944995,-0.013094995));
#1130=CARTESIAN_POINT('',(0.0229,0.082944995,-0.013094995));
#1131=CARTESIAN_POINT('',(0.0483,0.082944995,-0.013094995));
#1132=CARTESIAN_POINT('',(0.0483,0.095644995,-0.013094995));
#1133=CARTESIAN_POINT('',(0.0229,0.0635,-0.015634995));
#1134=CARTESIAN_POINT('',(0.0229,0.036055005,-0.015634995));
#1135=CARTESIAN_POINT('',(0.02544,0.036055005,-0.013094995));
#1136=CARTESIAN_POINT('',(0.02544,0.0635,-0.013094995));
#1137=CARTESIAN_POINT('',(0.02544,0.044055005,-0.013094995));
#1138=CARTESIAN_POINT('',(0.030016665,0.03947834,-0.00851833));
#1139=CARTESIAN_POINT('',(0.0483,0.0635,-0.013094995));
#1140=CARTESIAN_POINT('',(0.0483,0.044055005,-0.013094995));
#1141=CARTESIAN_POINT('',(0.0483,0.036055005,-0.013094995));
#1142=CARTESIAN_POINT('',(0.0483,0.044055005,-0.013094995));
#1143=CARTESIAN_POINT('',(0.0483,0.036055005,-0.013094995));
#1144=CARTESIAN_POINT('',(0.045628335,0.04138334,-0.01042333));
#1145=CARTESIAN_POINT('',(0.,0.0722775,0.));
#1146=CARTESIAN_POINT('',(0.,0.0635,0.0085));
#1147=CARTESIAN_POINT('',(0.,0.0635,0.0105));
#1148=CARTESIAN_POINT('',(0.,0.0635,-0.0085));
#1149=CARTESIAN_POINT('',(0.,0.0635,-0.0065));
#1150=CARTESIAN_POINT('',(0.,0.0635,0.));
#1151=CARTESIAN_POINT('',(0.,0.0635,0.004801));
#1152=CARTESIAN_POINT('',(0.,0.055,2.20436423846524E-18));
#1153=CARTESIAN_POINT('',(0.,0.055,0.002));
#1154=CARTESIAN_POINT('',(0.,0.072,1.22464679914735E-19));
#1155=CARTESIAN_POINT('',(0.,0.072,0.002));
#1156=CARTESIAN_POINT('',(0.,0.0683851446289705,0.011824995));
#1157=CARTESIAN_POINT('',(0.,0.0675520973890042,0.011824995));
#1158=CARTESIAN_POINT('',(0.,0.0710664037034624,0.011824995));
#1159=CARTESIAN_POINT('',(0.,0.0635,-6.93889390390723E-18));
#1160=CARTESIAN_POINT('',(0.,0.0594479026109958,0.011824995));
#1161=CARTESIAN_POINT('',(0.,0.0586148553710295,0.011824995));
#1162=CARTESIAN_POINT('',(0.,0.0559335962965376,0.011824995));
#1163=CARTESIAN_POINT('',(0.,0.0541323322437799,0.00440472156274403));
#1164=CARTESIAN_POINT('',(0.,0.0556127603568277,0.0105033173717245));
#1165=CARTESIAN_POINT('',(0.,0.0635,0.));
#1166=CARTESIAN_POINT('',(0.,0.0713872396431724,0.0105033173717245));
#1167=CARTESIAN_POINT('',(0.,0.0738445668869522,0.000380403940043732));
#1168=CARTESIAN_POINT('',(-0.00887,0.0635,0.));
#1169=CARTESIAN_POINT('',(3.99999999999983E-05,0.0635,0.));
#1170=CARTESIAN_POINT('',(3.99999999999983E-05,0.0532714829080653,0.011824995));
#1171=CARTESIAN_POINT('',(3.99999999999983E-05,0.0737285170919347,0.011824995));
#1172=CARTESIAN_POINT('',(-0.1041,0.0737285170919347,0.011824995));
#1173=CARTESIAN_POINT('',(-0.1041,0.0532714829080653,0.011824995));
#1174=CARTESIAN_POINT('',(-0.0025,0.0635,0.));
#1175=CARTESIAN_POINT('',(-0.0025,0.0635,0.));
#1176=CARTESIAN_POINT('',(-0.0025,0.0691256899399096,0.011824995));
#1177=CARTESIAN_POINT('',(-0.0025,0.0578743100600904,0.011824995));
#1178=CARTESIAN_POINT('',(-0.0025,0.0691256899399096,0.011824995));
#1179=CARTESIAN_POINT('',(-0.00180089708047539,0.0707530013156601,0.011824995));
#1180=CARTESIAN_POINT('',(-0.000917867231320835,0.0722643508557386,0.011824995));
#1181=CARTESIAN_POINT('',(4.00000000000024E-05,0.0737285170919347,0.011824995));
#1182=CARTESIAN_POINT('',(4.00000000000106E-05,0.0532714829080653,0.011824995));
#1183=CARTESIAN_POINT('',(-0.000919412395894391,0.0547380110350579,0.011824995));
#1184=CARTESIAN_POINT('',(-0.0018102366079584,0.0562687384295087,0.011824995));
#1185=CARTESIAN_POINT('',(-0.00249999999999999,0.0578743100600904,0.011824995));
#1186=CARTESIAN_POINT('',(-0.00887,0.0635,0.));
#1187=CARTESIAN_POINT('',(0.0483,0.0635,0.));
#1188=CARTESIAN_POINT('',(0.0483,0.0556127603568277,0.0105033173717245));
#1189=CARTESIAN_POINT('',(0.0483,0.0713872396431724,0.0105033173717245));
#1190=CARTESIAN_POINT('',(-0.00887,0.0713872396431723,0.0105033173717245));
#1191=CARTESIAN_POINT('',(-0.00887,0.0556127603568277,0.0105033173717245));
#1192=CARTESIAN_POINT('',(0.0229,0.080404995,0.000635));
#1193=CARTESIAN_POINT('',(0.0266299983333333,0.0841349933333334,0.00809499666666666));
#1194=CARTESIAN_POINT('',(0.02544,0.082944995,0.009284995));
#1195=CARTESIAN_POINT('',(0.02544,0.082944995,0.000635));
#1196=CARTESIAN_POINT('',(0.0283233316666667,0.0858283266666667,-0.0102116633333333));
#1197=CARTESIAN_POINT('',(0.02544,0.044055005,0.000635));
#1198=CARTESIAN_POINT('',(0.02544,0.044055005,-0.013094995));
#1199=CARTESIAN_POINT('',(0.02544,0.044055005,0.009284995));
#1200=CARTESIAN_POINT('',(0.0283233316666667,0.0411716733333334,0.00640166333333335));
#1201=CARTESIAN_POINT('',(0.0483,0.082944995,0.000635));
#1202=CARTESIAN_POINT('',(0.0483,0.082944995,-0.013094995));
#1203=CARTESIAN_POINT('',(0.0483,0.082944995,0.009284995));
#1204=CARTESIAN_POINT('',(0.0454166683333334,0.0858283266666667,0.00640166333333332));
#1205=CARTESIAN_POINT('',(0.0437233350000001,0.08752166,-0.00851833));
#1206=CARTESIAN_POINT('',(0.05084,0.046595005,-5.77134492091978E-18));
#1207=CARTESIAN_POINT('',(0.046898335,0.04265334,0.00788333));
#1208=CARTESIAN_POINT('',(0.0483,0.044055005,0.009284995));
#1209=CARTESIAN_POINT('',(0.0483,0.044055005,0.000635));
#1210=CARTESIAN_POINT('',(0.05084,0.0635,0.));
#1211=CARTESIAN_POINT('',(0.05084,0.0737895635597422,0.011824995));
#1212=CARTESIAN_POINT('',(0.0502566250773248,0.0729008570699246,0.011824995));
#1213=CARTESIAN_POINT('',(0.0497047628963878,0.0719963383574513,0.011824995));
#1214=CARTESIAN_POINT('',(0.0492035530505745,0.0710664037034624,0.011824995));
#1215=CARTESIAN_POINT('',(0.0492035530505745,0.0710664037034624,0.011824995));
#1216=CARTESIAN_POINT('',(0.0492035530505745,0.0710664037034624,0.011824995));
#1217=CARTESIAN_POINT('',(0.0488939620536967,0.0711720315418607,0.0113898631034288));
#1218=CARTESIAN_POINT('',(0.0485919644364342,0.0712788494013167,0.0109498289374595));
#1219=CARTESIAN_POINT('',(0.0483,0.0713872396431723,0.0105033173717245));
#1220=CARTESIAN_POINT('',(0.0483,0.0556127603568277,0.0105033173717245));
#1221=CARTESIAN_POINT('',(0.0485919644364341,0.0557211505986833,0.0109498289374594));
#1222=CARTESIAN_POINT('',(0.0488939620536944,0.0558279684581385,0.0113898631034256));
#1223=CARTESIAN_POINT('',(0.0492035530505721,0.0559335962965368,0.0118249949999967));
#1224=CARTESIAN_POINT('',(0.0492035530505728,0.0559335962965408,0.011824995));
#1225=CARTESIAN_POINT('',(0.0492035530505728,0.0559335962965408,0.011824995));
#1226=CARTESIAN_POINT('',(0.0497052781669528,0.055002705619919,0.011824995));
#1227=CARTESIAN_POINT('',(0.0502571374151115,0.0540983624407223,0.011824995));
#1228=CARTESIAN_POINT('',(0.05084,0.0532104364402578,0.011824995));
#1229=CARTESIAN_POINT('',(-0.0025,0.0738449975,0.));
#1230=CARTESIAN_POINT('',(-0.0025,0.0635,0.0085));
#1231=CARTESIAN_POINT('',(-0.0025,0.0635,0.0105));
#1232=CARTESIAN_POINT('',(-0.0025,0.0635,-0.0085));
#1233=CARTESIAN_POINT('',(-0.0025,0.0635,-0.0065));
#1234=CARTESIAN_POINT('',(-0.0025,0.0738449975,0.011824995));
#1235=CARTESIAN_POINT('',(-0.0025,0.0675520973890042,0.011824995));
#1236=CARTESIAN_POINT('',(-0.0025,0.0738449975,0.011824995));
#1237=CARTESIAN_POINT('',(-0.0025,0.0594479026109958,0.011824995));
#1238=CARTESIAN_POINT('',(-0.0025,0.0635,-6.93889390390723E-18));
#1239=CARTESIAN_POINT('',(-0.0025,0.055,1.83697019872103E-19));
#1240=CARTESIAN_POINT('',(-0.0025,0.055,0.003));
#1241=CARTESIAN_POINT('',(-0.0025,0.072,1.83697019872103E-19));
#1242=CARTESIAN_POINT('',(-0.0025,0.072,0.003));
#1243=CARTESIAN_POINT('',(-0.0025,0.0635,0.));
#1244=CARTESIAN_POINT('',(-0.0025,0.0635,0.004801));
#1245=CARTESIAN_POINT('',(0.0229,0.055,2.20436423846524E-18));
#1246=CARTESIAN_POINT('',(-0.0015,0.055,2.20436423846524E-18));
#1247=CARTESIAN_POINT('',(-0.0015,0.055,0.002));
#1248=CARTESIAN_POINT('',(0.0229,0.072,1.22464679914735E-19));
#1249=CARTESIAN_POINT('',(-0.0015,0.072,1.22464679914735E-19));
#1250=CARTESIAN_POINT('',(-0.0015,0.072,0.002));
#1251=CARTESIAN_POINT('',(0.02542,0.0635,-0.013094995));
#1252=CARTESIAN_POINT('',(0.03052,0.040055005,-0.013094995));
#1253=CARTESIAN_POINT('',(0.03252,0.040055005,-0.013094995));
#1254=CARTESIAN_POINT('',(0.03687,0.036055005,-0.013094995));
#1255=CARTESIAN_POINT('',(0.0229,0.044055005,-0.013094995));
#1256=CARTESIAN_POINT('',(0.04322,0.040055005,-0.013094995));
#1257=CARTESIAN_POINT('',(0.04522,0.040055005,-0.013094995));
#1258=CARTESIAN_POINT('',(0.0229,0.044055005,0.000635));
#1259=CARTESIAN_POINT('',(0.0229,0.044055005,0.009284995));
#1260=CARTESIAN_POINT('',(0.0229,0.082944995,0.000635));
#1261=CARTESIAN_POINT('',(0.0483,0.082944995,0.009284995));
#1262=CARTESIAN_POINT('',(0.02544,0.0635,-0.013094995));
#1263=CARTESIAN_POINT('',(0.02544,0.090944995,-0.013094995));
#1264=CARTESIAN_POINT('',(0.05084,0.0778849975,-0.015634995));
#1265=CARTESIAN_POINT('',(0.05084,0.090944995,-0.015634995));
#1266=CARTESIAN_POINT('',(0.03052,0.040055005,-0.038494995));
#1267=CARTESIAN_POINT('',(0.04322,0.040055005,-0.038494995));
#1268=CARTESIAN_POINT('',(0.04322,0.086944995,-0.038494995));
#1269=CARTESIAN_POINT('',(0.03052,0.086944995,-0.038494995));
#1270=CARTESIAN_POINT('',(-0.0015,0.072,1.83697019872103E-19));
#1271=CARTESIAN_POINT('',(-0.0015,0.072,1.83697019872103E-19));
#1272=CARTESIAN_POINT('',(-0.0015,0.072,0.003));
#1273=CARTESIAN_POINT('',(-0.0015,0.0635,0.));
#1274=CARTESIAN_POINT('',(-0.0015,0.055,1.83697019872103E-19));
#1275=CARTESIAN_POINT('',(-0.0015,0.055,1.83697019872103E-19));
#1276=CARTESIAN_POINT('',(-0.0015,0.055,0.003));
#1277=CARTESIAN_POINT('',(-0.0015,0.0635,0.));
#1278=CARTESIAN_POINT('',(-0.00887,0.0635,0.));
#1279=CARTESIAN_POINT('',(0.03687,0.0635,0.011824995));
#1280=CARTESIAN_POINT('',(0.0483,0.0710664037034624,0.011824995));
#1281=CARTESIAN_POINT('',(0.02544,0.080404995,0.011824995));
#1282=CARTESIAN_POINT('',(-0.0254,0.0675520973890042,0.011824995));
#1283=CARTESIAN_POINT('',(0.03687,0.0635,0.011824995));
#1284=CARTESIAN_POINT('',(0.,0.0559335962965376,0.011824995));
#1285=CARTESIAN_POINT('',(-0.0254,0.0594479026109958,0.011824995));
#1286=CARTESIAN_POINT('',(0.03687,0.046595005,0.011824995));
#1287=CARTESIAN_POINT('',(-0.0254,0.0635,-6.93889390390723E-18));
#1288=CARTESIAN_POINT('',(-0.00887,0.0710664037034624,0.011824995));
#1289=CARTESIAN_POINT('',(-0.00887,0.0559335962965376,0.011824995));
#1290=CARTESIAN_POINT('',(0.0229,0.082944995,0.009284995));
#1291=CARTESIAN_POINT('',(0.03687,0.046595005,0.011824995));
#1292=CARTESIAN_POINT('',(0.03687,0.036055005,-0.038494995));
#1293=CARTESIAN_POINT('',(0.03687,0.090944995,-0.038494995));
#1294=CARTESIAN_POINT('',(0.0229,0.0635,-0.0085));
#1295=CARTESIAN_POINT('',(0.0229,0.0635,0.0085));
#1296=MECHANICAL_DESIGN_GEOMETRIC_PRESENTATION_REPRESENTATION('',(#771),#1297);
#1297=(
GEOMETRIC_REPRESENTATION_CONTEXT(3)
GLOBAL_UNCERTAINTY_ASSIGNED_CONTEXT((#1298))
GLOBAL_UNIT_ASSIGNED_CONTEXT((#1301,#1300,#1299))
REPRESENTATION_CONTEXT('Motor mount R','TOP_LEVEL_ASSEMBLY_PART')
);
#1298=UNCERTAINTY_MEASURE_WITH_UNIT(LENGTH_MEASURE(2.E-05),#1301,'DISTANCE_ACCURACY_VALUE','Maximum Tolerance applied to model');
#1299=(
NAMED_UNIT(*)
SI_UNIT($,.STERADIAN.)
SOLID_ANGLE_UNIT()
);
#1300=(
NAMED_UNIT(*)
PLANE_ANGLE_UNIT()
SI_UNIT($,.RADIAN.)
);
#1301=(
LENGTH_UNIT()
NAMED_UNIT(*)
SI_UNIT($,.METRE.)
);
#1302=PRODUCT_DEFINITION_SHAPE('','',#1303);
#1303=PRODUCT_DEFINITION('','',#1305,#1304);
#1304=PRODUCT_DEFINITION_CONTEXT('',#1311,'design');
#1305=PRODUCT_DEFINITION_FORMATION_WITH_SPECIFIED_SOURCE('','',#1307,.NOT_KNOWN.);
#1306=PRODUCT_RELATED_PRODUCT_CATEGORY('','',(#1307));
#1307=PRODUCT('Motor mount R','Motor mount R','Motor mount R',(#1309));
#1308=PRODUCT_CATEGORY('','');
#1309=PRODUCT_CONTEXT('',#1311,'mechanical');
#1310=APPLICATION_PROTOCOL_DEFINITION('international standard','ap242_managed_model_based_3d_engineering',2020,#1311);
#1311=APPLICATION_CONTEXT('managed model based 3d engineering');
ENDSEC;
END-ISO-10303-21;
