ISO-10303-21;
HEADER;
/*Generated by software containing ST-Developer
 * from STEP Tools, Inc. (www.steptools.com) 
 */
/*OPTION: using custom renumber hook */
/*description */
/*implementation_level */
FILE_DESCRIPTION(('STEP AP242 Edition 2','STEP AP242 Edition 2''CAx-IF Rec.Pracs.---Representation and Presentation of Product Manufa
cturing Information (PMI)---4.0---2014-10-13','STEP AP242 Edition 2''CAx-IF Rec.Pracs.---Representation and Presentation of Product Manufa
cturing Information (PMI)---4.0---2014-10-13''CAx-IF Rec.Pracs.---3D Tessellated Geometry---0.4---2014-09-14','STEP AP242 Edition 2''CAx-IF Rec.Pracs.---Representation and Presentation of Product Manufa
cturing Information (PMI)---4.0---2014-10-13''CAx-IF Rec.Pracs.---3D Tessellated Geometry---0.4---2014-09-14''2;1','STEP AP242 Edition 2''CAx-IF Rec.Pracs.---Representation and Presentation of Product Manufa
cturing Information (PMI)---4.0---2014-10-13''CAx-IF Rec.Pracs.---3D Tessellated Geometry---0.4---2014-09-14''2;1''CAx-IF Rec.Pracs.---User Defined Attributes---1.5---2016-08-15'),'2;1');
/*name */
/*time_stamp */
/*author */
/*organization */
/*preprocessor_version */
/*originating_system */
/*authorisation */
FILE_NAME('/vol/tmp/translate-677748572749218790/Motor&Mount&Wheel - Motor mount L.step','2026-03-09T15:32:25',(''),(''),'ST-DEVELOPER v20','ONSHAPE BY PTC INC, 1.211','  ');
FILE_SCHEMA(('AP242_MANAGED_MODEL_BASED_3D_ENGINEERING_MIM_LF { 1 0 10303 442 3 1 4 }'));
ENDSEC;
DATA;
#10=SHAPE_REPRESENTATION_RELATIONSHIP('','',#781,#11);
#11=ADVANCED_BREP_SHAPE_REPRESENTATION('',(#779),#1297);
#12=B_SPLINE_CURVE_WITH_KNOTS('',3,(#1184,#1185,#1186,#1187),.UNSPECIFIED.,.F.,.F.,(4,4),(0.00524102649292218,0.0105330540531368),.UNSPECIFIED.);
#13=B_SPLINE_CURVE_WITH_KNOTS('',3,(#1188,#1189,#1190,#1191),.UNSPECIFIED.,.F.,.F.,(4,4),(0.00641051552062989,0.0116663147327463),.UNSPECIFIED.);
#14=B_SPLINE_CURVE_WITH_KNOTS('',3,(#1217,#1218,#1219,#1220),.UNSPECIFIED.,.F.,.F.,(4,4),(1.26702344144249E-06,0.00316912172651439),.UNSPECIFIED.);
#15=B_SPLINE_CURVE_WITH_KNOTS('',3,(#1222,#1223,#1224,#1225),.UNSPECIFIED.,.F.,.F.,(4,4),(1.73472347597681E-18,0.00163284278744032),.UNSPECIFIED.);
#16=B_SPLINE_CURVE_WITH_KNOTS('',3,(#1226,#1227,#1228,#1229),.UNSPECIFIED.,.F.,.F.,(4,4),(1.73472347597681E-18,0.00163284278744001),.UNSPECIFIED.);
#17=B_SPLINE_CURVE_WITH_KNOTS('',3,(#1231,#1232,#1233,#1234),.UNSPECIFIED.,.F.,.F.,(4,4),(0.0190113668293929,0.0221681907855314),.UNSPECIFIED.);
#18=CONICAL_SURFACE('',#811,0.013094995,0.785398163397448);
#19=CONICAL_SURFACE('',#819,0.015675,0.785398163397448);
#20=LINE('',#1078,#82);
#21=LINE('',#1081,#83);
#22=LINE('',#1083,#84);
#23=LINE('',#1085,#85);
#24=LINE('',#1087,#86);
#25=LINE('',#1091,#87);
#26=LINE('',#1093,#88);
#27=LINE('',#1095,#89);
#28=LINE('',#1097,#90);
#29=LINE('',#1099,#91);
#30=LINE('',#1102,#92);
#31=LINE('',#1104,#93);
#32=LINE('',#1106,#94);
#33=LINE('',#1108,#95);
#34=LINE('',#1110,#96);
#35=LINE('',#1114,#97);
#36=LINE('',#1116,#98);
#37=LINE('',#1118,#99);
#38=LINE('',#1128,#100);
#39=LINE('',#1129,#101);
#40=LINE('',#1135,#102);
#41=LINE('',#1138,#103);
#42=LINE('',#1140,#104);
#43=LINE('',#1142,#105);
#44=LINE('',#1144,#106);
#45=LINE('',#1146,#107);
#46=LINE('',#1148,#108);
#47=LINE('',#1150,#109);
#48=LINE('',#1153,#110);
#49=LINE('',#1154,#111);
#50=LINE('',#1156,#112);
#51=LINE('',#1161,#113);
#52=LINE('',#1163,#114);
#53=LINE('',#1167,#115);
#54=LINE('',#1178,#116);
#55=LINE('',#1179,#117);
#56=LINE('',#1196,#118);
#57=LINE('',#1197,#119);
#58=LINE('',#1199,#120);
#59=LINE('',#1201,#121);
#60=LINE('',#1202,#122);
#61=LINE('',#1204,#123);
#62=LINE('',#1206,#124);
#63=LINE('',#1208,#125);
#64=LINE('',#1210,#126);
#65=LINE('',#1211,#127);
#66=LINE('',#1213,#128);
#67=LINE('',#1215,#129);
#68=LINE('',#1244,#130);
#69=LINE('',#1246,#131);
#70=LINE('',#1254,#132);
#71=LINE('',#1255,#133);
#72=LINE('',#1259,#134);
#73=LINE('',#1261,#135);
#74=LINE('',#1263,#136);
#75=LINE('',#1265,#137);
#76=LINE('',#1272,#138);
#77=LINE('',#1273,#139);
#78=LINE('',#1274,#140);
#79=LINE('',#1276,#141);
#80=LINE('',#1277,#142);
#81=LINE('',#1278,#143);
#82=VECTOR('',#872,1.);
#83=VECTOR('',#873,1.);
#84=VECTOR('',#874,1.);
#85=VECTOR('',#875,1.);
#86=VECTOR('',#876,1.);
#87=VECTOR('',#879,1.);
#88=VECTOR('',#880,1.);
#89=VECTOR('',#881,1.);
#90=VECTOR('',#882,1.);
#91=VECTOR('',#885,1.);
#92=VECTOR('',#886,1.);
#93=VECTOR('',#887,1.);
#94=VECTOR('',#888,1.);
#95=VECTOR('',#889,1.);
#96=VECTOR('',#890,1.);
#97=VECTOR('',#893,1.);
#98=VECTOR('',#894,1.);
#99=VECTOR('',#895,1.);
#100=VECTOR('',#906,1.);
#101=VECTOR('',#907,1.);
#102=VECTOR('',#914,1.);
#103=VECTOR('',#915,1.);
#104=VECTOR('',#916,1.);
#105=VECTOR('',#917,1.);
#106=VECTOR('',#920,1.);
#107=VECTOR('',#921,1.);
#108=VECTOR('',#922,1.);
#109=VECTOR('',#925,1.);
#110=VECTOR('',#926,1.);
#111=VECTOR('',#927,1.);
#112=VECTOR('',#930,1.);
#113=VECTOR('',#933,1.);
#114=VECTOR('',#934,1.);
#115=VECTOR('',#937,1.);
#116=VECTOR('',#948,1.);
#117=VECTOR('',#949,1.);
#118=VECTOR('',#958,1.);
#119=VECTOR('',#959,1.);
#120=VECTOR('',#962,1.);
#121=VECTOR('',#963,1.);
#122=VECTOR('',#964,1.);
#123=VECTOR('',#967,1.);
#124=VECTOR('',#968,1.);
#125=VECTOR('',#971,1.);
#126=VECTOR('',#972,1.);
#127=VECTOR('',#973,1.);
#128=VECTOR('',#976,1.);
#129=VECTOR('',#977,1.);
#130=VECTOR('',#990,1.);
#131=VECTOR('',#991,1.);
#132=VECTOR('',#1000,1.);
#133=VECTOR('',#1001,1.);
#134=VECTOR('',#1006,1.);
#135=VECTOR('',#1009,1.);
#136=VECTOR('',#1012,1.);
#137=VECTOR('',#1015,1.);
#138=VECTOR('',#1028,1.);
#139=VECTOR('',#1029,1.);
#140=VECTOR('',#1030,1.);
#141=VECTOR('',#1033,1.);
#142=VECTOR('',#1034,1.);
#143=VECTOR('',#1035,1.);
#144=PLANE('',#789);
#145=PLANE('',#791);
#146=PLANE('',#793);
#147=PLANE('',#798);
#148=PLANE('',#801);
#149=PLANE('',#802);
#150=PLANE('',#803);
#151=PLANE('',#815);
#152=PLANE('',#816);
#153=PLANE('',#817);
#154=PLANE('',#818);
#155=PLANE('',#820);
#156=PLANE('',#827);
#157=PLANE('',#830);
#158=PLANE('',#831);
#159=PLANE('',#832);
#160=PLANE('',#833);
#161=PLANE('',#839);
#162=PLANE('',#840);
#163=PLANE('',#842);
#164=PLANE('',#843);
#165=PLANE('',#844);
#166=PLANE('',#845);
#167=PLANE('',#846);
#168=PLANE('',#847);
#169=PLANE('',#852);
#170=PLANE('',#855);
#171=ORIENTED_EDGE('',*,*,#367,.F.);
#172=ORIENTED_EDGE('',*,*,#368,.T.);
#173=ORIENTED_EDGE('',*,*,#369,.F.);
#174=ORIENTED_EDGE('',*,*,#370,.T.);
#175=ORIENTED_EDGE('',*,*,#371,.F.);
#176=ORIENTED_EDGE('',*,*,#372,.T.);
#177=ORIENTED_EDGE('',*,*,#373,.T.);
#178=ORIENTED_EDGE('',*,*,#374,.T.);
#179=ORIENTED_EDGE('',*,*,#375,.F.);
#180=ORIENTED_EDGE('',*,*,#376,.F.);
#181=ORIENTED_EDGE('',*,*,#377,.F.);
#182=ORIENTED_EDGE('',*,*,#378,.T.);
#183=ORIENTED_EDGE('',*,*,#379,.T.);
#184=ORIENTED_EDGE('',*,*,#380,.F.);
#185=ORIENTED_EDGE('',*,*,#381,.F.);
#186=ORIENTED_EDGE('',*,*,#382,.T.);
#187=ORIENTED_EDGE('',*,*,#383,.T.);
#188=ORIENTED_EDGE('',*,*,#384,.T.);
#189=ORIENTED_EDGE('',*,*,#385,.T.);
#190=ORIENTED_EDGE('',*,*,#386,.T.);
#191=ORIENTED_EDGE('',*,*,#387,.T.);
#192=ORIENTED_EDGE('',*,*,#388,.T.);
#193=ORIENTED_EDGE('',*,*,#389,.T.);
#194=ORIENTED_EDGE('',*,*,#390,.T.);
#195=ORIENTED_EDGE('',*,*,#391,.T.);
#196=ORIENTED_EDGE('',*,*,#392,.F.);
#197=ORIENTED_EDGE('',*,*,#393,.F.);
#198=ORIENTED_EDGE('',*,*,#394,.T.);
#199=ORIENTED_EDGE('',*,*,#382,.F.);
#200=ORIENTED_EDGE('',*,*,#395,.T.);
#201=ORIENTED_EDGE('',*,*,#371,.T.);
#202=ORIENTED_EDGE('',*,*,#396,.F.);
#203=ORIENTED_EDGE('',*,*,#397,.T.);
#204=ORIENTED_EDGE('',*,*,#398,.F.);
#205=ORIENTED_EDGE('',*,*,#399,.F.);
#206=ORIENTED_EDGE('',*,*,#400,.T.);
#207=ORIENTED_EDGE('',*,*,#401,.T.);
#208=ORIENTED_EDGE('',*,*,#402,.T.);
#209=ORIENTED_EDGE('',*,*,#373,.F.);
#210=ORIENTED_EDGE('',*,*,#403,.T.);
#211=ORIENTED_EDGE('',*,*,#404,.F.);
#212=ORIENTED_EDGE('',*,*,#405,.F.);
#213=ORIENTED_EDGE('',*,*,#406,.F.);
#214=ORIENTED_EDGE('',*,*,#407,.T.);
#215=ORIENTED_EDGE('',*,*,#390,.F.);
#216=ORIENTED_EDGE('',*,*,#408,.F.);
#217=ORIENTED_EDGE('',*,*,#369,.T.);
#218=ORIENTED_EDGE('',*,*,#367,.T.);
#219=ORIENTED_EDGE('',*,*,#409,.F.);
#220=ORIENTED_EDGE('',*,*,#410,.T.);
#221=ORIENTED_EDGE('',*,*,#411,.F.);
#222=ORIENTED_EDGE('',*,*,#412,.T.);
#223=ORIENTED_EDGE('',*,*,#413,.F.);
#224=ORIENTED_EDGE('',*,*,#414,.T.);
#225=ORIENTED_EDGE('',*,*,#415,.T.);
#226=ORIENTED_EDGE('',*,*,#416,.T.);
#227=ORIENTED_EDGE('',*,*,#417,.T.);
#228=ORIENTED_EDGE('',*,*,#418,.T.);
#229=ORIENTED_EDGE('',*,*,#419,.T.);
#230=ORIENTED_EDGE('',*,*,#376,.T.);
#231=ORIENTED_EDGE('',*,*,#420,.F.);
#232=ORIENTED_EDGE('',*,*,#421,.F.);
#233=ORIENTED_EDGE('',*,*,#422,.T.);
#234=ORIENTED_EDGE('',*,*,#418,.F.);
#235=ORIENTED_EDGE('',*,*,#423,.T.);
#236=ORIENTED_EDGE('',*,*,#424,.T.);
#237=ORIENTED_EDGE('',*,*,#425,.T.);
#238=ORIENTED_EDGE('',*,*,#413,.T.);
#239=ORIENTED_EDGE('',*,*,#426,.T.);
#240=ORIENTED_EDGE('',*,*,#378,.F.);
#241=ORIENTED_EDGE('',*,*,#427,.T.);
#242=ORIENTED_EDGE('',*,*,#428,.F.);
#243=ORIENTED_EDGE('',*,*,#429,.T.);
#244=ORIENTED_EDGE('',*,*,#430,.F.);
#245=ORIENTED_EDGE('',*,*,#431,.T.);
#246=ORIENTED_EDGE('',*,*,#374,.F.);
#247=ORIENTED_EDGE('',*,*,#405,.T.);
#248=ORIENTED_EDGE('',*,*,#432,.F.);
#249=ORIENTED_EDGE('',*,*,#433,.T.);
#250=ORIENTED_EDGE('',*,*,#385,.F.);
#251=ORIENTED_EDGE('',*,*,#434,.T.);
#252=ORIENTED_EDGE('',*,*,#389,.F.);
#253=ORIENTED_EDGE('',*,*,#435,.T.);
#254=ORIENTED_EDGE('',*,*,#436,.F.);
#255=ORIENTED_EDGE('',*,*,#408,.T.);
#256=ORIENTED_EDGE('',*,*,#437,.T.);
#257=ORIENTED_EDGE('',*,*,#438,.T.);
#258=ORIENTED_EDGE('',*,*,#424,.F.);
#259=ORIENTED_EDGE('',*,*,#439,.T.);
#260=ORIENTED_EDGE('',*,*,#440,.T.);
#261=ORIENTED_EDGE('',*,*,#387,.F.);
#262=ORIENTED_EDGE('',*,*,#441,.F.);
#263=ORIENTED_EDGE('',*,*,#442,.F.);
#264=ORIENTED_EDGE('',*,*,#443,.F.);
#265=ORIENTED_EDGE('',*,*,#444,.F.);
#266=ORIENTED_EDGE('',*,*,#445,.F.);
#267=ORIENTED_EDGE('',*,*,#421,.T.);
#268=ORIENTED_EDGE('',*,*,#446,.F.);
#269=ORIENTED_EDGE('',*,*,#447,.T.);
#270=ORIENTED_EDGE('',*,*,#448,.F.);
#271=ORIENTED_EDGE('',*,*,#449,.F.);
#272=ORIENTED_EDGE('',*,*,#404,.T.);
#273=ORIENTED_EDGE('',*,*,#450,.T.);
#274=ORIENTED_EDGE('',*,*,#406,.T.);
#275=ORIENTED_EDGE('',*,*,#451,.F.);
#276=ORIENTED_EDGE('',*,*,#452,.T.);
#277=ORIENTED_EDGE('',*,*,#436,.T.);
#278=ORIENTED_EDGE('',*,*,#453,.T.);
#279=ORIENTED_EDGE('',*,*,#430,.T.);
#280=ORIENTED_EDGE('',*,*,#451,.T.);
#281=ORIENTED_EDGE('',*,*,#428,.T.);
#282=ORIENTED_EDGE('',*,*,#454,.T.);
#283=ORIENTED_EDGE('',*,*,#432,.T.);
#284=ORIENTED_EDGE('',*,*,#401,.F.);
#285=ORIENTED_EDGE('',*,*,#455,.F.);
#286=ORIENTED_EDGE('',*,*,#379,.F.);
#287=ORIENTED_EDGE('',*,*,#429,.F.);
#288=ORIENTED_EDGE('',*,*,#400,.F.);
#289=ORIENTED_EDGE('',*,*,#456,.F.);
#290=ORIENTED_EDGE('',*,*,#402,.F.);
#291=ORIENTED_EDGE('',*,*,#434,.F.);
#292=ORIENTED_EDGE('',*,*,#384,.F.);
#293=ORIENTED_EDGE('',*,*,#393,.T.);
#294=ORIENTED_EDGE('',*,*,#449,.T.);
#295=ORIENTED_EDGE('',*,*,#394,.F.);
#296=ORIENTED_EDGE('',*,*,#452,.F.);
#297=ORIENTED_EDGE('',*,*,#392,.T.);
#298=ORIENTED_EDGE('',*,*,#398,.T.);
#299=ORIENTED_EDGE('',*,*,#391,.F.);
#300=ORIENTED_EDGE('',*,*,#397,.F.);
#301=ORIENTED_EDGE('',*,*,#415,.F.);
#302=ORIENTED_EDGE('',*,*,#448,.T.);
#303=ORIENTED_EDGE('',*,*,#409,.T.);
#304=ORIENTED_EDGE('',*,*,#457,.T.);
#305=ORIENTED_EDGE('',*,*,#437,.F.);
#306=ORIENTED_EDGE('',*,*,#386,.F.);
#307=ORIENTED_EDGE('',*,*,#458,.T.);
#308=ORIENTED_EDGE('',*,*,#377,.T.);
#309=ORIENTED_EDGE('',*,*,#419,.F.);
#310=ORIENTED_EDGE('',*,*,#422,.F.);
#311=ORIENTED_EDGE('',*,*,#445,.T.);
#312=ORIENTED_EDGE('',*,*,#459,.T.);
#313=ORIENTED_EDGE('',*,*,#440,.F.);
#314=ORIENTED_EDGE('',*,*,#460,.T.);
#315=ORIENTED_EDGE('',*,*,#411,.T.);
#316=ORIENTED_EDGE('',*,*,#461,.F.);
#317=ORIENTED_EDGE('',*,*,#446,.T.);
#318=ORIENTED_EDGE('',*,*,#423,.F.);
#319=ORIENTED_EDGE('',*,*,#420,.T.);
#320=ORIENTED_EDGE('',*,*,#375,.T.);
#321=ORIENTED_EDGE('',*,*,#462,.T.);
#322=ORIENTED_EDGE('',*,*,#388,.F.);
#323=ORIENTED_EDGE('',*,*,#461,.T.);
#324=ORIENTED_EDGE('',*,*,#410,.F.);
#325=ORIENTED_EDGE('',*,*,#459,.F.);
#326=ORIENTED_EDGE('',*,*,#447,.F.);
#327=ORIENTED_EDGE('',*,*,#414,.F.);
#328=ORIENTED_EDGE('',*,*,#425,.F.);
#329=ORIENTED_EDGE('',*,*,#438,.F.);
#330=ORIENTED_EDGE('',*,*,#457,.F.);
#331=ORIENTED_EDGE('',*,*,#439,.F.);
#332=ORIENTED_EDGE('',*,*,#426,.F.);
#333=ORIENTED_EDGE('',*,*,#412,.F.);
#334=ORIENTED_EDGE('',*,*,#460,.F.);
#335=ORIENTED_EDGE('',*,*,#427,.F.);
#336=ORIENTED_EDGE('',*,*,#458,.F.);
#337=ORIENTED_EDGE('',*,*,#433,.F.);
#338=ORIENTED_EDGE('',*,*,#454,.F.);
#339=ORIENTED_EDGE('',*,*,#431,.F.);
#340=ORIENTED_EDGE('',*,*,#453,.F.);
#341=ORIENTED_EDGE('',*,*,#435,.F.);
#342=ORIENTED_EDGE('',*,*,#462,.F.);
#343=ORIENTED_EDGE('',*,*,#381,.T.);
#344=ORIENTED_EDGE('',*,*,#407,.F.);
#345=ORIENTED_EDGE('',*,*,#450,.F.);
#346=ORIENTED_EDGE('',*,*,#403,.F.);
#347=ORIENTED_EDGE('',*,*,#372,.F.);
#348=ORIENTED_EDGE('',*,*,#395,.F.);
#349=ORIENTED_EDGE('',*,*,#396,.T.);
#350=ORIENTED_EDGE('',*,*,#380,.T.);
#351=ORIENTED_EDGE('',*,*,#455,.T.);
#352=ORIENTED_EDGE('',*,*,#399,.T.);
#353=ORIENTED_EDGE('',*,*,#456,.T.);
#354=ORIENTED_EDGE('',*,*,#383,.F.);
#355=ORIENTED_EDGE('',*,*,#444,.T.);
#356=ORIENTED_EDGE('',*,*,#416,.F.);
#357=ORIENTED_EDGE('',*,*,#443,.T.);
#358=ORIENTED_EDGE('',*,*,#417,.F.);
#359=ORIENTED_EDGE('',*,*,#463,.F.);
#360=ORIENTED_EDGE('',*,*,#442,.T.);
#361=ORIENTED_EDGE('',*,*,#463,.T.);
#362=ORIENTED_EDGE('',*,*,#370,.F.);
#363=ORIENTED_EDGE('',*,*,#464,.F.);
#364=ORIENTED_EDGE('',*,*,#441,.T.);
#365=ORIENTED_EDGE('',*,*,#464,.T.);
#366=ORIENTED_EDGE('',*,*,#368,.F.);
#367=EDGE_CURVE('',#465,#465,#535,.T.);
#368=EDGE_CURVE('',#466,#466,#536,.T.);
#369=EDGE_CURVE('',#467,#467,#537,.T.);
#370=EDGE_CURVE('',#468,#468,#538,.T.);
#371=EDGE_CURVE('',#469,#470,#20,.T.);
#372=EDGE_CURVE('',#469,#471,#21,.T.);
#373=EDGE_CURVE('',#471,#472,#22,.T.);
#374=EDGE_CURVE('',#472,#473,#23,.T.);
#375=EDGE_CURVE('',#474,#473,#24,.T.);
#376=EDGE_CURVE('',#475,#474,#539,.T.);
#377=EDGE_CURVE('',#476,#475,#25,.T.);
#378=EDGE_CURVE('',#476,#477,#26,.T.);
#379=EDGE_CURVE('',#477,#478,#27,.T.);
#380=EDGE_CURVE('',#470,#478,#28,.T.);
#381=EDGE_CURVE('',#479,#480,#29,.T.);
#382=EDGE_CURVE('',#479,#481,#30,.T.);
#383=EDGE_CURVE('',#481,#482,#31,.T.);
#384=EDGE_CURVE('',#482,#483,#32,.T.);
#385=EDGE_CURVE('',#483,#484,#33,.T.);
#386=EDGE_CURVE('',#484,#485,#34,.T.);
#387=EDGE_CURVE('',#485,#486,#540,.F.);
#388=EDGE_CURVE('',#486,#487,#35,.T.);
#389=EDGE_CURVE('',#487,#488,#36,.T.);
#390=EDGE_CURVE('',#488,#480,#37,.T.);
#391=EDGE_CURVE('',#489,#489,#541,.F.);
#392=EDGE_CURVE('',#490,#490,#542,.T.);
#393=EDGE_CURVE('',#491,#491,#543,.T.);
#394=EDGE_CURVE('',#492,#492,#544,.F.);
#395=EDGE_CURVE('',#479,#469,#38,.T.);
#396=EDGE_CURVE('',#481,#470,#39,.T.);
#397=EDGE_CURVE('',#493,#493,#545,.T.);
#398=EDGE_CURVE('',#494,#494,#546,.T.);
#399=EDGE_CURVE('',#495,#496,#40,.T.);
#400=EDGE_CURVE('',#495,#497,#41,.T.);
#401=EDGE_CURVE('',#497,#498,#42,.T.);
#402=EDGE_CURVE('',#498,#496,#43,.T.);
#403=EDGE_CURVE('',#471,#499,#44,.F.);
#404=EDGE_CURVE('',#500,#499,#45,.T.);
#405=EDGE_CURVE('',#472,#500,#46,.T.);
#406=EDGE_CURVE('',#501,#502,#47,.T.);
#407=EDGE_CURVE('',#501,#480,#48,.T.);
#408=EDGE_CURVE('',#502,#488,#49,.T.);
#409=EDGE_CURVE('',#503,#504,#50,.T.);
#410=EDGE_CURVE('',#503,#505,#547,.T.);
#411=EDGE_CURVE('',#506,#505,#51,.T.);
#412=EDGE_CURVE('',#506,#507,#52,.F.);
#413=EDGE_CURVE('',#508,#507,#548,.T.);
#414=EDGE_CURVE('',#508,#504,#53,.T.);
#415=EDGE_CURVE('',#509,#509,#549,.T.);
#416=EDGE_CURVE('',#510,#510,#550,.T.);
#417=EDGE_CURVE('',#511,#511,#551,.T.);
#418=EDGE_CURVE('',#512,#513,#552,.F.);
#419=EDGE_CURVE('',#513,#475,#54,.T.);
#420=EDGE_CURVE('',#512,#474,#55,.T.);
#421=EDGE_CURVE('',#514,#515,#553,.T.);
#422=EDGE_CURVE('',#514,#513,#12,.T.);
#423=EDGE_CURVE('',#512,#515,#13,.T.);
#424=EDGE_CURVE('',#516,#517,#554,.T.);
#425=EDGE_CURVE('',#517,#508,#56,.T.);
#426=EDGE_CURVE('',#507,#516,#57,.F.);
#427=EDGE_CURVE('',#476,#518,#58,.F.);
#428=EDGE_CURVE('',#497,#518,#59,.T.);
#429=EDGE_CURVE('',#497,#477,#60,.F.);
#430=EDGE_CURVE('',#519,#500,#61,.T.);
#431=EDGE_CURVE('',#519,#473,#62,.F.);
#432=EDGE_CURVE('',#520,#498,#63,.T.);
#433=EDGE_CURVE('',#520,#484,#64,.T.);
#434=EDGE_CURVE('',#483,#498,#65,.F.);
#435=EDGE_CURVE('',#487,#521,#66,.T.);
#436=EDGE_CURVE('',#502,#521,#67,.T.);
#437=EDGE_CURVE('',#485,#522,#14,.T.);
#438=EDGE_CURVE('',#522,#517,#15,.T.);
#439=EDGE_CURVE('',#516,#523,#16,.T.);
#440=EDGE_CURVE('',#523,#486,#17,.T.);
#441=EDGE_CURVE('',#524,#524,#555,.T.);
#442=EDGE_CURVE('',#525,#525,#556,.T.);
#443=EDGE_CURVE('',#526,#526,#557,.T.);
#444=EDGE_CURVE('',#527,#527,#558,.T.);
#445=EDGE_CURVE('',#514,#528,#68,.T.);
#446=EDGE_CURVE('',#529,#515,#69,.T.);
#447=EDGE_CURVE('',#529,#528,#559,.T.);
#448=EDGE_CURVE('',#530,#530,#560,.T.);
#449=EDGE_CURVE('',#531,#531,#561,.T.);
#450=EDGE_CURVE('',#499,#501,#70,.T.);
#451=EDGE_CURVE('',#500,#502,#71,.T.);
#452=EDGE_CURVE('',#532,#532,#562,.T.);
#453=EDGE_CURVE('',#521,#519,#72,.T.);
#454=EDGE_CURVE('',#518,#520,#73,.T.);
#455=EDGE_CURVE('',#478,#495,#74,.F.);
#456=EDGE_CURVE('',#496,#482,#75,.T.);
#457=EDGE_CURVE('',#504,#522,#76,.T.);
#458=EDGE_CURVE('',#484,#476,#77,.T.);
#459=EDGE_CURVE('',#528,#503,#78,.T.);
#460=EDGE_CURVE('',#523,#506,#79,.T.);
#461=EDGE_CURVE('',#529,#505,#80,.T.);
#462=EDGE_CURVE('',#473,#487,#81,.T.);
#463=EDGE_CURVE('',#533,#533,#563,.T.);
#464=EDGE_CURVE('',#534,#534,#564,.T.);
#465=VERTEX_POINT('',#1069);
#466=VERTEX_POINT('',#1071);
#467=VERTEX_POINT('',#1074);
#468=VERTEX_POINT('',#1076);
#469=VERTEX_POINT('',#1079);
#470=VERTEX_POINT('',#1080);
#471=VERTEX_POINT('',#1082);
#472=VERTEX_POINT('',#1084);
#473=VERTEX_POINT('',#1086);
#474=VERTEX_POINT('',#1088);
#475=VERTEX_POINT('',#1090);
#476=VERTEX_POINT('',#1092);
#477=VERTEX_POINT('',#1094);
#478=VERTEX_POINT('',#1096);
#479=VERTEX_POINT('',#1100);
#480=VERTEX_POINT('',#1101);
#481=VERTEX_POINT('',#1103);
#482=VERTEX_POINT('',#1105);
#483=VERTEX_POINT('',#1107);
#484=VERTEX_POINT('',#1109);
#485=VERTEX_POINT('',#1111);
#486=VERTEX_POINT('',#1113);
#487=VERTEX_POINT('',#1115);
#488=VERTEX_POINT('',#1117);
#489=VERTEX_POINT('',#1121);
#490=VERTEX_POINT('',#1123);
#491=VERTEX_POINT('',#1125);
#492=VERTEX_POINT('',#1127);
#493=VERTEX_POINT('',#1132);
#494=VERTEX_POINT('',#1134);
#495=VERTEX_POINT('',#1136);
#496=VERTEX_POINT('',#1137);
#497=VERTEX_POINT('',#1139);
#498=VERTEX_POINT('',#1141);
#499=VERTEX_POINT('',#1145);
#500=VERTEX_POINT('',#1147);
#501=VERTEX_POINT('',#1151);
#502=VERTEX_POINT('',#1152);
#503=VERTEX_POINT('',#1157);
#504=VERTEX_POINT('',#1158);
#505=VERTEX_POINT('',#1160);
#506=VERTEX_POINT('',#1162);
#507=VERTEX_POINT('',#1164);
#508=VERTEX_POINT('',#1166);
#509=VERTEX_POINT('',#1169);
#510=VERTEX_POINT('',#1171);
#511=VERTEX_POINT('',#1173);
#512=VERTEX_POINT('',#1176);
#513=VERTEX_POINT('',#1177);
#514=VERTEX_POINT('',#1182);
#515=VERTEX_POINT('',#1183);
#516=VERTEX_POINT('',#1194);
#517=VERTEX_POINT('',#1195);
#518=VERTEX_POINT('',#1200);
#519=VERTEX_POINT('',#1205);
#520=VERTEX_POINT('',#1209);
#521=VERTEX_POINT('',#1214);
#522=VERTEX_POINT('',#1221);
#523=VERTEX_POINT('',#1230);
#524=VERTEX_POINT('',#1237);
#525=VERTEX_POINT('',#1239);
#526=VERTEX_POINT('',#1241);
#527=VERTEX_POINT('',#1243);
#528=VERTEX_POINT('',#1245);
#529=VERTEX_POINT('',#1247);
#530=VERTEX_POINT('',#1250);
#531=VERTEX_POINT('',#1253);
#532=VERTEX_POINT('',#1257);
#533=VERTEX_POINT('',#1290);
#534=VERTEX_POINT('',#1294);
#535=CIRCLE('',#784,0.002);
#536=CIRCLE('',#785,0.002);
#537=CIRCLE('',#787,0.002);
#538=CIRCLE('',#788,0.002);
#539=CIRCLE('',#790,0.015634995);
#540=CIRCLE('',#792,0.015675);
#541=CIRCLE('',#794,0.002);
#542=CIRCLE('',#795,0.002);
#543=CIRCLE('',#796,0.002);
#544=CIRCLE('',#797,0.002);
#545=CIRCLE('',#799,0.002);
#546=CIRCLE('',#800,0.002);
#547=CIRCLE('',#804,0.0125);
#548=CIRCLE('',#805,0.013135);
#549=CIRCLE('',#806,0.004801);
#550=CIRCLE('',#807,0.002);
#551=CIRCLE('',#808,0.002);
#552=CIRCLE('',#810,0.015634995);
#553=CIRCLE('',#812,0.013094995);
#554=CIRCLE('',#814,0.013135);
#555=CIRCLE('',#821,0.003);
#556=CIRCLE('',#822,0.003);
#557=CIRCLE('',#823,0.002);
#558=CIRCLE('',#824,0.002);
#559=CIRCLE('',#825,0.0125);
#560=CIRCLE('',#826,0.004801);
#561=CIRCLE('',#828,0.002);
#562=CIRCLE('',#829,0.002);
#563=CIRCLE('',#851,0.003);
#564=CIRCLE('',#854,0.003);
#565=EDGE_LOOP('',(#171));
#566=EDGE_LOOP('',(#172));
#567=EDGE_LOOP('',(#173));
#568=EDGE_LOOP('',(#174));
#569=EDGE_LOOP('',(#175,#176,#177,#178,#179,#180,#181,#182,#183,#184));
#570=EDGE_LOOP('',(#185,#186,#187,#188,#189,#190,#191,#192,#193,#194));
#571=EDGE_LOOP('',(#195));
#572=EDGE_LOOP('',(#196));
#573=EDGE_LOOP('',(#197));
#574=EDGE_LOOP('',(#198));
#575=EDGE_LOOP('',(#199,#200,#201,#202));
#576=EDGE_LOOP('',(#203));
#577=EDGE_LOOP('',(#204));
#578=EDGE_LOOP('',(#205,#206,#207,#208));
#579=EDGE_LOOP('',(#209,#210,#211,#212));
#580=EDGE_LOOP('',(#213,#214,#215,#216));
#581=EDGE_LOOP('',(#217));
#582=EDGE_LOOP('',(#218));
#583=EDGE_LOOP('',(#219,#220,#221,#222,#223,#224));
#584=EDGE_LOOP('',(#225));
#585=EDGE_LOOP('',(#226));
#586=EDGE_LOOP('',(#227));
#587=EDGE_LOOP('',(#228,#229,#230,#231));
#588=EDGE_LOOP('',(#232,#233,#234,#235));
#589=EDGE_LOOP('',(#236,#237,#238,#239));
#590=EDGE_LOOP('',(#240,#241,#242,#243));
#591=EDGE_LOOP('',(#244,#245,#246,#247));
#592=EDGE_LOOP('',(#248,#249,#250,#251));
#593=EDGE_LOOP('',(#252,#253,#254,#255));
#594=EDGE_LOOP('',(#256,#257,#258,#259,#260,#261));
#595=EDGE_LOOP('',(#262));
#596=EDGE_LOOP('',(#263));
#597=EDGE_LOOP('',(#264));
#598=EDGE_LOOP('',(#265));
#599=EDGE_LOOP('',(#266,#267,#268,#269));
#600=EDGE_LOOP('',(#270));
#601=EDGE_LOOP('',(#271));
#602=EDGE_LOOP('',(#272,#273,#274,#275));
#603=EDGE_LOOP('',(#276));
#604=EDGE_LOOP('',(#277,#278,#279,#280));
#605=EDGE_LOOP('',(#281,#282,#283,#284));
#606=EDGE_LOOP('',(#285,#286,#287,#288));
#607=EDGE_LOOP('',(#289,#290,#291,#292));
#608=EDGE_LOOP('',(#293));
#609=EDGE_LOOP('',(#294));
#610=EDGE_LOOP('',(#295));
#611=EDGE_LOOP('',(#296));
#612=EDGE_LOOP('',(#297));
#613=EDGE_LOOP('',(#298));
#614=EDGE_LOOP('',(#299));
#615=EDGE_LOOP('',(#300));
#616=EDGE_LOOP('',(#301));
#617=EDGE_LOOP('',(#302));
#618=EDGE_LOOP('',(#303,#304,#305,#306,#307,#308,#309,#310,#311,#312));
#619=EDGE_LOOP('',(#313,#314,#315,#316,#317,#318,#319,#320,#321,#322));
#620=EDGE_LOOP('',(#323,#324,#325,#326));
#621=EDGE_LOOP('',(#327,#328,#329,#330));
#622=EDGE_LOOP('',(#331,#332,#333,#334));
#623=EDGE_LOOP('',(#335,#336,#337,#338));
#624=EDGE_LOOP('',(#339,#340,#341,#342));
#625=EDGE_LOOP('',(#343,#344,#345,#346,#347,#348));
#626=EDGE_LOOP('',(#349,#350,#351,#352,#353,#354));
#627=EDGE_LOOP('',(#355));
#628=EDGE_LOOP('',(#356));
#629=EDGE_LOOP('',(#357));
#630=EDGE_LOOP('',(#358));
#631=EDGE_LOOP('',(#359));
#632=EDGE_LOOP('',(#360));
#633=EDGE_LOOP('',(#361));
#634=EDGE_LOOP('',(#362));
#635=EDGE_LOOP('',(#363));
#636=EDGE_LOOP('',(#364));
#637=EDGE_LOOP('',(#365));
#638=EDGE_LOOP('',(#366));
#639=FACE_BOUND('',#565,.T.);
#640=FACE_BOUND('',#566,.T.);
#641=FACE_BOUND('',#567,.T.);
#642=FACE_BOUND('',#568,.T.);
#643=FACE_BOUND('',#569,.T.);
#644=FACE_BOUND('',#570,.T.);
#645=FACE_BOUND('',#571,.T.);
#646=FACE_BOUND('',#572,.T.);
#647=FACE_BOUND('',#573,.T.);
#648=FACE_BOUND('',#574,.T.);
#649=FACE_BOUND('',#575,.T.);
#650=FACE_BOUND('',#576,.T.);
#651=FACE_BOUND('',#577,.T.);
#652=FACE_BOUND('',#578,.T.);
#653=FACE_BOUND('',#579,.T.);
#654=FACE_BOUND('',#580,.T.);
#655=FACE_BOUND('',#581,.T.);
#656=FACE_BOUND('',#582,.T.);
#657=FACE_BOUND('',#583,.T.);
#658=FACE_BOUND('',#584,.T.);
#659=FACE_BOUND('',#585,.T.);
#660=FACE_BOUND('',#586,.T.);
#661=FACE_BOUND('',#587,.T.);
#662=FACE_BOUND('',#588,.T.);
#663=FACE_BOUND('',#589,.T.);
#664=FACE_BOUND('',#590,.T.);
#665=FACE_BOUND('',#591,.T.);
#666=FACE_BOUND('',#592,.T.);
#667=FACE_BOUND('',#593,.T.);
#668=FACE_BOUND('',#594,.T.);
#669=FACE_BOUND('',#595,.T.);
#670=FACE_BOUND('',#596,.T.);
#671=FACE_BOUND('',#597,.T.);
#672=FACE_BOUND('',#598,.T.);
#673=FACE_BOUND('',#599,.T.);
#674=FACE_BOUND('',#600,.T.);
#675=FACE_BOUND('',#601,.T.);
#676=FACE_BOUND('',#602,.T.);
#677=FACE_BOUND('',#603,.T.);
#678=FACE_BOUND('',#604,.T.);
#679=FACE_BOUND('',#605,.T.);
#680=FACE_BOUND('',#606,.T.);
#681=FACE_BOUND('',#607,.T.);
#682=FACE_BOUND('',#608,.T.);
#683=FACE_BOUND('',#609,.T.);
#684=FACE_BOUND('',#610,.T.);
#685=FACE_BOUND('',#611,.T.);
#686=FACE_BOUND('',#612,.T.);
#687=FACE_BOUND('',#613,.T.);
#688=FACE_BOUND('',#614,.T.);
#689=FACE_BOUND('',#615,.T.);
#690=FACE_BOUND('',#616,.T.);
#691=FACE_BOUND('',#617,.T.);
#692=FACE_BOUND('',#618,.T.);
#693=FACE_BOUND('',#619,.T.);
#694=FACE_BOUND('',#620,.T.);
#695=FACE_BOUND('',#621,.T.);
#696=FACE_BOUND('',#622,.T.);
#697=FACE_BOUND('',#623,.T.);
#698=FACE_BOUND('',#624,.T.);
#699=FACE_BOUND('',#625,.T.);
#700=FACE_BOUND('',#626,.T.);
#701=FACE_BOUND('',#627,.T.);
#702=FACE_BOUND('',#628,.T.);
#703=FACE_BOUND('',#629,.T.);
#704=FACE_BOUND('',#630,.T.);
#705=FACE_BOUND('',#631,.T.);
#706=FACE_BOUND('',#632,.T.);
#707=FACE_BOUND('',#633,.T.);
#708=FACE_BOUND('',#634,.T.);
#709=FACE_BOUND('',#635,.T.);
#710=FACE_BOUND('',#636,.T.);
#711=FACE_BOUND('',#637,.T.);
#712=FACE_BOUND('',#638,.T.);
#713=CYLINDRICAL_SURFACE('',#783,0.002);
#714=CYLINDRICAL_SURFACE('',#786,0.002);
#715=CYLINDRICAL_SURFACE('',#809,0.015634995);
#716=CYLINDRICAL_SURFACE('',#813,0.013135);
#717=CYLINDRICAL_SURFACE('',#834,0.002);
#718=CYLINDRICAL_SURFACE('',#835,0.002);
#719=CYLINDRICAL_SURFACE('',#836,0.002);
#720=CYLINDRICAL_SURFACE('',#837,0.002);
#721=CYLINDRICAL_SURFACE('',#838,0.004801);
#722=CYLINDRICAL_SURFACE('',#841,0.0125);
#723=CYLINDRICAL_SURFACE('',#848,0.002);
#724=CYLINDRICAL_SURFACE('',#849,0.002);
#725=CYLINDRICAL_SURFACE('',#850,0.003);
#726=CYLINDRICAL_SURFACE('',#853,0.003);
#727=ADVANCED_FACE('',(#639,#640),#713,.F.);
#728=ADVANCED_FACE('',(#641,#642),#714,.F.);
#729=ADVANCED_FACE('',(#643),#144,.F.);
#730=ADVANCED_FACE('',(#644),#145,.T.);
#731=ADVANCED_FACE('',(#645,#646,#647,#648,#649),#146,.T.);
#732=ADVANCED_FACE('',(#650,#651,#652),#147,.F.);
#733=ADVANCED_FACE('',(#653),#148,.F.);
#734=ADVANCED_FACE('',(#654),#149,.T.);
#735=ADVANCED_FACE('',(#655,#656,#657,#658,#659,#660),#150,.F.);
#736=ADVANCED_FACE('',(#661),#715,.T.);
#737=ADVANCED_FACE('',(#662),#18,.T.);
#738=ADVANCED_FACE('',(#663),#716,.F.);
#739=ADVANCED_FACE('',(#664),#151,.F.);
#740=ADVANCED_FACE('',(#665),#152,.T.);
#741=ADVANCED_FACE('',(#666),#153,.T.);
#742=ADVANCED_FACE('',(#667),#154,.F.);
#743=ADVANCED_FACE('',(#668),#19,.F.);
#744=ADVANCED_FACE('',(#669,#670,#671,#672,#673,#674),#155,.T.);
#745=ADVANCED_FACE('',(#675,#676,#677),#156,.F.);
#746=ADVANCED_FACE('',(#678),#157,.T.);
#747=ADVANCED_FACE('',(#679),#158,.F.);
#748=ADVANCED_FACE('',(#680),#159,.F.);
#749=ADVANCED_FACE('',(#681),#160,.T.);
#750=ADVANCED_FACE('',(#682,#683),#717,.F.);
#751=ADVANCED_FACE('',(#684,#685),#718,.F.);
#752=ADVANCED_FACE('',(#686,#687),#719,.F.);
#753=ADVANCED_FACE('',(#688,#689),#720,.F.);
#754=ADVANCED_FACE('',(#690,#691),#721,.F.);
#755=ADVANCED_FACE('',(#692),#161,.T.);
#756=ADVANCED_FACE('',(#693),#162,.T.);
#757=ADVANCED_FACE('',(#694),#722,.T.);
#758=ADVANCED_FACE('',(#695),#163,.T.);
#759=ADVANCED_FACE('',(#696),#164,.F.);
#760=ADVANCED_FACE('',(#697),#165,.T.);
#761=ADVANCED_FACE('',(#698),#166,.F.);
#762=ADVANCED_FACE('',(#699),#167,.T.);
#763=ADVANCED_FACE('',(#700),#168,.F.);
#764=ADVANCED_FACE('',(#701,#702),#723,.F.);
#765=ADVANCED_FACE('',(#703,#704),#724,.F.);
#766=ADVANCED_FACE('',(#705,#706),#725,.F.);
#767=ADVANCED_FACE('',(#707,#708),#169,.T.);
#768=ADVANCED_FACE('',(#709,#710),#726,.F.);
#769=ADVANCED_FACE('',(#711,#712),#170,.T.);
#770=CLOSED_SHELL('',(#727,#728,#729,#730,#731,#732,#733,#734,#735,#736,#737,#738,#739,#740,#741,#742,#743,#744,#745,#746,#747,#748,#749,#750,#751,#752,#753,#754,#755,#756,#757,#758,#759,#760,#761,#762,#763,#764,#765,#766,#767,#768,#769));
#771=STYLED_ITEM('',(#772),#779);
#772=PRESENTATION_STYLE_ASSIGNMENT((#773));
#773=SURFACE_STYLE_USAGE(.BOTH.,#774);
#774=SURFACE_SIDE_STYLE('',(#775));
#775=SURFACE_STYLE_FILL_AREA(#776);
#776=FILL_AREA_STYLE('',(#777));
#777=FILL_AREA_STYLE_COLOUR('',#778);
#778=COLOUR_RGB('',0.972549019607843,0.529411764705882,0.00392156862745098);
#779=MANIFOLD_SOLID_BREP('Motor mount L',#770);
#780=SHAPE_DEFINITION_REPRESENTATION(#1302,#781);
#781=SHAPE_REPRESENTATION('Motor mount L',(#782),#1297);
#782=AXIS2_PLACEMENT_3D('',#1066,#856,#857);
#783=AXIS2_PLACEMENT_3D('',#1067,#858,#859);
#784=AXIS2_PLACEMENT_3D('',#1068,#860,#861);
#785=AXIS2_PLACEMENT_3D('',#1070,#862,#863);
#786=AXIS2_PLACEMENT_3D('',#1072,#864,#865);
#787=AXIS2_PLACEMENT_3D('',#1073,#866,#867);
#788=AXIS2_PLACEMENT_3D('',#1075,#868,#869);
#789=AXIS2_PLACEMENT_3D('',#1077,#870,#871);
#790=AXIS2_PLACEMENT_3D('',#1089,#877,#878);
#791=AXIS2_PLACEMENT_3D('',#1098,#883,#884);
#792=AXIS2_PLACEMENT_3D('',#1112,#891,#892);
#793=AXIS2_PLACEMENT_3D('',#1119,#896,#897);
#794=AXIS2_PLACEMENT_3D('',#1120,#898,#899);
#795=AXIS2_PLACEMENT_3D('',#1122,#900,#901);
#796=AXIS2_PLACEMENT_3D('',#1124,#902,#903);
#797=AXIS2_PLACEMENT_3D('',#1126,#904,#905);
#798=AXIS2_PLACEMENT_3D('',#1130,#908,#909);
#799=AXIS2_PLACEMENT_3D('',#1131,#910,#911);
#800=AXIS2_PLACEMENT_3D('',#1133,#912,#913);
#801=AXIS2_PLACEMENT_3D('',#1143,#918,#919);
#802=AXIS2_PLACEMENT_3D('',#1149,#923,#924);
#803=AXIS2_PLACEMENT_3D('',#1155,#928,#929);
#804=AXIS2_PLACEMENT_3D('',#1159,#931,#932);
#805=AXIS2_PLACEMENT_3D('',#1165,#935,#936);
#806=AXIS2_PLACEMENT_3D('',#1168,#938,#939);
#807=AXIS2_PLACEMENT_3D('',#1170,#940,#941);
#808=AXIS2_PLACEMENT_3D('',#1172,#942,#943);
#809=AXIS2_PLACEMENT_3D('',#1174,#944,#945);
#810=AXIS2_PLACEMENT_3D('',#1175,#946,#947);
#811=AXIS2_PLACEMENT_3D('',#1180,#950,#951);
#812=AXIS2_PLACEMENT_3D('',#1181,#952,#953);
#813=AXIS2_PLACEMENT_3D('',#1192,#954,#955);
#814=AXIS2_PLACEMENT_3D('',#1193,#956,#957);
#815=AXIS2_PLACEMENT_3D('',#1198,#960,#961);
#816=AXIS2_PLACEMENT_3D('',#1203,#965,#966);
#817=AXIS2_PLACEMENT_3D('',#1207,#969,#970);
#818=AXIS2_PLACEMENT_3D('',#1212,#974,#975);
#819=AXIS2_PLACEMENT_3D('',#1216,#978,#979);
#820=AXIS2_PLACEMENT_3D('',#1235,#980,#981);
#821=AXIS2_PLACEMENT_3D('',#1236,#982,#983);
#822=AXIS2_PLACEMENT_3D('',#1238,#984,#985);
#823=AXIS2_PLACEMENT_3D('',#1240,#986,#987);
#824=AXIS2_PLACEMENT_3D('',#1242,#988,#989);
#825=AXIS2_PLACEMENT_3D('',#1248,#992,#993);
#826=AXIS2_PLACEMENT_3D('',#1249,#994,#995);
#827=AXIS2_PLACEMENT_3D('',#1251,#996,#997);
#828=AXIS2_PLACEMENT_3D('',#1252,#998,#999);
#829=AXIS2_PLACEMENT_3D('',#1256,#1002,#1003);
#830=AXIS2_PLACEMENT_3D('',#1258,#1004,#1005);
#831=AXIS2_PLACEMENT_3D('',#1260,#1007,#1008);
#832=AXIS2_PLACEMENT_3D('',#1262,#1010,#1011);
#833=AXIS2_PLACEMENT_3D('',#1264,#1013,#1014);
#834=AXIS2_PLACEMENT_3D('',#1266,#1016,#1017);
#835=AXIS2_PLACEMENT_3D('',#1267,#1018,#1019);
#836=AXIS2_PLACEMENT_3D('',#1268,#1020,#1021);
#837=AXIS2_PLACEMENT_3D('',#1269,#1022,#1023);
#838=AXIS2_PLACEMENT_3D('',#1270,#1024,#1025);
#839=AXIS2_PLACEMENT_3D('',#1271,#1026,#1027);
#840=AXIS2_PLACEMENT_3D('',#1275,#1031,#1032);
#841=AXIS2_PLACEMENT_3D('',#1279,#1036,#1037);
#842=AXIS2_PLACEMENT_3D('',#1280,#1038,#1039);
#843=AXIS2_PLACEMENT_3D('',#1281,#1040,#1041);
#844=AXIS2_PLACEMENT_3D('',#1282,#1042,#1043);
#845=AXIS2_PLACEMENT_3D('',#1283,#1044,#1045);
#846=AXIS2_PLACEMENT_3D('',#1284,#1046,#1047);
#847=AXIS2_PLACEMENT_3D('',#1285,#1048,#1049);
#848=AXIS2_PLACEMENT_3D('',#1286,#1050,#1051);
#849=AXIS2_PLACEMENT_3D('',#1287,#1052,#1053);
#850=AXIS2_PLACEMENT_3D('',#1288,#1054,#1055);
#851=AXIS2_PLACEMENT_3D('',#1289,#1056,#1057);
#852=AXIS2_PLACEMENT_3D('',#1291,#1058,#1059);
#853=AXIS2_PLACEMENT_3D('',#1292,#1060,#1061);
#854=AXIS2_PLACEMENT_3D('',#1293,#1062,#1063);
#855=AXIS2_PLACEMENT_3D('',#1295,#1064,#1065);
#856=DIRECTION('',(0.,0.,1.));
#857=DIRECTION('',(1.,0.,0.));
#858=DIRECTION('',(-1.,0.,0.));
#859=DIRECTION('',(0.,0.,1.));
#860=DIRECTION('',(-1.,0.,0.));
#861=DIRECTION('',(0.,0.,1.));
#862=DIRECTION('',(-1.,0.,0.));
#863=DIRECTION('',(0.,0.,1.));
#864=DIRECTION('',(-1.,0.,0.));
#865=DIRECTION('',(0.,0.,1.));
#866=DIRECTION('',(-1.,0.,0.));
#867=DIRECTION('',(0.,0.,1.));
#868=DIRECTION('',(-1.,0.,0.));
#869=DIRECTION('',(0.,0.,1.));
#870=DIRECTION('',(1.,0.,0.));
#871=DIRECTION('',(0.,1.,0.));
#872=DIRECTION('',(0.,1.,0.));
#873=DIRECTION('',(0.,0.,1.));
#874=DIRECTION('',(0.,1.,0.));
#875=DIRECTION('',(0.,-1.84446989590035E-16,1.));
#876=DIRECTION('',(0.,-1.,0.));
#877=DIRECTION('',(-1.,0.,0.));
#878=DIRECTION('',(0.,0.,1.));
#879=DIRECTION('',(0.,-1.,0.));
#880=DIRECTION('',(0.,1.84446989590035E-16,-1.));
#881=DIRECTION('',(0.,1.,0.));
#882=DIRECTION('',(0.,0.,1.));
#883=DIRECTION('',(1.,0.,0.));
#884=DIRECTION('',(0.,0.,-1.));
#885=DIRECTION('',(0.,0.,1.));
#886=DIRECTION('',(0.,1.,0.));
#887=DIRECTION('',(0.,0.,1.));
#888=DIRECTION('',(0.,-1.,0.));
#889=DIRECTION('',(0.,-1.84446989590035E-16,1.));
#890=DIRECTION('',(0.,-1.,0.));
#891=DIRECTION('',(1.,0.,0.));
#892=DIRECTION('',(0.,0.,-1.));
#893=DIRECTION('',(0.,-1.,0.));
#894=DIRECTION('',(0.,1.84446989590035E-16,-1.));
#895=DIRECTION('',(0.,-1.,0.));
#896=DIRECTION('',(0.,0.,-1.));
#897=DIRECTION('',(-1.,0.,0.));
#898=DIRECTION('',(0.,0.,-1.));
#899=DIRECTION('',(-1.,0.,0.));
#900=DIRECTION('',(0.,0.,-1.));
#901=DIRECTION('',(-1.,0.,0.));
#902=DIRECTION('',(0.,0.,-1.));
#903=DIRECTION('',(-1.,0.,0.));
#904=DIRECTION('',(0.,0.,-1.));
#905=DIRECTION('',(-1.,0.,0.));
#906=DIRECTION('',(-1.,0.,0.));
#907=DIRECTION('',(-1.,0.,0.));
#908=DIRECTION('',(0.,0.,-1.));
#909=DIRECTION('',(1.,0.,0.));
#910=DIRECTION('',(0.,0.,-1.));
#911=DIRECTION('',(1.,0.,0.));
#912=DIRECTION('',(0.,0.,1.));
#913=DIRECTION('',(1.,0.,0.));
#914=DIRECTION('',(1.,0.,0.));
#915=DIRECTION('',(0.,-1.,0.));
#916=DIRECTION('',(1.,0.,0.));
#917=DIRECTION('',(0.,1.,0.));
#918=DIRECTION('',(0.707106781186548,0.,-0.707106781186548));
#919=DIRECTION('',(0.,1.,0.));
#920=DIRECTION('',(-0.707106781186548,0.,-0.707106781186548));
#921=DIRECTION('',(0.,-1.,0.));
#922=DIRECTION('',(0.577350269189626,-0.577350269189626,0.577350269189626));
#923=DIRECTION('',(0.70710678118655,0.,0.707106781186546));
#924=DIRECTION('',(0.,-1.,0.));
#925=DIRECTION('',(0.,1.,0.));
#926=DIRECTION('',(0.707106781186546,0.,-0.70710678118655));
#927=DIRECTION('',(0.577350269189623,0.577350269189628,-0.577350269189627));
#928=DIRECTION('',(-1.,0.,0.));
#929=DIRECTION('',(0.,0.,1.));
#930=DIRECTION('',(0.,1.,0.));
#931=DIRECTION('',(1.,0.,0.));
#932=DIRECTION('',(0.,0.,-1.));
#933=DIRECTION('',(0.,1.,0.));
#934=DIRECTION('',(0.,0.235898100938352,0.971777796604594));
#935=DIRECTION('',(-1.,0.,0.));
#936=DIRECTION('',(0.,0.,1.));
#937=DIRECTION('',(0.,-0.235898100938353,0.971777796604594));
#938=DIRECTION('',(-1.,0.,0.));
#939=DIRECTION('',(0.,0.,1.));
#940=DIRECTION('',(-1.,0.,0.));
#941=DIRECTION('',(0.,0.,1.));
#942=DIRECTION('',(-1.,0.,0.));
#943=DIRECTION('',(0.,0.,1.));
#944=DIRECTION('',(-1.,0.,0.));
#945=DIRECTION('',(0.,0.,1.));
#946=DIRECTION('',(-1.,0.,0.));
#947=DIRECTION('',(0.,0.,1.));
#948=DIRECTION('',(1.,0.,0.));
#949=DIRECTION('',(1.,0.,0.));
#950=DIRECTION('',(1.,0.,0.));
#951=DIRECTION('',(0.,0.,-1.));
#952=DIRECTION('',(-1.,0.,0.));
#953=DIRECTION('',(0.,0.,1.));
#954=DIRECTION('',(-1.,0.,0.));
#955=DIRECTION('',(0.,0.,1.));
#956=DIRECTION('',(1.,0.,0.));
#957=DIRECTION('',(0.,0.,-1.));
#958=DIRECTION('',(-1.,0.,0.));
#959=DIRECTION('',(-1.,0.,0.));
#960=DIRECTION('',(0.707106781186549,-0.707106781186547,-1.30423717108558E-16));
#961=DIRECTION('',(0.,1.84446989590035E-16,-1.));
#962=DIRECTION('',(-0.577350269189625,-0.577350269189626,0.577350269189626));
#963=DIRECTION('',(0.,-1.84446989590035E-16,1.));
#964=DIRECTION('',(0.577350269189625,0.577350269189626,0.577350269189626));
#965=DIRECTION('',(-0.707106781186548,-0.707106781186548,-1.30423717108558E-16));
#966=DIRECTION('',(0.,-1.84446989590035E-16,1.));
#967=DIRECTION('',(0.,1.84446989590035E-16,-1.));
#968=DIRECTION('',(0.577350269189627,-0.577350269189627,-0.577350269189624));
#969=DIRECTION('',(0.70710678118655,0.707106781186546,1.30423717108558E-16));
#970=DIRECTION('',(0.,-1.84446989590035E-16,1.));
#971=DIRECTION('',(0.,1.84446989590035E-16,-1.));
#972=DIRECTION('',(0.577350269189624,-0.577350269189627,0.577350269189627));
#973=DIRECTION('',(0.577350269189624,-0.577350269189627,-0.577350269189627));
#974=DIRECTION('',(-0.70710678118655,0.707106781186545,1.30423717108558E-16));
#975=DIRECTION('',(0.,1.84446989590035E-16,-1.));
#976=DIRECTION('',(-0.577350269189624,-0.577350269189628,-0.577350269189626));
#977=DIRECTION('',(0.,-1.84446989590035E-16,1.));
#978=DIRECTION('',(1.,0.,0.));
#979=DIRECTION('',(0.,0.,-1.));
#980=DIRECTION('',(-1.,0.,0.));
#981=DIRECTION('',(0.,0.,1.));
#982=DIRECTION('',(-1.,0.,0.));
#983=DIRECTION('',(0.,0.,1.));
#984=DIRECTION('',(-1.,0.,0.));
#985=DIRECTION('',(0.,0.,1.));
#986=DIRECTION('',(-1.,0.,0.));
#987=DIRECTION('',(0.,0.,1.));
#988=DIRECTION('',(-1.,0.,0.));
#989=DIRECTION('',(0.,0.,1.));
#990=DIRECTION('',(0.,-1.,0.));
#991=DIRECTION('',(0.,-1.,0.));
#992=DIRECTION('',(-1.,0.,0.));
#993=DIRECTION('',(0.,0.,1.));
#994=DIRECTION('',(-1.,0.,0.));
#995=DIRECTION('',(0.,0.,1.));
#996=DIRECTION('',(0.,0.,-1.));
#997=DIRECTION('',(1.,0.,0.));
#998=DIRECTION('',(0.,0.,1.));
#999=DIRECTION('',(1.,0.,0.));
#1000=DIRECTION('',(1.,0.,0.));
#1001=DIRECTION('',(1.,0.,0.));
#1002=DIRECTION('',(0.,0.,-1.));
#1003=DIRECTION('',(1.,0.,0.));
#1004=DIRECTION('',(0.,-1.,-1.84446989590035E-16));
#1005=DIRECTION('',(0.,1.84446989590035E-16,-1.));
#1006=DIRECTION('',(-1.,0.,0.));
#1007=DIRECTION('',(0.,-1.,-1.84446989590035E-16));
#1008=DIRECTION('',(0.,1.84446989590035E-16,-1.));
#1009=DIRECTION('',(1.,0.,0.));
#1010=DIRECTION('',(0.707106781186549,0.,-0.707106781186547));
#1011=DIRECTION('',(0.,-1.,0.));
#1012=DIRECTION('',(-0.707106781186547,0.,-0.707106781186549));
#1013=DIRECTION('',(0.70710678118655,0.,0.707106781186546));
#1014=DIRECTION('',(0.,1.,0.));
#1015=DIRECTION('',(0.707106781186546,0.,-0.70710678118655));
#1016=DIRECTION('',(0.,0.,1.));
#1017=DIRECTION('',(1.,0.,0.));
#1018=DIRECTION('',(0.,0.,1.));
#1019=DIRECTION('',(1.,0.,0.));
#1020=DIRECTION('',(0.,0.,1.));
#1021=DIRECTION('',(1.,0.,0.));
#1022=DIRECTION('',(0.,0.,1.));
#1023=DIRECTION('',(1.,0.,0.));
#1024=DIRECTION('',(-1.,0.,0.));
#1025=DIRECTION('',(0.,0.,1.));
#1026=DIRECTION('',(0.,0.,1.));
#1027=DIRECTION('',(1.,0.,0.));
#1028=DIRECTION('',(1.,0.,0.));
#1029=DIRECTION('',(-1.,0.,0.));
#1030=DIRECTION('',(1.,0.,0.));
#1031=DIRECTION('',(0.,0.,1.));
#1032=DIRECTION('',(1.,0.,0.));
#1033=DIRECTION('',(-1.,0.,0.));
#1034=DIRECTION('',(1.,0.,0.));
#1035=DIRECTION('',(1.,0.,0.));
#1036=DIRECTION('',(1.,0.,0.));
#1037=DIRECTION('',(0.,0.,-1.));
#1038=DIRECTION('',(0.,-0.971777796604594,-0.235898100938353));
#1039=DIRECTION('',(-1.,0.,0.));
#1040=DIRECTION('',(0.,-0.971777796604594,0.235898100938352));
#1041=DIRECTION('',(-1.,0.,0.));
#1042=DIRECTION('',(0.,0.707106781186548,0.707106781186548));
#1043=DIRECTION('',(-1.,0.,0.));
#1044=DIRECTION('',(0.,0.707106781186546,-0.707106781186549));
#1045=DIRECTION('',(1.,0.,0.));
#1046=DIRECTION('',(0.,-1.,0.));
#1047=DIRECTION('',(0.,0.,-1.));
#1048=DIRECTION('',(0.,-1.,0.));
#1049=DIRECTION('',(0.,0.,-1.));
#1050=DIRECTION('',(-1.,0.,0.));
#1051=DIRECTION('',(0.,0.,1.));
#1052=DIRECTION('',(-1.,0.,0.));
#1053=DIRECTION('',(0.,0.,1.));
#1054=DIRECTION('',(-1.,0.,0.));
#1055=DIRECTION('',(0.,0.,1.));
#1056=DIRECTION('',(-1.,0.,0.));
#1057=DIRECTION('',(0.,0.,1.));
#1058=DIRECTION('',(-1.,0.,0.));
#1059=DIRECTION('',(0.,-1.,0.));
#1060=DIRECTION('',(-1.,0.,0.));
#1061=DIRECTION('',(0.,0.,1.));
#1062=DIRECTION('',(-1.,0.,0.));
#1063=DIRECTION('',(0.,0.,1.));
#1064=DIRECTION('',(-1.,0.,0.));
#1065=DIRECTION('',(0.,-1.,0.));
#1066=CARTESIAN_POINT('',(0.,0.,0.));
#1067=CARTESIAN_POINT('',(0.0229,0.00710783554687032,-0.00466140256131637));
#1068=CARTESIAN_POINT('',(0.,0.00710783554687032,-0.00466140256131637));
#1069=CARTESIAN_POINT('',(0.,0.00710783554687032,-0.00266140256131637));
#1070=CARTESIAN_POINT('',(-0.0015,0.00710783554687032,-0.00466140256131637));
#1071=CARTESIAN_POINT('',(-0.0015,0.00710783554687032,-0.00266140256131637));
#1072=CARTESIAN_POINT('',(0.0229,-0.00710783554687032,0.00466140256131636));
#1073=CARTESIAN_POINT('',(0.,-0.00710783554687032,0.00466140256131636));
#1074=CARTESIAN_POINT('',(0.,-0.00710783554687032,0.00666140256131636));
#1075=CARTESIAN_POINT('',(-0.0015,-0.00710783554687032,0.00466140256131636));
#1076=CARTESIAN_POINT('',(-0.0015,-0.00710783554687032,0.00666140256131636));
#1077=CARTESIAN_POINT('',(0.0229,0.,0.000635));
#1078=CARTESIAN_POINT('',(0.0229,0.,-0.018174995));
#1079=CARTESIAN_POINT('',(0.0229,-0.027444995,-0.018174995));
#1080=CARTESIAN_POINT('',(0.0229,0.027444995,-0.018174995));
#1081=CARTESIAN_POINT('',(0.0229,-0.027444995,-0.038494995));
#1082=CARTESIAN_POINT('',(0.0229,-0.027444995,-0.015634995));
#1083=CARTESIAN_POINT('',(0.0229,0.,-0.015634995));
#1084=CARTESIAN_POINT('',(0.0229,-0.016904995,-0.015634995));
#1085=CARTESIAN_POINT('',(0.0229,-0.016904995,0.019444995));
#1086=CARTESIAN_POINT('',(0.0229,-0.016904995,0.011824995));
#1087=CARTESIAN_POINT('',(0.0229,0.,0.011824995));
#1088=CARTESIAN_POINT('',(0.0229,-0.0102285170919347,0.011824995));
#1089=CARTESIAN_POINT('',(0.0229,0.,0.));
#1090=CARTESIAN_POINT('',(0.0229,0.0102285170919347,0.011824995));
#1091=CARTESIAN_POINT('',(0.0229,0.,0.011824995));
#1092=CARTESIAN_POINT('',(0.0229,0.016904995,0.011824995));
#1093=CARTESIAN_POINT('',(0.0229,0.016904995,0.000635));
#1094=CARTESIAN_POINT('',(0.0229,0.016904995,-0.015634995));
#1095=CARTESIAN_POINT('',(0.0229,0.,-0.015634995));
#1096=CARTESIAN_POINT('',(0.0229,0.027444995,-0.015634995));
#1097=CARTESIAN_POINT('',(0.0229,0.027444995,-0.038494995));
#1098=CARTESIAN_POINT('',(0.05084,0.0143849975,0.));
#1099=CARTESIAN_POINT('',(0.05084,-0.027444995,-0.038494995));
#1100=CARTESIAN_POINT('',(0.05084,-0.027444995,-0.018174995));
#1101=CARTESIAN_POINT('',(0.05084,-0.027444995,-0.015634995));
#1102=CARTESIAN_POINT('',(0.05084,0.0143849975,-0.018174995));
#1103=CARTESIAN_POINT('',(0.05084,0.027444995,-0.018174995));
#1104=CARTESIAN_POINT('',(0.05084,0.027444995,-0.038494995));
#1105=CARTESIAN_POINT('',(0.05084,0.027444995,-0.015634995));
#1106=CARTESIAN_POINT('',(0.05084,0.019444995,-0.015634995));
#1107=CARTESIAN_POINT('',(0.05084,0.016904995,-0.015634995));
#1108=CARTESIAN_POINT('',(0.05084,0.016904995,0.019444995));
#1109=CARTESIAN_POINT('',(0.05084,0.016904995,0.011824995));
#1110=CARTESIAN_POINT('',(0.05084,0.,0.011824995));
#1111=CARTESIAN_POINT('',(0.05084,0.0102895635597422,0.011824995));
#1112=CARTESIAN_POINT('',(0.05084,0.,0.));
#1113=CARTESIAN_POINT('',(0.05084,-0.0102895635597422,0.011824995));
#1114=CARTESIAN_POINT('',(0.05084,0.,0.011824995));
#1115=CARTESIAN_POINT('',(0.05084,-0.016904995,0.011824995));
#1116=CARTESIAN_POINT('',(0.05084,-0.016904995,-5.77134492091978E-18));
#1117=CARTESIAN_POINT('',(0.05084,-0.016904995,-0.015634995));
#1118=CARTESIAN_POINT('',(0.05084,-0.032144995,-0.015634995));
#1119=CARTESIAN_POINT('',(0.0229,0.,-0.018174995));
#1120=CARTESIAN_POINT('',(0.03052,0.023444995,-0.018174995));
#1121=CARTESIAN_POINT('',(0.02852,0.023444995,-0.018174995));
#1122=CARTESIAN_POINT('',(0.04322,0.023444995,-0.018174995));
#1123=CARTESIAN_POINT('',(0.04122,0.023444995,-0.018174995));
#1124=CARTESIAN_POINT('',(0.03052,-0.023444995,-0.018174995));
#1125=CARTESIAN_POINT('',(0.02852,-0.023444995,-0.018174995));
#1126=CARTESIAN_POINT('',(0.04322,-0.023444995,-0.018174995));
#1127=CARTESIAN_POINT('',(0.04122,-0.023444995,-0.018174995));
#1128=CARTESIAN_POINT('',(0.0229,-0.027444995,-0.018174995));
#1129=CARTESIAN_POINT('',(0.0229,0.027444995,-0.018174995));
#1130=CARTESIAN_POINT('',(0.02542,-6.93889390390723E-18,-0.013094995));
#1131=CARTESIAN_POINT('',(0.03052,0.023444995,-0.013094995));
#1132=CARTESIAN_POINT('',(0.03252,0.023444995,-0.013094995));
#1133=CARTESIAN_POINT('',(0.04322,0.023444995,-0.013094995));
#1134=CARTESIAN_POINT('',(0.04522,0.023444995,-0.013094995));
#1135=CARTESIAN_POINT('',(0.03687,0.027444995,-0.013094995));
#1136=CARTESIAN_POINT('',(0.02544,0.027444995,-0.013094995));
#1137=CARTESIAN_POINT('',(0.0483,0.027444995,-0.013094995));
#1138=CARTESIAN_POINT('',(0.02544,-6.93889390390723E-18,-0.013094995));
#1139=CARTESIAN_POINT('',(0.02544,0.019444995,-0.013094995));
#1140=CARTESIAN_POINT('',(0.0229,0.019444995,-0.013094995));
#1141=CARTESIAN_POINT('',(0.0483,0.019444995,-0.013094995));
#1142=CARTESIAN_POINT('',(0.0483,0.032144995,-0.013094995));
#1143=CARTESIAN_POINT('',(0.0229,0.,-0.015634995));
#1144=CARTESIAN_POINT('',(0.0229,-0.027444995,-0.015634995));
#1145=CARTESIAN_POINT('',(0.02544,-0.027444995,-0.013094995));
#1146=CARTESIAN_POINT('',(0.02544,-6.93889390390723E-18,-0.013094995));
#1147=CARTESIAN_POINT('',(0.02544,-0.019444995,-0.013094995));
#1148=CARTESIAN_POINT('',(0.030016665,-0.02402166,-0.00851833));
#1149=CARTESIAN_POINT('',(0.0483,-6.93889390390723E-18,-0.013094995));
#1150=CARTESIAN_POINT('',(0.0483,-0.019444995,-0.013094995));
#1151=CARTESIAN_POINT('',(0.0483,-0.027444995,-0.013094995));
#1152=CARTESIAN_POINT('',(0.0483,-0.019444995,-0.013094995));
#1153=CARTESIAN_POINT('',(0.0483,-0.027444995,-0.013094995));
#1154=CARTESIAN_POINT('',(0.045628335,-0.02211666,-0.01042333));
#1155=CARTESIAN_POINT('',(0.,0.0087775,0.));
#1156=CARTESIAN_POINT('',(0.,0.00488514462897052,0.011824995));
#1157=CARTESIAN_POINT('',(0.,0.00405209738900424,0.011824995));
#1158=CARTESIAN_POINT('',(0.,0.00756640370346241,0.011824995));
#1159=CARTESIAN_POINT('',(0.,-4.33680868994202E-19,-6.93889390390723E-18));
#1160=CARTESIAN_POINT('',(0.,-0.00405209738900424,0.011824995));
#1161=CARTESIAN_POINT('',(0.,-0.00488514462897052,0.011824995));
#1162=CARTESIAN_POINT('',(0.,-0.00756640370346241,0.011824995));
#1163=CARTESIAN_POINT('',(0.,-0.00936766775622015,0.00440472156274403));
#1164=CARTESIAN_POINT('',(0.,-0.00788723964317235,0.0105033173717245));
#1165=CARTESIAN_POINT('',(0.,0.,0.));
#1166=CARTESIAN_POINT('',(0.,0.00788723964317235,0.0105033173717245));
#1167=CARTESIAN_POINT('',(0.,0.0103445668869522,0.000380403940043732));
#1168=CARTESIAN_POINT('',(0.,0.,0.));
#1169=CARTESIAN_POINT('',(0.,0.,0.004801));
#1170=CARTESIAN_POINT('',(0.,2.60208521396521E-18,-0.0085));
#1171=CARTESIAN_POINT('',(0.,2.60208521396521E-18,-0.0065));
#1172=CARTESIAN_POINT('',(0.,-8.67361737988404E-19,0.0085));
#1173=CARTESIAN_POINT('',(0.,-8.67361737988404E-19,0.0105));
#1174=CARTESIAN_POINT('',(-0.00887,0.,0.));
#1175=CARTESIAN_POINT('',(3.99999999999983E-05,0.,0.));
#1176=CARTESIAN_POINT('',(3.99999999999983E-05,-0.0102285170919347,0.011824995));
#1177=CARTESIAN_POINT('',(3.99999999999983E-05,0.0102285170919347,0.011824995));
#1178=CARTESIAN_POINT('',(-0.1041,0.0102285170919347,0.011824995));
#1179=CARTESIAN_POINT('',(-0.1041,-0.0102285170919347,0.011824995));
#1180=CARTESIAN_POINT('',(-0.0025,0.,0.));
#1181=CARTESIAN_POINT('',(-0.0025,0.,0.));
#1182=CARTESIAN_POINT('',(-0.0025,0.0056256899399096,0.011824995));
#1183=CARTESIAN_POINT('',(-0.0025,-0.0056256899399096,0.011824995));
#1184=CARTESIAN_POINT('',(-0.0025,0.0056256899399096,0.011824995));
#1185=CARTESIAN_POINT('',(-0.00180089708047538,0.00725300131566013,0.011824995));
#1186=CARTESIAN_POINT('',(-0.000917867231320828,0.00876435085573863,0.011824995));
#1187=CARTESIAN_POINT('',(4.00000000000112E-05,0.0102285170919347,0.011824995));
#1188=CARTESIAN_POINT('',(4.0000000000009E-05,-0.0102285170919347,0.011824995));
#1189=CARTESIAN_POINT('',(-0.000919412395894393,-0.00876198896494207,0.011824995));
#1190=CARTESIAN_POINT('',(-0.00181023660795841,-0.00723126157049129,0.011824995));
#1191=CARTESIAN_POINT('',(-0.0025,-0.0056256899399096,0.011824995));
#1192=CARTESIAN_POINT('',(-0.00887,0.,0.));
#1193=CARTESIAN_POINT('',(0.0483,0.,0.));
#1194=CARTESIAN_POINT('',(0.0483,-0.00788723964317235,0.0105033173717245));
#1195=CARTESIAN_POINT('',(0.0483,0.00788723964317235,0.0105033173717245));
#1196=CARTESIAN_POINT('',(-0.00887,0.00788723964317235,0.0105033173717245));
#1197=CARTESIAN_POINT('',(-0.00887,-0.00788723964317234,0.0105033173717245));
#1198=CARTESIAN_POINT('',(0.0229,0.016904995,0.000635));
#1199=CARTESIAN_POINT('',(0.0266299983333333,0.0206349933333334,0.00809499666666666));
#1200=CARTESIAN_POINT('',(0.02544,0.019444995,0.009284995));
#1201=CARTESIAN_POINT('',(0.02544,0.019444995,0.000635));
#1202=CARTESIAN_POINT('',(0.0283233316666667,0.0223283266666667,-0.0102116633333333));
#1203=CARTESIAN_POINT('',(0.02544,-0.019444995,0.000635));
#1204=CARTESIAN_POINT('',(0.02544,-0.019444995,-0.013094995));
#1205=CARTESIAN_POINT('',(0.02544,-0.019444995,0.009284995));
#1206=CARTESIAN_POINT('',(0.0283233316666667,-0.0223283266666667,0.00640166333333335));
#1207=CARTESIAN_POINT('',(0.0483,0.019444995,0.000635));
#1208=CARTESIAN_POINT('',(0.0483,0.019444995,-0.013094995));
#1209=CARTESIAN_POINT('',(0.0483,0.019444995,0.009284995));
#1210=CARTESIAN_POINT('',(0.0454166683333334,0.0223283266666667,0.00640166333333332));
#1211=CARTESIAN_POINT('',(0.0437233350000001,0.02402166,-0.00851833));
#1212=CARTESIAN_POINT('',(0.05084,-0.016904995,-5.77134492091978E-18));
#1213=CARTESIAN_POINT('',(0.046898335,-0.02084666,0.00788333));
#1214=CARTESIAN_POINT('',(0.0483,-0.019444995,0.009284995));
#1215=CARTESIAN_POINT('',(0.0483,-0.019444995,0.000635));
#1216=CARTESIAN_POINT('',(0.05084,0.,0.));
#1217=CARTESIAN_POINT('',(0.05084,0.0102895635597422,0.011824995));
#1218=CARTESIAN_POINT('',(0.0502566250773248,0.00940085706992465,0.011824995));
#1219=CARTESIAN_POINT('',(0.0497047628963878,0.00849633835745132,0.011824995));
#1220=CARTESIAN_POINT('',(0.0492035530505745,0.00756640370346242,0.011824995));
#1221=CARTESIAN_POINT('',(0.0492035530505745,0.00756640370346242,0.011824995));
#1222=CARTESIAN_POINT('',(0.0492035530505745,0.00756640370346241,0.011824995));
#1223=CARTESIAN_POINT('',(0.0488939620536967,0.00767203154186076,0.0113898631034288));
#1224=CARTESIAN_POINT('',(0.0485919644364342,0.00777884940131674,0.0109498289374595));
#1225=CARTESIAN_POINT('',(0.0483,0.00788723964317235,0.0105033173717245));
#1226=CARTESIAN_POINT('',(0.0483,-0.00788723964317234,0.0105033173717245));
#1227=CARTESIAN_POINT('',(0.0485919644364341,-0.00777884940131675,0.0109498289374594));
#1228=CARTESIAN_POINT('',(0.0488939620536944,-0.00767203154186153,0.0113898631034256));
#1229=CARTESIAN_POINT('',(0.0492035530505721,-0.0075664037034632,0.0118249949999967));
#1230=CARTESIAN_POINT('',(0.0492035530505728,-0.00756640370345923,0.011824995));
#1231=CARTESIAN_POINT('',(0.0492035530505728,-0.00756640370345924,0.011824995));
#1232=CARTESIAN_POINT('',(0.0497052781669529,-0.00849729438008097,0.011824995));
#1233=CARTESIAN_POINT('',(0.0502571374151115,-0.00940163755927777,0.011824995));
#1234=CARTESIAN_POINT('',(0.05084,-0.0102895635597422,0.011824995));
#1235=CARTESIAN_POINT('',(-0.0025,0.0103449975,0.));
#1236=CARTESIAN_POINT('',(-0.0025,0.00710783554687032,-0.00466140256131637));
#1237=CARTESIAN_POINT('',(-0.0025,0.00710783554687032,-0.00166140256131637));
#1238=CARTESIAN_POINT('',(-0.0025,-0.00710783554687032,0.00466140256131637));
#1239=CARTESIAN_POINT('',(-0.0025,-0.00710783554687032,0.00766140256131637));
#1240=CARTESIAN_POINT('',(-0.0025,-8.67361737988404E-19,0.0085));
#1241=CARTESIAN_POINT('',(-0.0025,-8.67361737988404E-19,0.0105));
#1242=CARTESIAN_POINT('',(-0.0025,2.60208521396521E-18,-0.0085));
#1243=CARTESIAN_POINT('',(-0.0025,2.60208521396521E-18,-0.0065));
#1244=CARTESIAN_POINT('',(-0.0025,0.0103449975,0.011824995));
#1245=CARTESIAN_POINT('',(-0.0025,0.00405209738900424,0.011824995));
#1246=CARTESIAN_POINT('',(-0.0025,0.0103449975,0.011824995));
#1247=CARTESIAN_POINT('',(-0.0025,-0.00405209738900424,0.011824995));
#1248=CARTESIAN_POINT('',(-0.0025,-4.33680868994202E-19,-6.93889390390723E-18));
#1249=CARTESIAN_POINT('',(-0.0025,0.,0.));
#1250=CARTESIAN_POINT('',(-0.0025,0.,0.004801));
#1251=CARTESIAN_POINT('',(0.02542,-6.93889390390723E-18,-0.013094995));
#1252=CARTESIAN_POINT('',(0.03052,-0.023444995,-0.013094995));
#1253=CARTESIAN_POINT('',(0.03252,-0.023444995,-0.013094995));
#1254=CARTESIAN_POINT('',(0.03687,-0.027444995,-0.013094995));
#1255=CARTESIAN_POINT('',(0.0229,-0.019444995,-0.013094995));
#1256=CARTESIAN_POINT('',(0.04322,-0.023444995,-0.013094995));
#1257=CARTESIAN_POINT('',(0.04522,-0.023444995,-0.013094995));
#1258=CARTESIAN_POINT('',(0.0229,-0.019444995,0.000635));
#1259=CARTESIAN_POINT('',(0.0229,-0.019444995,0.009284995));
#1260=CARTESIAN_POINT('',(0.0229,0.019444995,0.000635));
#1261=CARTESIAN_POINT('',(0.0483,0.019444995,0.009284995));
#1262=CARTESIAN_POINT('',(0.02544,-6.93889390390723E-18,-0.013094995));
#1263=CARTESIAN_POINT('',(0.02544,0.027444995,-0.013094995));
#1264=CARTESIAN_POINT('',(0.05084,0.0143849975,-0.015634995));
#1265=CARTESIAN_POINT('',(0.05084,0.027444995,-0.015634995));
#1266=CARTESIAN_POINT('',(0.03052,-0.023444995,-0.038494995));
#1267=CARTESIAN_POINT('',(0.04322,-0.023444995,-0.038494995));
#1268=CARTESIAN_POINT('',(0.04322,0.023444995,-0.038494995));
#1269=CARTESIAN_POINT('',(0.03052,0.023444995,-0.038494995));
#1270=CARTESIAN_POINT('',(-0.00887,0.,0.));
#1271=CARTESIAN_POINT('',(0.03687,0.,0.011824995));
#1272=CARTESIAN_POINT('',(0.0483,0.00756640370346241,0.011824995));
#1273=CARTESIAN_POINT('',(0.02544,0.016904995,0.011824995));
#1274=CARTESIAN_POINT('',(-0.0254,0.00405209738900424,0.011824995));
#1275=CARTESIAN_POINT('',(0.03687,0.,0.011824995));
#1276=CARTESIAN_POINT('',(0.,-0.00756640370346241,0.011824995));
#1277=CARTESIAN_POINT('',(-0.0254,-0.00405209738900424,0.011824995));
#1278=CARTESIAN_POINT('',(0.03687,-0.016904995,0.011824995));
#1279=CARTESIAN_POINT('',(-0.0254,-4.33680868994202E-19,-6.93889390390723E-18));
#1280=CARTESIAN_POINT('',(-0.00887,0.00756640370346241,0.011824995));
#1281=CARTESIAN_POINT('',(-0.00887,-0.00756640370346241,0.011824995));
#1282=CARTESIAN_POINT('',(0.0229,0.019444995,0.009284995));
#1283=CARTESIAN_POINT('',(0.03687,-0.016904995,0.011824995));
#1284=CARTESIAN_POINT('',(0.03687,-0.027444995,-0.038494995));
#1285=CARTESIAN_POINT('',(0.03687,0.027444995,-0.038494995));
#1286=CARTESIAN_POINT('',(0.0229,2.60208521396521E-18,-0.0085));
#1287=CARTESIAN_POINT('',(0.0229,-8.67361737988404E-19,0.0085));
#1288=CARTESIAN_POINT('',(-0.0015,-0.00710783554687032,0.00466140256131637));
#1289=CARTESIAN_POINT('',(-0.0015,-0.00710783554687032,0.00466140256131637));
#1290=CARTESIAN_POINT('',(-0.0015,-0.00710783554687032,0.00766140256131637));
#1291=CARTESIAN_POINT('',(-0.0015,-0.000872456378434975,-0.0002974975));
#1292=CARTESIAN_POINT('',(-0.0015,0.00710783554687032,-0.00466140256131637));
#1293=CARTESIAN_POINT('',(-0.0015,0.00710783554687032,-0.00466140256131637));
#1294=CARTESIAN_POINT('',(-0.0015,0.00710783554687032,-0.00166140256131637));
#1295=CARTESIAN_POINT('',(-0.0015,-0.000872456378434975,-0.0002974975));
#1296=MECHANICAL_DESIGN_GEOMETRIC_PRESENTATION_REPRESENTATION('',(#771),#1297);
#1297=(
GEOMETRIC_REPRESENTATION_CONTEXT(3)
GLOBAL_UNCERTAINTY_ASSIGNED_CONTEXT((#1298))
GLOBAL_UNIT_ASSIGNED_CONTEXT((#1301,#1300,#1299))
REPRESENTATION_CONTEXT('Motor mount L','TOP_LEVEL_ASSEMBLY_PART')
);
#1298=UNCERTAINTY_MEASURE_WITH_UNIT(LENGTH_MEASURE(2.E-05),#1301,'DISTANCE_ACCURACY_VALUE','Maximum Tolerance applied to model');
#1299=(
NAMED_UNIT(*)
SI_UNIT($,.STERADIAN.)
SOLID_ANGLE_UNIT()
);
#1300=(
NAMED_UNIT(*)
PLANE_ANGLE_UNIT()
SI_UNIT($,.RADIAN.)
);
#1301=(
LENGTH_UNIT()
NAMED_UNIT(*)
SI_UNIT($,.METRE.)
);
#1302=PRODUCT_DEFINITION_SHAPE('','',#1303);
#1303=PRODUCT_DEFINITION('','',#1305,#1304);
#1304=PRODUCT_DEFINITION_CONTEXT('',#1311,'design');
#1305=PRODUCT_DEFINITION_FORMATION_WITH_SPECIFIED_SOURCE('','',#1307,.NOT_KNOWN.);
#1306=PRODUCT_RELATED_PRODUCT_CATEGORY('','',(#1307));
#1307=PRODUCT('Motor mount L','Motor mount L','Motor mount L',(#1309));
#1308=PRODUCT_CATEGORY('','');
#1309=PRODUCT_CONTEXT('',#1311,'mechanical');
#1310=APPLICATION_PROTOCOL_DEFINITION('international standard','ap242_managed_model_based_3d_engineering',2020,#1311);
#1311=APPLICATION_CONTEXT('managed model based 3d engineering');
ENDSEC;
END-ISO-10303-21;
