ISO-10303-21;
HEADER;
/*Generated by software containing ST-Developer
 * from STEP Tools, Inc. (www.steptools.com) 
 */
/*OPTION: using custom renumber hook */
/*description */
/*implementation_level */
FILE_DESCRIPTION(('STEP AP242 Edition 2','STEP AP242 Edition 2''CAx-IF Rec.Pracs.---Representation and Presentation of Product Manufa
cturing Information (PMI)---4.0---2014-10-13','STEP AP242 Edition 2''CAx-IF Rec.Pracs.---Representation and Presentation of Product Manufa
cturing Information (PMI)---4.0---2014-10-13''CAx-IF Rec.Pracs.---3D Tessellated Geometry---0.4---2014-09-14','STEP AP242 Edition 2''CAx-IF Rec.Pracs.---Representation and Presentation of Product Manufa
cturing Information (PMI)---4.0---2014-10-13''CAx-IF Rec.Pracs.---3D Tessellated Geometry---0.4---2014-09-14''2;1','STEP AP242 Edition 2''CAx-IF Rec.Pracs.---Representation and Presentation of Product Manufa
cturing Information (PMI)---4.0---2014-10-13''CAx-IF Rec.Pracs.---3D Tessellated Geometry---0.4---2014-09-14''2;1''CAx-IF Rec.Pracs.---User Defined Attributes---1.5---2016-08-15'),'2;1');
/*name */
/*time_stamp */
/*author */
/*organization */
/*preprocessor_version */
/*originating_system */
/*authorisation */
FILE_NAME('/vol/tmp/translate-4752077050158419167/Silicone Wheel - wheel.step','2026-03-12T15:56:02',(''),(''),'ST-DEVELOPER v20','ONSHAPE BY PTC INC, 1.211','  ');
FILE_SCHEMA(('AP242_MANAGED_MODEL_BASED_3D_ENGINEERING_MIM_LF { 1 0 10303 442 3 1 4 }'));
ENDSEC;
DATA;
#10=SHAPE_REPRESENTATION_RELATIONSHIP('','',#259,#11);
#11=ADVANCED_BREP_SHAPE_REPRESENTATION('',(#257),#460);
#12=LINE('',#422,#18);
#13=LINE('',#427,#19);
#14=LINE('',#432,#20);
#15=LINE('',#433,#21);
#16=LINE('',#437,#22);
#17=LINE('',#439,#23);
#18=VECTOR('',#342,1.);
#19=VECTOR('',#347,1.);
#20=VECTOR('',#350,1.);
#21=VECTOR('',#351,1.);
#22=VECTOR('',#354,1.);
#23=VECTOR('',#355,1.);
#24=TOROIDAL_SURFACE('',#272,0.01397,0.00254);
#25=TOROIDAL_SURFACE('',#275,0.02032,0.00254);
#26=TOROIDAL_SURFACE('',#277,0.01905,0.00254);
#27=TOROIDAL_SURFACE('',#280,0.02032,0.00254);
#28=PLANE('',#266);
#29=PLANE('',#269);
#30=PLANE('',#282);
#31=PLANE('',#284);
#32=PLANE('',#287);
#33=PLANE('',#289);
#34=PLANE('',#295);
#35=B_SPLINE_CURVE_WITH_KNOTS('',3,(#381,#382,#383,#384,#385,#386,#387,#388,#389,#390,#391),.UNSPECIFIED.,.T.,.F.,(1,1,1,1,1,1,1,1,1,1,1,1,1,1,1),(-0.00590458048870632,-0.00393638699247088,-0.00196819349623544,3.84951382976061E-20,0.00196819349623544,0.00393638699247088,0.00590458048870632,0.00787277398494176,0.00984096748117719,0.0118091609774126,0.0137773544736481,0.0157455479698835,0.017713741466119,0.0196819349623544,0.0216501284585898),.UNSPECIFIED.);
#36=B_SPLINE_CURVE_WITH_KNOTS('',3,(#445,#446,#447,#448,#449),.UNSPECIFIED.,.F.,.F.,(4,1,4),(0.,0.000759845501756211,0.00151969100351242),.UNSPECIFIED.);
#37=B_SPLINE_CURVE_WITH_KNOTS('',3,(#450,#451,#452,#453,#454),.UNSPECIFIED.,.F.,.F.,(4,1,4),(0.,0.000759845501756212,0.00151969100351242),.UNSPECIFIED.);
#38=ORIENTED_EDGE('',*,*,#90,.T.);
#39=ORIENTED_EDGE('',*,*,#91,.T.);
#40=ORIENTED_EDGE('',*,*,#92,.F.);
#41=ORIENTED_EDGE('',*,*,#93,.F.);
#42=ORIENTED_EDGE('',*,*,#94,.T.);
#43=ORIENTED_EDGE('',*,*,#95,.F.);
#44=ORIENTED_EDGE('',*,*,#96,.F.);
#45=ORIENTED_EDGE('',*,*,#97,.F.);
#46=ORIENTED_EDGE('',*,*,#98,.F.);
#47=ORIENTED_EDGE('',*,*,#99,.T.);
#48=ORIENTED_EDGE('',*,*,#97,.T.);
#49=ORIENTED_EDGE('',*,*,#100,.T.);
#50=ORIENTED_EDGE('',*,*,#101,.F.);
#51=ORIENTED_EDGE('',*,*,#102,.T.);
#52=ORIENTED_EDGE('',*,*,#103,.T.);
#53=ORIENTED_EDGE('',*,*,#95,.T.);
#54=ORIENTED_EDGE('',*,*,#104,.T.);
#55=ORIENTED_EDGE('',*,*,#105,.F.);
#56=ORIENTED_EDGE('',*,*,#103,.F.);
#57=ORIENTED_EDGE('',*,*,#90,.F.);
#58=ORIENTED_EDGE('',*,*,#106,.T.);
#59=ORIENTED_EDGE('',*,*,#107,.T.);
#60=ORIENTED_EDGE('',*,*,#108,.T.);
#61=ORIENTED_EDGE('',*,*,#104,.F.);
#62=ORIENTED_EDGE('',*,*,#109,.F.);
#63=ORIENTED_EDGE('',*,*,#110,.T.);
#64=ORIENTED_EDGE('',*,*,#111,.F.);
#65=ORIENTED_EDGE('',*,*,#112,.T.);
#66=ORIENTED_EDGE('',*,*,#112,.F.);
#67=ORIENTED_EDGE('',*,*,#113,.F.);
#68=ORIENTED_EDGE('',*,*,#98,.T.);
#69=ORIENTED_EDGE('',*,*,#100,.F.);
#70=ORIENTED_EDGE('',*,*,#101,.T.);
#71=ORIENTED_EDGE('',*,*,#102,.F.);
#72=ORIENTED_EDGE('',*,*,#99,.F.);
#73=ORIENTED_EDGE('',*,*,#114,.F.);
#74=ORIENTED_EDGE('',*,*,#106,.F.);
#75=ORIENTED_EDGE('',*,*,#113,.T.);
#76=ORIENTED_EDGE('',*,*,#111,.T.);
#77=ORIENTED_EDGE('',*,*,#115,.F.);
#78=ORIENTED_EDGE('',*,*,#109,.T.);
#79=ORIENTED_EDGE('',*,*,#105,.T.);
#80=ORIENTED_EDGE('',*,*,#108,.F.);
#81=ORIENTED_EDGE('',*,*,#115,.T.);
#82=ORIENTED_EDGE('',*,*,#110,.F.);
#83=ORIENTED_EDGE('',*,*,#114,.T.);
#84=ORIENTED_EDGE('',*,*,#107,.F.);
#85=ORIENTED_EDGE('',*,*,#92,.T.);
#86=ORIENTED_EDGE('',*,*,#96,.T.);
#87=ORIENTED_EDGE('',*,*,#94,.F.);
#88=ORIENTED_EDGE('',*,*,#93,.T.);
#89=ORIENTED_EDGE('',*,*,#91,.F.);
#90=EDGE_CURVE('',#116,#116,#138,.T.);
#91=EDGE_CURVE('',#117,#117,#139,.T.);
#92=EDGE_CURVE('',#118,#118,#35,.F.);
#93=EDGE_CURVE('',#119,#119,#140,.T.);
#94=EDGE_CURVE('',#120,#120,#141,.T.);
#95=EDGE_CURVE('',#121,#121,#142,.T.);
#96=EDGE_CURVE('',#122,#122,#143,.T.);
#97=EDGE_CURVE('',#123,#123,#144,.T.);
#98=EDGE_CURVE('',#124,#124,#145,.T.);
#99=EDGE_CURVE('',#125,#125,#146,.T.);
#100=EDGE_CURVE('',#126,#126,#147,.T.);
#101=EDGE_CURVE('',#127,#127,#148,.T.);
#102=EDGE_CURVE('',#128,#128,#149,.T.);
#103=EDGE_CURVE('',#129,#129,#150,.T.);
#104=EDGE_CURVE('',#130,#131,#12,.T.);
#105=EDGE_CURVE('',#130,#131,#151,.T.);
#106=EDGE_CURVE('',#132,#133,#13,.T.);
#107=EDGE_CURVE('',#133,#134,#152,.T.);
#108=EDGE_CURVE('',#134,#131,#14,.T.);
#109=EDGE_CURVE('',#135,#130,#15,.T.);
#110=EDGE_CURVE('',#135,#136,#153,.T.);
#111=EDGE_CURVE('',#137,#136,#16,.T.);
#112=EDGE_CURVE('',#137,#132,#17,.T.);
#113=EDGE_CURVE('',#132,#137,#154,.T.);
#114=EDGE_CURVE('',#133,#134,#36,.T.);
#115=EDGE_CURVE('',#135,#136,#37,.T.);
#116=VERTEX_POINT('',#377);
#117=VERTEX_POINT('',#379);
#118=VERTEX_POINT('',#392);
#119=VERTEX_POINT('',#394);
#120=VERTEX_POINT('',#397);
#121=VERTEX_POINT('',#399);
#122=VERTEX_POINT('',#402);
#123=VERTEX_POINT('',#404);
#124=VERTEX_POINT('',#407);
#125=VERTEX_POINT('',#409);
#126=VERTEX_POINT('',#412);
#127=VERTEX_POINT('',#415);
#128=VERTEX_POINT('',#417);
#129=VERTEX_POINT('',#420);
#130=VERTEX_POINT('',#423);
#131=VERTEX_POINT('',#424);
#132=VERTEX_POINT('',#428);
#133=VERTEX_POINT('',#429);
#134=VERTEX_POINT('',#431);
#135=VERTEX_POINT('',#434);
#136=VERTEX_POINT('',#436);
#137=VERTEX_POINT('',#438);
#138=CIRCLE('',#262,0.001);
#139=CIRCLE('',#263,0.001);
#140=CIRCLE('',#265,0.002516);
#141=CIRCLE('',#267,0.02032);
#142=CIRCLE('',#268,0.02286);
#143=CIRCLE('',#270,0.02032);
#144=CIRCLE('',#271,0.02286);
#145=CIRCLE('',#273,0.01397);
#146=CIRCLE('',#274,0.01651);
#147=CIRCLE('',#276,0.02032);
#148=CIRCLE('',#278,0.01905);
#149=CIRCLE('',#279,0.01651);
#150=CIRCLE('',#281,0.02032);
#151=CIRCLE('',#283,0.002);
#152=CIRCLE('',#285,0.0015);
#153=CIRCLE('',#286,0.0015);
#154=CIRCLE('',#288,0.002);
#155=EDGE_LOOP('',(#38));
#156=EDGE_LOOP('',(#39));
#157=EDGE_LOOP('',(#40));
#158=EDGE_LOOP('',(#41));
#159=EDGE_LOOP('',(#42));
#160=EDGE_LOOP('',(#43));
#161=EDGE_LOOP('',(#44));
#162=EDGE_LOOP('',(#45));
#163=EDGE_LOOP('',(#46));
#164=EDGE_LOOP('',(#47));
#165=EDGE_LOOP('',(#48));
#166=EDGE_LOOP('',(#49));
#167=EDGE_LOOP('',(#50));
#168=EDGE_LOOP('',(#51));
#169=EDGE_LOOP('',(#52));
#170=EDGE_LOOP('',(#53));
#171=EDGE_LOOP('',(#54,#55));
#172=EDGE_LOOP('',(#56));
#173=EDGE_LOOP('',(#57));
#174=EDGE_LOOP('',(#58,#59,#60,#61,#62,#63,#64,#65));
#175=EDGE_LOOP('',(#66,#67));
#176=EDGE_LOOP('',(#68));
#177=EDGE_LOOP('',(#69));
#178=EDGE_LOOP('',(#70));
#179=EDGE_LOOP('',(#71));
#180=EDGE_LOOP('',(#72));
#181=EDGE_LOOP('',(#73,#74,#75,#76,#77,#78,#79,#80));
#182=EDGE_LOOP('',(#81,#82));
#183=EDGE_LOOP('',(#83,#84));
#184=EDGE_LOOP('',(#85));
#185=EDGE_LOOP('',(#86));
#186=EDGE_LOOP('',(#87));
#187=EDGE_LOOP('',(#88));
#188=EDGE_LOOP('',(#89));
#189=FACE_BOUND('',#155,.T.);
#190=FACE_BOUND('',#156,.T.);
#191=FACE_BOUND('',#157,.T.);
#192=FACE_BOUND('',#158,.T.);
#193=FACE_BOUND('',#159,.T.);
#194=FACE_BOUND('',#160,.T.);
#195=FACE_BOUND('',#161,.T.);
#196=FACE_BOUND('',#162,.T.);
#197=FACE_BOUND('',#163,.T.);
#198=FACE_BOUND('',#164,.T.);
#199=FACE_BOUND('',#165,.T.);
#200=FACE_BOUND('',#166,.T.);
#201=FACE_BOUND('',#167,.T.);
#202=FACE_BOUND('',#168,.T.);
#203=FACE_BOUND('',#169,.T.);
#204=FACE_BOUND('',#170,.T.);
#205=FACE_BOUND('',#171,.T.);
#206=FACE_BOUND('',#172,.T.);
#207=FACE_BOUND('',#173,.T.);
#208=FACE_BOUND('',#174,.T.);
#209=FACE_BOUND('',#175,.T.);
#210=FACE_BOUND('',#176,.T.);
#211=FACE_BOUND('',#177,.T.);
#212=FACE_BOUND('',#178,.T.);
#213=FACE_BOUND('',#179,.T.);
#214=FACE_BOUND('',#180,.T.);
#215=FACE_BOUND('',#181,.T.);
#216=FACE_BOUND('',#182,.T.);
#217=FACE_BOUND('',#183,.T.);
#218=FACE_BOUND('',#184,.T.);
#219=FACE_BOUND('',#185,.T.);
#220=FACE_BOUND('',#186,.T.);
#221=FACE_BOUND('',#187,.T.);
#222=FACE_BOUND('',#188,.T.);
#223=CYLINDRICAL_SURFACE('',#261,0.001);
#224=CYLINDRICAL_SURFACE('',#264,0.002516);
#225=CYLINDRICAL_SURFACE('',#290,0.01651);
#226=CYLINDRICAL_SURFACE('',#291,0.002);
#227=CYLINDRICAL_SURFACE('',#292,0.0015);
#228=CYLINDRICAL_SURFACE('',#293,0.0015);
#229=CYLINDRICAL_SURFACE('',#294,0.02032);
#230=ADVANCED_FACE('',(#189,#190),#223,.F.);
#231=ADVANCED_FACE('',(#191,#192),#224,.F.);
#232=ADVANCED_FACE('',(#193,#194),#28,.F.);
#233=ADVANCED_FACE('',(#195,#196),#29,.F.);
#234=ADVANCED_FACE('',(#197,#198),#24,.F.);
#235=ADVANCED_FACE('',(#199,#200),#25,.T.);
#236=ADVANCED_FACE('',(#201,#202),#26,.T.);
#237=ADVANCED_FACE('',(#203,#204),#27,.T.);
#238=ADVANCED_FACE('',(#205,#206),#30,.F.);
#239=ADVANCED_FACE('',(#207,#208),#31,.T.);
#240=ADVANCED_FACE('',(#209,#210),#32,.T.);
#241=ADVANCED_FACE('',(#211,#212),#33,.F.);
#242=ADVANCED_FACE('',(#213,#214),#225,.F.);
#243=ADVANCED_FACE('',(#215),#226,.F.);
#244=ADVANCED_FACE('',(#216),#227,.F.);
#245=ADVANCED_FACE('',(#217),#228,.F.);
#246=ADVANCED_FACE('',(#218,#219,#220),#229,.T.);
#247=ADVANCED_FACE('',(#221,#222),#34,.T.);
#248=CLOSED_SHELL('',(#230,#231,#232,#233,#234,#235,#236,#237,#238,#239,#240,#241,#242,#243,#244,#245,#246,#247));
#249=STYLED_ITEM('',(#250),#257);
#250=PRESENTATION_STYLE_ASSIGNMENT((#251));
#251=SURFACE_STYLE_USAGE(.BOTH.,#252);
#252=SURFACE_SIDE_STYLE('',(#253));
#253=SURFACE_STYLE_FILL_AREA(#254);
#254=FILL_AREA_STYLE('',(#255));
#255=FILL_AREA_STYLE_COLOUR('',#256);
#256=COLOUR_RGB('',0.768627450980392,0.886274509803922,0.952941176470588);
#257=MANIFOLD_SOLID_BREP('wheel',#248);
#258=SHAPE_DEFINITION_REPRESENTATION(#465,#259);
#259=SHAPE_REPRESENTATION('wheel',(#260),#460);
#260=AXIS2_PLACEMENT_3D('',#374,#296,#297);
#261=AXIS2_PLACEMENT_3D('',#375,#298,#299);
#262=AXIS2_PLACEMENT_3D('',#376,#300,#301);
#263=AXIS2_PLACEMENT_3D('',#378,#302,#303);
#264=AXIS2_PLACEMENT_3D('',#380,#304,#305);
#265=AXIS2_PLACEMENT_3D('',#393,#306,#307);
#266=AXIS2_PLACEMENT_3D('',#395,#308,#309);
#267=AXIS2_PLACEMENT_3D('',#396,#310,#311);
#268=AXIS2_PLACEMENT_3D('',#398,#312,#313);
#269=AXIS2_PLACEMENT_3D('',#400,#314,#315);
#270=AXIS2_PLACEMENT_3D('',#401,#316,#317);
#271=AXIS2_PLACEMENT_3D('',#403,#318,#319);
#272=AXIS2_PLACEMENT_3D('',#405,#320,#321);
#273=AXIS2_PLACEMENT_3D('',#406,#322,#323);
#274=AXIS2_PLACEMENT_3D('',#408,#324,#325);
#275=AXIS2_PLACEMENT_3D('',#410,#326,#327);
#276=AXIS2_PLACEMENT_3D('',#411,#328,#329);
#277=AXIS2_PLACEMENT_3D('',#413,#330,#331);
#278=AXIS2_PLACEMENT_3D('',#414,#332,#333);
#279=AXIS2_PLACEMENT_3D('',#416,#334,#335);
#280=AXIS2_PLACEMENT_3D('',#418,#336,#337);
#281=AXIS2_PLACEMENT_3D('',#419,#338,#339);
#282=AXIS2_PLACEMENT_3D('',#421,#340,#341);
#283=AXIS2_PLACEMENT_3D('',#425,#343,#344);
#284=AXIS2_PLACEMENT_3D('',#426,#345,#346);
#285=AXIS2_PLACEMENT_3D('',#430,#348,#349);
#286=AXIS2_PLACEMENT_3D('',#435,#352,#353);
#287=AXIS2_PLACEMENT_3D('',#440,#356,#357);
#288=AXIS2_PLACEMENT_3D('',#441,#358,#359);
#289=AXIS2_PLACEMENT_3D('',#442,#360,#361);
#290=AXIS2_PLACEMENT_3D('',#443,#362,#363);
#291=AXIS2_PLACEMENT_3D('',#444,#364,#365);
#292=AXIS2_PLACEMENT_3D('',#455,#366,#367);
#293=AXIS2_PLACEMENT_3D('',#456,#368,#369);
#294=AXIS2_PLACEMENT_3D('',#457,#370,#371);
#295=AXIS2_PLACEMENT_3D('',#458,#372,#373);
#296=DIRECTION('',(0.,0.,1.));
#297=DIRECTION('',(1.,0.,0.));
#298=DIRECTION('',(0.,0.,1.));
#299=DIRECTION('',(1.,0.,0.));
#300=DIRECTION('',(0.,0.,-1.));
#301=DIRECTION('',(-1.,0.,0.));
#302=DIRECTION('',(0.,0.,1.));
#303=DIRECTION('',(1.,0.,0.));
#304=DIRECTION('',(0.,0.,-1.));
#305=DIRECTION('',(-1.,0.,0.));
#306=DIRECTION('',(0.,0.,1.));
#307=DIRECTION('',(1.,0.,0.));
#308=DIRECTION('',(-1.,0.,0.));
#309=DIRECTION('',(0.,-1.,0.));
#310=DIRECTION('',(-1.,0.,0.));
#311=DIRECTION('',(0.,0.,1.));
#312=DIRECTION('',(-1.,0.,0.));
#313=DIRECTION('',(0.,0.,1.));
#314=DIRECTION('',(1.,0.,0.));
#315=DIRECTION('',(0.,1.,0.));
#316=DIRECTION('',(-1.,0.,0.));
#317=DIRECTION('',(0.,0.,1.));
#318=DIRECTION('',(1.,0.,0.));
#319=DIRECTION('',(0.,0.,-1.));
#320=DIRECTION('',(1.,0.,0.));
#321=DIRECTION('',(0.,0.,-1.));
#322=DIRECTION('',(1.,0.,0.));
#323=DIRECTION('',(0.,0.,-1.));
#324=DIRECTION('',(1.,0.,0.));
#325=DIRECTION('',(0.,0.,-1.));
#326=DIRECTION('',(-1.,0.,0.));
#327=DIRECTION('',(0.,0.,1.));
#328=DIRECTION('',(-1.,0.,0.));
#329=DIRECTION('',(0.,0.,1.));
#330=DIRECTION('',(-1.,0.,0.));
#331=DIRECTION('',(0.,0.,1.));
#332=DIRECTION('',(-1.,0.,0.));
#333=DIRECTION('',(0.,0.,1.));
#334=DIRECTION('',(-1.,0.,0.));
#335=DIRECTION('',(0.,0.,1.));
#336=DIRECTION('',(1.,0.,0.));
#337=DIRECTION('',(0.,0.,-1.));
#338=DIRECTION('',(1.,0.,0.));
#339=DIRECTION('',(0.,0.,-1.));
#340=DIRECTION('',(1.,0.,0.));
#341=DIRECTION('',(0.,1.,0.));
#342=DIRECTION('',(0.,-1.,4.14709146438612E-16));
#343=DIRECTION('',(-1.,0.,0.));
#344=DIRECTION('',(0.,0.,1.));
#345=DIRECTION('',(0.,0.,-1.));
#346=DIRECTION('',(0.,1.,0.));
#347=DIRECTION('',(-1.,0.,0.));
#348=DIRECTION('',(0.,0.,-1.));
#349=DIRECTION('',(-1.,0.,0.));
#350=DIRECTION('',(-1.,0.,0.));
#351=DIRECTION('',(-1.,0.,0.));
#352=DIRECTION('',(0.,0.,-1.));
#353=DIRECTION('',(-1.,0.,0.));
#354=DIRECTION('',(-1.,0.,0.));
#355=DIRECTION('',(0.,-1.,4.14709146438612E-16));
#356=DIRECTION('',(1.,0.,0.));
#357=DIRECTION('',(0.,1.,0.));
#358=DIRECTION('',(1.,0.,0.));
#359=DIRECTION('',(0.,0.,-1.));
#360=DIRECTION('',(-1.,0.,0.));
#361=DIRECTION('',(0.,0.,1.));
#362=DIRECTION('',(-1.,0.,0.));
#363=DIRECTION('',(0.,0.,1.));
#364=DIRECTION('',(-1.,0.,0.));
#365=DIRECTION('',(0.,0.,1.));
#366=DIRECTION('',(0.,0.,-1.));
#367=DIRECTION('',(-1.,0.,0.));
#368=DIRECTION('',(0.,0.,-1.));
#369=DIRECTION('',(-1.,0.,0.));
#370=DIRECTION('',(-1.,0.,0.));
#371=DIRECTION('',(0.,0.,1.));
#372=DIRECTION('',(0.,0.,1.));
#373=DIRECTION('',(1.,0.,0.));
#374=CARTESIAN_POINT('',(0.,0.,0.));
#375=CARTESIAN_POINT('',(-0.00819,1.53080849893419E-19,0.001498));
#376=CARTESIAN_POINT('',(-0.00819,1.53080849893419E-19,0.0015));
#377=CARTESIAN_POINT('',(-0.00919,1.53080849893419E-19,0.0015));
#378=CARTESIAN_POINT('',(-0.00819,1.53080849893419E-19,0.011824995));
#379=CARTESIAN_POINT('',(-0.00719,1.53080849893419E-19,0.011824995));
#380=CARTESIAN_POINT('',(-0.00819,3.07141417226156E-19,0.041224995));
#381=CARTESIAN_POINT('',(-0.00622005821827552,-0.00197376300429739,0.0202419224173214));
#382=CARTESIAN_POINT('',(-0.00540112145039522,4.86920726051941E-07,0.0203590021484432));
#383=CARTESIAN_POINT('',(-0.0062194559801436,0.00197181532139318,0.0202420689889056));
#384=CARTESIAN_POINT('',(-0.00818774379763135,0.00278790877097153,0.0201244273104886));
#385=CARTESIAN_POINT('',(-0.0101611874521482,0.00197254726802858,0.0202420272369354));
#386=CARTESIAN_POINT('',(-0.0109778084569228,5.66393662358795E-07,0.0203589047794074));
#387=CARTESIAN_POINT('',(-0.0101635776597257,-0.0019691545172728,0.0202423535141332));
#388=CARTESIAN_POINT('',(-0.00819251843578052,-0.00278826906328666,0.0201243825057008));
#389=CARTESIAN_POINT('',(-0.00622005821827552,-0.00197376300429739,0.0202419224173214));
#390=CARTESIAN_POINT('',(-0.00540112145039522,4.86920726051941E-07,0.0203590021484432));
#391=CARTESIAN_POINT('',(-0.0062194559801436,0.00197181532139318,0.0202420689889056));
#392=CARTESIAN_POINT('',(-0.005674,-3.96174680412396E-20,0.02032));
#393=CARTESIAN_POINT('',(-0.00819,3.07141417226156E-19,0.011824995));
#394=CARTESIAN_POINT('',(-0.005674,3.07141417226156E-19,0.011824995));
#395=CARTESIAN_POINT('',(-0.01096,0.,0.));
#396=CARTESIAN_POINT('',(-0.01096,0.,0.));
#397=CARTESIAN_POINT('',(-0.01096,0.,0.02032));
#398=CARTESIAN_POINT('',(-0.01096,0.,1.39977129142542E-18));
#399=CARTESIAN_POINT('',(-0.01096,0.,0.02286));
#400=CARTESIAN_POINT('',(0.01782,0.,0.));
#401=CARTESIAN_POINT('',(0.01782,0.,0.));
#402=CARTESIAN_POINT('',(0.01782,0.,0.02032));
#403=CARTESIAN_POINT('',(0.01782,0.,1.39977129142542E-18));
#404=CARTESIAN_POINT('',(0.01782,0.,-0.02286));
#405=CARTESIAN_POINT('',(-0.0008,0.,0.));
#406=CARTESIAN_POINT('',(-0.00334,0.,0.));
#407=CARTESIAN_POINT('',(-0.00334,0.,-0.01397));
#408=CARTESIAN_POINT('',(-0.0008,0.,0.));
#409=CARTESIAN_POINT('',(-0.0008,0.,-0.01651));
#410=CARTESIAN_POINT('',(0.01782,0.,0.));
#411=CARTESIAN_POINT('',(0.02036,0.,0.));
#412=CARTESIAN_POINT('',(0.02036,0.,0.02032));
#413=CARTESIAN_POINT('',(0.01782,0.,0.));
#414=CARTESIAN_POINT('',(0.02036,0.,0.));
#415=CARTESIAN_POINT('',(0.02036,0.,0.01905));
#416=CARTESIAN_POINT('',(0.01782,0.,0.));
#417=CARTESIAN_POINT('',(0.01782,0.,0.01651));
#418=CARTESIAN_POINT('',(-0.01096,0.,0.));
#419=CARTESIAN_POINT('',(-0.0135,0.,0.));
#420=CARTESIAN_POINT('',(-0.0135,0.,-0.02032));
#421=CARTESIAN_POINT('',(-0.0135,0.,0.002));
#422=CARTESIAN_POINT('',(-0.0135,-0.00106143676400588,0.0015));
#423=CARTESIAN_POINT('',(-0.0135,0.00132287565553229,0.0015));
#424=CARTESIAN_POINT('',(-0.0135,-0.00132287565553229,0.0015));
#425=CARTESIAN_POINT('',(-0.0135,0.,0.));
#426=CARTESIAN_POINT('',(-0.00334,-0.00106143676400588,0.0015));
#427=CARTESIAN_POINT('',(-0.00334,-0.00132287565553229,0.0015));
#428=CARTESIAN_POINT('',(-0.00334,-0.00132287565553229,0.0015));
#429=CARTESIAN_POINT('',(-0.00748289321881345,-0.00132287565553229,0.0015));
#430=CARTESIAN_POINT('',(-0.00819,1.83697019872103E-19,0.0015));
#431=CARTESIAN_POINT('',(-0.00889710678118655,-0.00132287565553229,0.0015));
#432=CARTESIAN_POINT('',(-0.00334,-0.00132287565553229,0.0015));
#433=CARTESIAN_POINT('',(-0.00334,0.00132287565553229,0.0015));
#434=CARTESIAN_POINT('',(-0.00889710678118655,0.00132287565553229,0.0015));
#435=CARTESIAN_POINT('',(-0.00819,1.83697019872103E-19,0.0015));
#436=CARTESIAN_POINT('',(-0.00748289321881345,0.00132287565553229,0.0015));
#437=CARTESIAN_POINT('',(-0.00334,0.00132287565553229,0.0015));
#438=CARTESIAN_POINT('',(-0.00334,0.0013228756555323,0.0015));
#439=CARTESIAN_POINT('',(-0.00334,-0.00106143676400588,0.0015));
#440=CARTESIAN_POINT('',(-0.00334,0.,0.));
#441=CARTESIAN_POINT('',(-0.00334,0.,0.));
#442=CARTESIAN_POINT('',(0.02036,0.019685,0.));
#443=CARTESIAN_POINT('',(-0.00887,0.,0.));
#444=CARTESIAN_POINT('',(-0.00887,0.,0.));
#445=CARTESIAN_POINT('',(-0.00748289321881345,-0.00132287565553229,0.0015));
#446=CARTESIAN_POINT('',(-0.0076911022004469,-0.00143416803754964,0.0014018493447887));
#447=CARTESIAN_POINT('',(-0.00818645155660168,-0.00156574719690395,0.00124397729824001));
#448=CARTESIAN_POINT('',(-0.00868858918583482,-0.00143433299852089,0.00140170386288672));
#449=CARTESIAN_POINT('',(-0.00889710678118655,-0.00132287565553229,0.0015));
#450=CARTESIAN_POINT('',(-0.00889710678118655,0.00132287565553229,0.0015));
#451=CARTESIAN_POINT('',(-0.00868889779955311,0.00143416803754965,0.0014018493447887));
#452=CARTESIAN_POINT('',(-0.00819354844339832,0.00156574719690395,0.00124397729824001));
#453=CARTESIAN_POINT('',(-0.00769141081416518,0.00143433299852088,0.00140170386288672));
#454=CARTESIAN_POINT('',(-0.00748289321881345,0.00132287565553229,0.0015));
#455=CARTESIAN_POINT('',(-0.00819,9.18485099360515E-20,0.0254));
#456=CARTESIAN_POINT('',(-0.00819,9.18485099360515E-20,0.0254));
#457=CARTESIAN_POINT('',(-0.0254,0.,0.));
#458=CARTESIAN_POINT('',(0.020575,0.00770249750000001,0.011824995));
#459=MECHANICAL_DESIGN_GEOMETRIC_PRESENTATION_REPRESENTATION('',(#249),#460);
#460=(
GEOMETRIC_REPRESENTATION_CONTEXT(3)
GLOBAL_UNCERTAINTY_ASSIGNED_CONTEXT((#461))
GLOBAL_UNIT_ASSIGNED_CONTEXT((#464,#463,#462))
REPRESENTATION_CONTEXT('wheel','TOP_LEVEL_ASSEMBLY_PART')
);
#461=UNCERTAINTY_MEASURE_WITH_UNIT(LENGTH_MEASURE(2.E-05),#464,'DISTANCE_ACCURACY_VALUE','Maximum Tolerance applied to model');
#462=(
NAMED_UNIT(*)
SI_UNIT($,.STERADIAN.)
SOLID_ANGLE_UNIT()
);
#463=(
NAMED_UNIT(*)
PLANE_ANGLE_UNIT()
SI_UNIT($,.RADIAN.)
);
#464=(
LENGTH_UNIT()
NAMED_UNIT(*)
SI_UNIT($,.METRE.)
);
#465=PRODUCT_DEFINITION_SHAPE('','',#466);
#466=PRODUCT_DEFINITION('','',#468,#467);
#467=PRODUCT_DEFINITION_CONTEXT('',#474,'design');
#468=PRODUCT_DEFINITION_FORMATION_WITH_SPECIFIED_SOURCE('','',#470,.NOT_KNOWN.);
#469=PRODUCT_RELATED_PRODUCT_CATEGORY('','',(#470));
#470=PRODUCT('wheel','wheel','wheel',(#472));
#471=PRODUCT_CATEGORY('','');
#472=PRODUCT_CONTEXT('',#474,'mechanical');
#473=APPLICATION_PROTOCOL_DEFINITION('international standard','ap242_managed_model_based_3d_engineering',2020,#474);
#474=APPLICATION_CONTEXT('managed model based 3d engineering');
ENDSEC;
END-ISO-10303-21;
